<?xml version="1.0" encoding="utf-8"?>
<!-- Generator: Adobe Illustrator 16.0.0, SVG Export Plug-In . SVG Version: 6.00 Build 0)  -->
<!DOCTYPE svg PUBLIC "-//W3C//DTD SVG 1.1//EN" "http://www.w3.org/Graphics/SVG/1.1/DTD/svg11.dtd">
<svg version="1.1" id="Layer_1" xmlns="http://www.w3.org/2000/svg" xmlns:xlink="http://www.w3.org/1999/xlink" x="0px" y="0px"
	 width="2551.18px" height="850.39px" viewBox="0 0 2551.18 850.39" enable-background="new 0 0 2551.18 850.39"
	 xml:space="preserve">
<polygon fill="#ED1A3F" points="583.845,435.499 648.729,435.499 616.287,349.526 "/>
<g>
	<defs>
		<rect id="SVGID_1_" width="2551.18" height="850.39"/>
	</defs>
	<clipPath id="SVGID_2_">
		<use xlink:href="#SVGID_1_"  overflow="visible"/>
	</clipPath>
	<path clip-path="url(#SVGID_2_)" fill="#ED1A3F" d="M355.938,497.95L355.938,497.95l-0.001-180.325h31.631v73.806h93.813v-73.806
		h0.004v-58.259H154.532c-18.364,0-33.251,14.887-33.251,33.251v233.245c0,18.364,14.887,33.251,33.251,33.251h201.406V497.95z
		 M302.679,497.95l-60.559-75.969l-15.68,18.384v57.585h-31.632V317.625h31.632v85.972l70.562-85.972h39.201l-73.266,85.161
		l78.673,95.164H302.679z"/>
	<path clip-path="url(#SVGID_2_)" fill="#ED1A3F" d="M794.451,342.768c-36.497,0-59.748,27.846-59.748,65.155
		c0,37.038,23.251,65.155,59.748,65.155c36.228,0,59.748-28.117,59.748-65.155C854.199,370.614,830.679,342.768,794.451,342.768"/>
	<path clip-path="url(#SVGID_2_)" fill="#ED1A3F" d="M1081.406,259.366h-568.39v60.763h-0.004V497.95h-31.631v-78.673h-93.812
		v75.605v64.23h693.837c18.364,0,33.251-14.887,33.251-33.251V292.617C1114.657,274.252,1099.77,259.366,1081.406,259.366
		 M670.898,497.95l-13.247-34.605h-82.728l-13.247,34.605h-35.957l70.832-180.325h39.472l70.832,180.325H670.898z M794.451,501.194
		c-54.07,0-92.189-39.472-92.189-93.271c0-53.801,38.119-93.272,92.189-93.272c54.071,0,92.191,39.471,92.191,93.272
		C886.642,461.722,848.522,501.194,794.451,501.194 M972.076,501.194c-33.254,0-57.315-11.625-73.265-28.657l17.572-24.332
		c12.437,13.248,31.902,24.873,57.045,24.873c25.953,0,36.227-12.707,36.227-24.602c0-16.223-19.195-21.089-41.094-26.766
		c-29.468-7.3-64.073-15.951-64.073-54.071c0-29.738,26.224-52.718,65.695-52.718c28.117,0,50.827,8.921,67.588,25.142
		l-18.113,23.521c-14.059-14.058-33.254-20.547-52.178-20.547c-18.655,0-30.55,8.922-30.55,22.439
		c0,14.059,18.384,18.655,39.742,24.062c29.739,7.57,65.154,16.761,65.154,55.963C1041.826,475.51,1020.739,501.194,972.076,501.194
		"/>
	<path clip-path="url(#SVGID_2_)" fill="#1A1A1A" d="M1187.891,407.865c0-55.457,40.308-93.331,91.437-93.331
		c28.676,0,50.317,12.715,65.737,31.922l-12.986,8.387c-11.36-15.691-31.109-26.242-52.751-26.242
		c-42.473,0-75.206,32.193-75.206,79.264c0,46.529,32.733,79.263,75.206,79.263c21.642,0,41.391-10.55,52.751-26.241l12.986,8.116
		c-15.961,19.748-37.062,32.192-65.737,32.192C1228.199,501.196,1187.891,463.323,1187.891,407.865"/>
	<path clip-path="url(#SVGID_2_)" fill="#1A1A1A" d="M1369.679,407.865c0-52.752,34.627-93.331,87.649-93.331
		c52.752,0,87.648,40.579,87.648,93.331c0,52.752-34.896,93.331-87.648,93.331C1404.306,501.196,1369.679,460.618,1369.679,407.865
		 M1528.746,407.865c0-45.989-28.135-79.264-71.418-79.264c-43.825,0-71.418,33.275-71.418,79.264
		c0,45.447,27.593,79.263,71.418,79.263C1500.611,487.128,1528.746,453.312,1528.746,407.865"/>
	<polygon clip-path="url(#SVGID_2_)" fill="#1A1A1A" points="1712.156,497.95 1598.536,342.939 1598.536,497.95 1583.116,497.95 
		1583.116,317.511 1598.807,317.511 1711.885,470.355 1711.885,317.511 1727.305,317.511 1727.305,497.95 	"/>
	<polygon clip-path="url(#SVGID_2_)" fill="#1A1A1A" points="1818.195,497.95 1818.195,331.578 1759.222,331.578 1759.222,317.511 
		1892.859,317.511 1892.859,331.578 1833.885,331.578 1833.885,497.95 	"/>
	<path clip-path="url(#SVGID_2_)" fill="#1A1A1A" d="M2030.551,497.95l-50.587-74.665h-39.767v74.665h-15.42V317.511h67.359
		c31.111,0,54.916,19.748,54.916,52.752c0,32.733-23.264,50.858-50.046,51.94l52.212,75.747H2030.551z M2030.822,370.263
		c0-22.725-16.231-38.686-40.037-38.686h-50.588v77.641h50.588C2014.591,409.218,2030.822,392.987,2030.822,370.263"/>
	<path clip-path="url(#SVGID_2_)" fill="#1A1A1A" d="M2078.701,407.865c0-52.752,34.627-93.331,87.649-93.331
		c52.752,0,87.649,40.579,87.649,93.331c0,52.752-34.897,93.331-87.649,93.331C2113.328,501.196,2078.701,460.618,2078.701,407.865
		 M2237.769,407.865c0-45.989-28.135-79.264-71.418-79.264c-43.825,0-71.418,33.275-71.418,79.264
		c0,45.447,27.593,79.263,71.418,79.263C2209.634,487.128,2237.769,453.312,2237.769,407.865"/>
	<polygon clip-path="url(#SVGID_2_)" fill="#1A1A1A" points="2292.139,497.95 2292.139,317.511 2307.559,317.511 2307.559,483.882 
		2394.938,483.882 2394.938,497.95 	"/>
</g>
</svg>
