<?xml version="1.0" encoding="utf-8"?>
<!-- Generator: Adobe Illustrator 23.1.0, SVG Export Plug-In . SVG Version: 6.00 Build 0)  -->
<svg version="1.1" id="Layer_1" xmlns="http://www.w3.org/2000/svg" xmlns:xlink="http://www.w3.org/1999/xlink" x="0px" y="0px"
	 viewBox="0 0 8192 1797" style="enable-background:new 0 0 8192 1797;" xml:space="preserve">
<style type="text/css">
	.st0{fill:#5F458E;}
</style>
<g transform="translate(0.000000,1797.000000) scale(0.100000,-0.100000)">
	<path class="st0" d="M28017.4,16419.3c-27.3-0.8-133.3-5.8-236-10.8c-2156.3-101.9-4240.5-726.2-6041.5-1809.3
		c-644.2-387.5-1329.9-900.9-1964.2-1472.3c-152.4-138.3-509.3-486.9-590.4-579.6c-49.7-54.7-57.1-67.9-57.1-95.2
		c0.8-34,10.8-52.2,40.6-67.1c42.2-23.2,60.4-9.1,251.7,186.3c705.5,721.2,1635.4,1449.9,2497.4,1956.7
		c1838.3,1080.6,3878.6,1659.4,6128.5,1737.3c282.4,9.9,1266.9,6.6,1519.5-4.1c1283.5-58.8,2310.3-188.8,3399.2-433.1
		c271.6-61.3,839.7-207,852.1-219.4c6.6-6.6-14.1-2.5-139.9,24.8c-973,214.5-2026.3,347-3217,404.1
		c-285.7,13.2-1301.7,13.2-1569.2,0c-385.9-19.9-851.2-57.1-1213.1-96.9c-2175.3-241.8-4295.1-1076.5-6048.2-2382.3
		c-534.1-398.3-1050.8-847.1-1491.3-1295.1c-256.7-261.7-507.6-539.1-535.8-593.7c-24.8-48,12.4-105.2,68.7-105.2
		c33.1,0,46.4,11.6,148.2,130.8c394.2,461.2,992,1026,1589.9,1502.1c1622.2,1290.1,3580.5,2160.4,5626.7,2498.3
		c586.3,96.9,1317.4,165.6,2028.7,192.1c462.1,16.6,1396.9,1.7,1850.7-29.8c1220.6-85.3,2233.3-240.1,3260.1-499.3
		c253.4-63.8,629.3-168.9,623.5-173.9c-1.7-1.7-45.5,6.6-96.9,19c-976.3,228.5-2287.1,400.8-3381,443
		c-278.2,10.8-1094.7,10.8-1392,0c-984.6-35.6-1704.1-116.8-2553.7-286.5c-892.7-178.9-1830-477.8-2636.5-842.1
		c-920-414-1964.2-1073.2-2761.6-1743.1c-456.3-383.4-942.3-850.4-1388.7-1335.7c-206.2-223.6-459.6-515.1-502.6-578.8
		c-41.4-59.6,19.9-141.6,85.3-113.4c14.1,5.8,66.2,60.4,125,130c236,282.4,478.6,545.7,818.1,888.5
		c719.6,726.2,1299.2,1205.7,2075.1,1715.7c1024.3,674,1947.6,1105.5,3107.7,1452.4c547.3,164,992,264.2,1674.3,377.6
		c1090.6,182.2,2649,241,3925,148.2c910.9-65.4,1904.5-210.3,2735.9-397.5c279.1-62.9,853.7-208.7,847.1-215.3
		c-1.7-1.7-53.8,8.3-115.9,21.5c-280.7,61.3-783.3,149.1-1189.9,207c-716.3,101.9-1509.6,167.3-2314.4,190.5
		c-296.4,8.3-1089.7,3.3-1324.9-8.3c-884.4-43.1-1848.2-178-2728.5-381.7c-633.5-146.6-1401.9-403.3-2049.4-684.8
		c-1253.7-544.9-2235.8-1184.1-3382.6-2200.2c-337.8-299.8-900.9-897.6-1378.7-1464l-157.3-187.1h-618.6l-619.4-0.8v-2894V4550.7
		h1041.7c1661.9,0,1820.9,10.8,2226.7,141.6c599.5,192.9,1038.4,486.1,1425.9,951.4c9.9,11.6-37.3-68.7-103.5-178
		c-136.6-224.4-378.4-630.2-461.2-775.1c-34.8-60.4-55.5-105.2-55.5-120.9c0-32.3,26.5-66.2,57.1-72.9
		c46.4-9.9,67.1,10.8,145.7,146.6c609.5,1050.8,1313.3,2136.4,1788.6,2757.4c640.9,836.3,1309.2,1582.4,1892.1,2111.6
		c1098.8,996.2,2261.4,1756.3,3428.2,2239.9c1127,467,2168.7,751.1,3320.5,904.2c404.9,54.7,907.6,99.4,1300.1,115.9
		c106.8,5,236.8,10.8,289,13.2c111,5,1136.1,5.8,1172.5,0.8c14.1-2.5,105.2-5.8,202.9-9.1c458.7-12.4,1116.2-62.9,1635.4-124.2
		l173.9-20.7l82.8-82.8c73.7-74.5,80.3-82.8,58-78.7c-60.4,9.9-674.9,52.2-1022.7,70.4c-673.2,34-1315,26.5-2074.3-25.7
		c-902.6-61.3-1593.2-164-2302-342.8c-1093.9-275.7-1838.3-541.6-2645.7-944.8c-645.1-322.9-1248.7-689.8-1747.2-1063.2
		c-52.2-38.9-141.6-96.9-198.7-127.5c-344.5-188.8-684-474.5-916.7-772.6c-30.6-39.7-214.5-231-408.2-424.8
		c-458.7-458.7-660-678.2-982.1-1072.3c-872.8-1068.2-1545.2-2080.1-2543-3825.6c-192.1-335.4-184.7-317.1-144.9-361.9
		c27.3-29.8,62.1-34.8,94.4-13.2c10.8,7.5,80.3,120.9,154.8,251.7c406.6,715.4,900.1,1534.4,1240.4,2058.6
		c468.7,722.1,1144.4,1616.4,1672.7,2213.4c88.6,100.2,531.6,567.2,538.2,567.2c1.7,0-3.3-14.1-10.8-30.6
		c-7.5-17.4-32.3-81.2-54.7-141.6c-120.9-328.7-176.4-642.6-184.7-1047.5l-4.1-173.1l-60.4-75.4
		c-453.8-566.4-1058.3-1423.4-1458.2-2067.7c-318-510.9-835.5-1399.4-1266.9-2175.3c-150.7-270.8-150.7-271.6-108.5-313.8
		c23.2-23.2,65.4-26.5,92.7-7.5c9.9,6.6,33.1,41.4,52.2,76.2c238.5,436.4,818.1,1445,1112.1,1936
		c330.4,552.3,668.2,1064.9,1084.8,1647.8c189.6,265,549.8,741.9,569.7,754.4c4.1,2.5,7.5-8.3,7.5-24c0-48.9,41.4-277.4,70.4-390.8
		c158.2-616.1,523.3-1152.7,1054.1-1551c617.7-462.9,1454.9-660.8,2436.2-576.3c525,44.7,1063.2,179.7,1600.6,400.8l105.2,43.1v1233
		v1233h-977.1H31019v-376.8V6654h558.9h558.9l-1.7-597l-2.5-597.9l-86.9-27.3c-550.7-177.2-965.5-244.3-1349.7-219.4
		c-617.7,40.6-1097.2,240.1-1492.2,620.2c-186.3,179.7-315.5,355.2-424,573.8c-159.8,322.1-224.4,621.9-224.4,1038.4
		c0.8,222.7,9.1,310.5,46.4,491c84.5,411.5,298.1,794.1,616.9,1103.8c355.2,344.5,746.1,534.9,1249.5,608.6
		c124.2,19,510.9,21.5,662.4,5c548.2-59.6,1073.2-230.2,1605.6-522.5c58-32.3,109.3-58.8,113.4-58.8s7.5,178.9,7.5,425.6v424.8
		l-188,75.4c-458.7,183-838,302.2-1127,354.4c-65.4,11.6-74.5,14.9-62.1,24c39.7,28.2,360.2,197.9,539.9,286.5
		c1364.6,674.9,2709.4,1074.8,4174.3,1240.4c1160.9,131.7,2232.4,154.8,3365.2,71.2c138.3-9.9,159-13.2,169.8-27.3
		c7.5-9.1,69.6-82.8,138.3-164c872.8-1035.9,1659.4-2342.6,2201.8-3659.2c698.9-1697.5,1186.6-3920.9,1332.4-6078
		c7.4-100.2,14.9-240.1,18.2-310.5c3.3-81.1,9.9-136.6,16.6-150.7c15.7-31.5,59.6-43.9,96.9-28.2c45.5,19,49.7,42.2,38.9,234.3
		c-119.2,2193.5-598.7,4477.3-1317.4,6278.4c-529.1,1323.2-1329,2678.8-2205.1,3734.6c-62.1,74.5-111.8,136.6-110.1,138.3
		c0.8,1.7,72-3.3,158.2-10.8l155.7-13.2l114.3-120.9c1170.9-1236.3,2138.1-2877.5,2815.4-4775.4c313.8-878.6,598.7-1936,761-2831.1
		c157.3-861.2,262.5-1712.4,311.4-2508.2c5.8-85.3,7.4-92.7,29-114.3c26.5-25.7,54.7-29.8,90.3-10.8c35.6,18.2,40.6,43.9,33.1,173.9
		c-38.9,664.1-139.9,1503.8-277.4,2293.7c-209.5,1204.8-575.5,2502.4-1020.2,3618.6c-182.2,456.3-324.6,773.4-553.1,1229.7
		c-563.9,1126.2-1194.9,2061-1957.5,2899c-62.1,67.9-96.9,111.8-89.4,113.4c6.6,0.8,72.9-5,147.4-14.1l135.8-16.6l65.4-64.6
		c207.8-205.4,794.1-857,978.8-1087.2c527.5-658.3,1208.1-1752.2,1577.5-2533.9c201.2-424.8,558.1-1319.9,746.9-1871.4
		c300.6-881.1,620.2-2272.2,780-3399.2c29-198.7,99.4-808.2,120.9-1035.1c26.5-285.7,23.2-269.1,49.7-295.6
		c32.3-31.5,67.9-31.5,100.2,0.8c29.8,29.8,29.8,41.4,7.5,279.1c-14.9,159-29,285.7-86.1,777.5c-94.4,804-339.5,2030.4-580.5,2906.5
		c-188,684.8-404.9,1294.3-785,2206.8c-130.8,313.8-186.3,437.2-324.6,711.3c-404.1,803.2-1052.5,1820.9-1536.9,2410.5
		c-103.5,125.9-563.1,641.7-733.7,823.9c-68.7,72.9-124.2,133.3-123.4,134.1c0,0.8,58-8.3,128.3-19l126.7-19.9l96.9-88.6
		c137.5-126.7,684-674,799.9-801.6c216.1-236.8,365.2-417.3,626-757.7c404.9-528.3,634.3-872.8,958.1-1436.7
		c480.3-839.7,876.1-1722.4,1182.5-2641.5c205.4-617.7,395-1281,503.5-1763.8c176.4-785,372.6-1980.7,419-2554.6
		c11.6-140.8,13.3-146.6,37.3-170.6c26.5-26.5,69.6-26.5,101,0c22.4,19.9,23.2,22.4,21.5,94.4c-4.1,234.3-128.4,1113.7-251.7,1786.1
		c-165.6,904.2-304.7,1458.2-600.3,2393.1c-366,1155.1-852.9,2232.5-1473.1,3258.4c-208.7,345.3-367.7,581.3-616.9,915
		c-481.9,646.7-716.3,919.1-1252.9,1451.6c-147.4,146.6-264.2,266.6-259.2,266.6s55.5-9.9,112.6-20.7
		c57.1-11.6,104.3-20.7,105.2-20.7c8.3,0,265.8-224.4,414.9-361.9c785-720.4,1499.6-1568.3,2048.6-2432.8
		c376.8-592.9,763.5-1318.3,1063.2-1996.5c242.6-549,567.2-1467.3,765.1-2164.5c238.5-839.7,522.5-2276.3,597-3018.3
		c5-54.7,14.9-111,21.5-125c22.4-48.9,80.3-58.8,119.2-20.7c29,29.8,29,34,7.5,220.3c-115.9,977.1-410.7,2389.8-683.2,3270.8
		c-183.8,594.5-462.1,1370.4-635.9,1777c-222.8,519.2-559.8,1187.4-852.9,1688.4c-376.8,645.1-728.7,1146.9-1199,1709.9
		c-374.3,448-746.9,837.2-1206.5,1257.8c-73.7,67.9-133.3,124.2-132.5,125.9c4.1,4.1,173.1-36.4,183-44.7
		c902.6-693.9,1609.8-1416.8,2326-2378.2c334.5-448,588.8-839.7,886.9-1362.2c340.3-597.9,562.3-1062.4,854.6-1788.6
		c492.7-1223.9,876.1-2704.4,1105.5-4272.8c14.9-101,30.6-181.3,38.1-192.9c39.7-60.4,135.8-29,135.8,44.7
		c0,35.6-47.2,356.1-91.9,620.2c-155.7,930.7-334.5,1699.2-600.3,2583.5c-312.2,1036.7-749.4,2080.1-1237.1,2952
		c-335.4,599.5-607.8,1022.7-985.4,1527.8c-634.3,849.6-1267.8,1519.5-2014.7,2130.6c-40.6,33.1-72,59.6-70.4,59.6
		s36.4-9.1,78.7-19.9c83.6-21.5,73.7-14.9,296.4-182.2c167.3-125,296.4-227.7,459.6-364.3c819.8-686.5,1359.7-1258.7,2029.6-2151.3
		c541.6-722.1,1190.8-1873.1,1584.9-2809.6c108.5-258.4,322.9-823.1,419-1105.5c279.9-816.5,583-2050.3,736.1-2989.3
		c48-298.1,48-298.1,81.1-317.1c21.5-12.4,33.1-14.9,53.8-8.3c34.8,9.9,65.4,54.7,59.6,88.6c-1.7,14.1-17.4,107.6-33.1,207.8
		c-160.6,995.3-474.5,2264.7-767.6,3105.2c-65.4,187.1-256.7,698.9-331.2,886c-260.8,655-674.9,1468.2-1112.9,2187.7
		c-515.9,847.1-1246.2,1759.6-1927.7,2407.2c-269.1,255-625.2,564.7-918.3,799.1c-99.4,78.7-139.9,115.9-124.2,111.8
		c53.8-11.6,583.8-380.9,854.6-594.5c607-478.6,1245.4-1090.6,1710.8-1640.4c225.2-265.8,592.1-741.1,793.3-1027.6
		c293.1-417.3,621-975.5,938.2-1597.3c205.4-403.3,499.3-1079,689.8-1588.2c97.7-260.8,304.7-897.6,407.4-1253.7
		c156.5-543.2,338.7-1334,433.9-1883.8c15.7-90.3,32.3-171.4,37.3-180.5c29.8-55.5,125-37.3,136.6,27.3
		c14.9,81.1-210.3,1149.3-364.3,1729.8c-113.4,425.6-327.9,1112.1-472.8,1515.4c-162.3,449.6-512.6,1268.6-708,1654.5
		c-308.9,611.9-666.6,1223.9-962.2,1647.8c-209.5,299.8-624.4,836.3-858.7,1109.6c-494.4,576.3-1218.9,1257.8-1809.3,1702.5
		c-33.9,25.7-62.1,48-62.1,49.7c0,15.7,528.3-348.6,790.8-545.7c454.6-342,755.2-599.5,1136.9-978.8
		c689.8-681.5,1104.6-1185,1661.1-2015.5c682.3-1017.7,1294.3-2312.8,1722.4-3644.3c181.3-564.7,460.4-1649.5,539.1-2098.3
		c12.4-67.1,24.8-130.8,29-141.6c14.9-38.9,69.6-58,109.3-36.4c20.7,10.8,38.9,54.7,34.8,82c-68.7,419-271.6,1246.2-476.1,1941.8
		c-323.8,1100.5-840.5,2311.9-1404.4,3294c-362.7,631.8-904.2,1401.9-1353.9,1926.9c-159.8,186.3-263.3,299.8-506.8,553.1
		c-438,458.7-871.9,843.8-1363,1210.6c-130.8,97.7-178.9,135.8-149.1,119.2c6.6-3.3,86.9-54.7,178-113.4
		c569.7-369.3,1075.7-754.4,1486.4-1129.5c179.7-164.8,705.5-694.7,878.6-885.2c700.5-772.6,1305-1649.5,1851.5-2690.4
		c229.4-436.4,510.9-1076.5,739.5-1681c241.8-639.3,554.8-1694.2,698.9-2355.8c53-242.6,53-242.6,76.2-263.3
		c36.4-32.3,92.7-19,114.3,26.5c11.6,24.8,10.8,36.4-19.9,179.7c-124.2,575.5-402.4,1551.8-616.9,2160.4
		c-221.1,627.7-500.1,1288.5-779.2,1846.6c-525,1047.5-1195.7,2043.7-1910.3,2835.3c-252.6,279.1-665.8,697.2-929.1,940.7
		c-196.3,181.3-502.6,432.2-766,627.7c-155.7,115.9-192.9,144.9-165.6,129.2c41.4-23.2,292.3-186.3,422.3-274.9
		c688.9-467.9,1088.9-799.9,1718.2-1430.1c459.6-459.6,707.2-745.3,1102.1-1271.1c325.4-432.2,508.4-705.5,779.2-1159.3
		c322.9-541.6,514.2-914.2,799.9-1556.8c167.3-377.6,253.4-596.2,444.7-1134.4c190.5-534.1,317.1-961.4,485.2-1631.3
		c75.4-302.2,77.8-306.4,135-306.4c44.7,0.8,75.4,31.5,75.4,77c0,47.2-169.8,694.7-290.6,1108.8
		c-128.4,439.7-372.6,1135.3-554.8,1582.4c-200.4,489.4-507.6,1135.3-724.6,1525.3c-136.6,245.1-421.5,718.8-543.2,903.4
		c-361,545.7-849.6,1178.3-1228,1589c-159.8,173.9-631.8,643.4-815.6,811.5c-291.5,266.6-571.4,500.1-796.6,665.8
		c-178.9,130.8-130.8,103.5,163.1-91.1c685.6-453.8,1255.3-923.3,1838.3-1516.2c785-796.6,1358-1546,1931.9-2528.9
		c301.4-515.1,625.2-1174.2,877.7-1783.6c246.8-596.2,582.1-1607.3,726.2-2186.1c28.2-115.1,35.6-130.8,63.8-145.7
		c30.6-15.7,64.6-9.1,89.4,17.4c16.6,17.4,18.2,25.7,14.1,67.9c-13.3,132.5-227.7,851.2-415.7,1392.8
		c-282.4,813.2-472,1265.3-845.4,2013c-331.2,662.4-779.2,1391.1-1199,1950.1c-619.4,824.7-1397.8,1631.3-2166.2,2244
		c-409.9,327.1-869.5,643.4-1353.9,931.6c-415.7,247.6-1035.9,558.9-1549.3,779.2c-82,34.8-195.4,86.9-251.7,115.1
		c-190.5,95.2-579.6,269.9-778.4,349.4c-33.9,13.2-110.1,47.2-169.8,75.4c-58.8,27.3-221.1,101-360.2,164
		c-139.1,62.1-342,154.8-451.3,206.2s-279.1,127.5-376.8,169.8c-98.5,42.2-243.4,109.3-322.1,148.2
		c-183,91.9-330.4,159.8-563.9,261.7c-102.7,44.7-252.6,113.4-332.9,152.4c-188.8,91.1-360.2,168.1-561.4,253.4
		c-159,67.1-205.4,87.8-519.2,232.7c-86.9,39.7-234.3,105.2-327.1,144.1c-92.7,39.7-245.9,109.3-342,154.8
		c-239.3,114.3-448.8,210.3-650,296.4c-93.6,40.6-221.9,97.7-285.7,128.3s-216.1,100.2-339.5,154.8
		c-122.6,53.8-241.8,109.3-265,121.7c-125,70.4-597.9,288.2-845.4,390.8c-67.9,27.3-211.2,91.1-318,139.9s-250.1,113.4-318.8,143.3
		c-67.9,29.8-198.7,90.3-289.8,134.1c-883.5,428.9-1787,752.7-2803,1006.1c-1203.2,300.6-2397.2,463.7-3810.7,521.7
		C29349.8,16424.3,28157.4,16425.9,28017.4,16419.3z M31892.7,15108.5c1564.2-45.5,3003.4-245.9,4239.7-588.8
		c118.4-32.3,229.4-62.9,246.8-67.9c17.4-4.1,29.8-9.1,28.2-10.8s-67.9,11.6-147.4,29c-959.7,214.5-2052.8,349.4-3303.1,408.2
		c-284.9,13.2-1193.2,13.2-1457.4,0c-1214.8-61.3-2213.4-213.6-3229.4-491c-424-115.9-1037.6-322.1-1432.5-481.1
		c-591.2-238.5-1238.8-578-1937.7-1015.2c-433.9-271.6-824.7-563.1-1291.8-963.9c-604.5-518.4-1085.6-992.8-1506.2-1484.7
		l-92.7-107.6l-481.9,3.3c-265,1.7-483.6,4.1-484.4,5c-3.3,3.3,255,305.6,403.3,472c626,703.9,1022.7,1083.9,1685.9,1614.7
		c676.5,542.4,1296.7,944.8,1999.8,1299.2c701.4,354.4,1302.5,593.7,2070.2,827.2c997,303.1,2465.1,530.8,3585.5,554.8
		C31055.6,15116.8,31651.8,15116,31892.7,15108.5z M33110,14716c1205.7-63.8,2255.6-199.6,3192.2-412.4
		c344.5-77.8,949.8-235.2,940.7-244.3c-1.7-1.7-63.8,9.9-138.3,25.7c-425.6,91.1-1215.6,221.1-1713.3,281.5
		c-1043.4,126.7-2378.2,169.8-3345.4,107.6c-770.9-48.9-1661.9-178-2492.5-360.2c-1004.4-221.1-2285.4-723.7-3270-1284.3
		c-500.1-284.9-1092.2-692.3-1611.4-1107.1c-484.4-386.7-1011.9-893.5-1600.6-1535.2l-36.4-39.7l-105.2,29
		c-193.8,55.5-382.6,91.9-597,117.6c-66.2,7.5-125,14.9-130.8,16.6c-21.5,5.8,329.6,393.3,606.1,669.9
		c614.4,611.9,1323.2,1213.9,1872.2,1587.4c480.3,327.1,1254.5,766.8,1767.9,1004.4c655,303.1,1530.3,598.7,2326.8,785.8
		c895.1,209.5,1944.3,342.8,2931.3,372.6C31942.4,14737.5,32884.8,14727.6,33110,14716z M33594.4,14338.4
		c1009.4-32.3,1681-94.4,2558.7-236.8c568-91.9,1023.5-182.2,1402.7-277.4c96.1-24,140.8-39.7,167.3-58
		c19.9-13.2,36.4-25.7,36.4-27.3c0-0.8-53,8.3-117.6,20.7c-917.5,179.7-2120.7,313-3149.1,347.8c-308,10.8-1052.5,5.8-1337.3-9.1
		c-1654.5-83.6-2990.1-351.1-4363.9-874.4c-992.8-377.6-1755.5-786.7-2629.1-1410.2c-811.5-578.8-1481.4-1176.7-2175.3-1940.1
		l-140.8-154l-68.7,50.5c-141.6,104.3-337,217-494.4,283.2c-44.7,19-83.6,36.4-85.3,38.9c-14.1,13.2,735.3,775.1,1030.9,1047.5
		c394.2,363.5,819,699.7,1341.5,1059.9c431.4,297.3,816.5,526.6,1279.4,760.2c944,477,1947.6,839.7,2836.1,1026
		c958.9,201.2,1850.7,317.1,2699.5,351.9C32614,14347.5,33307.1,14347.5,33594.4,14338.4z M34803.4,13941.8
		c1107.1-63.8,2181.1-198.7,3059.7-383.4l197.9-41.4l48-38.1c26.5-20.7,47.2-38.9,45.5-40.6s-75.4,9.9-164,25.7
		c-656.7,116.8-1454.1,201.2-2297,245.1c-467,24-1343.1,18.2-1917-12.4c-1293.4-70.4-2440.3-285.7-3635.2-683.1
		c-1238.8-411.5-2234.1-928.3-3308.1-1716.6c-568-417.3-920-721.2-1436.7-1238.8c-303.1-303.1-473.7-485.2-756-808.2
		c-96.1-109.3-176.4-199.6-178.9-200.4s-29.8,34.8-61.3,79.5c-94.4,136.6-194.6,256.7-317.1,378.4l-116.8,117.6l145.7,159.8
		c191.3,211.2,621,645.9,849.6,858.7c568,530.8,1284.3,1075.7,1988.2,1513.7c547.3,341.2,1196.5,659.1,1858.2,911.7
		c1416,539.9,2796.4,811.5,4479.8,880.2C33518.2,13958.3,34603,13953.4,34803.4,13941.8z M35743.2,13552.6
		c777.5-45.5,1466.5-115.9,2032.9-207.8c236.8-38.9,598.7-105.2,631.8-115.9c22.4-7.5,125-91.1,119.2-96.9c-1.7-1.7-53,5-114.3,13.2
		c-1200.7,175.5-2841.9,238.5-4027.7,154c-1411.8-101-2884.1-438-4161-952.3c-1216.4-489.4-2485-1300.9-3560.7-2277.2
		c-165.6-149.9-655-636.8-820.6-815.6c-284-308-594.5-667.4-846.3-982.9c-73.7-91.9-135.8-167.3-138.3-167.3
		c-2.5-0.8-13.2,35.6-23.2,80.3c-45.5,188.8-141.6,438-242.6,629.3l-49.7,93.6l106,121.7c677.4,779.2,1252.9,1345.6,1844.9,1816.8
		c642.6,510.9,1309.2,950.6,1974.1,1302.5c1040,549.8,2378.2,991.2,3677.4,1213.1c692.3,117.6,1238.8,168.9,2148.8,202
		C34457.2,13569.1,35603.3,13560.9,35743.2,13552.6z M36476.1,13163.4c798.3-37.3,1423.4-96.1,2085.9-196.3l192.9-29l69.6-63.8
		c38.1-34.8,69.6-63.8,69.6-63.8c0-0.8-39.7,4.1-87.8,9.9c-996.2,120.1-2369.1,159-3394.2,97.7
		c-1570-95.2-2897.4-389.2-4301.8-952.3c-342.8-137.5-497.7-207-799.1-356.1c-880.2-436.4-1705.8-992.8-2558.7-1722.4
		c-510.1-436.4-977.1-909.2-1482.2-1498.8c-570.5-665.8-1018.5-1263.6-1486.4-1983.2c-69.6-106.8-129.2-197.9-133.3-202
		c-3.3-4.1,11.6,33.1,33.1,82.8c164,368.5,241,739.5,241,1159.3c0,139.1-17.4,396.6-29.8,434.7c-4.1,14.9,108.5,162.3,332.1,433.9
		c1111.3,1349.7,2155.4,2279.7,3457.2,3080.4c896,550.7,1758.8,925.8,2860.9,1243.7c1068.2,307.2,2166.2,483.6,3316.4,532.4
		C35079.9,13180,36233.4,13174.2,36476.1,13163.4z M38831.1,13142.7c72-16.6,95.2-25.7,129.2-51.3c22.4-17.4,39.8-33.1,37.3-34.8
		c-1.7-1.7-41.4,3.3-88.6,11.6c-82.8,14.1-87.8,15.7-131.7,54.7c-24.8,21.5-42.2,39.7-39.7,39.7
		C38740.8,13162.6,38782.2,13153.5,38831.1,13142.7z M39153.2,12868.6l106-19.9l57.1-48c31.5-26.5,54.7-48.9,51.3-49.7
		c-3.3-1.7-53,4.1-110.1,12.4l-104.3,14.1l-60.4,56.3c-33.1,30.6-56.3,55.5-52.2,55.5S39095.2,12880.2,39153.2,12868.6z
		 M39676.5,12765.1c82-17.4,104.3-28.2,168.9-82l29-23.2l-101.9,19c-56.3,11.6-106.8,23.2-112.6,26.5c-25.7,14.9-97.7,86.1-82.8,82
		C39586.3,12785,39631,12775,39676.5,12765.1z M39533.3,12565.5l63.8-9.9l76.2-70.4c53-48.9,70.4-68.7,56.3-65.4
		c-10.8,2.5-70.4,9.1-131.7,14.9l-111.8,9.9l-77.8,76.2l-78.7,77l70.4-11.6C39438,12580.4,39498.5,12570.5,39533.3,12565.5z
		 M40012.7,12476.9l120.9-23.2l57.1-48.9l57.1-48l-37.3,5c-20.7,2.5-75.4,9.9-122.6,14.9l-84.5,10.8l-60.4,55.5
		c-32.3,31.5-58,56.3-55.5,56.3C39890.1,12500.1,39946.5,12489.4,40012.7,12476.9z M38057.7,12392.5
		c358.5-16.6,737.8-40.6,1097.2-70.4l248.4-20.7l80.3-84.5c44.7-46.4,80.3-84.5,78.7-85.3c-0.8-0.8-74.5,3.3-163.1,9.1
		c-378.4,24.8-517.5,29-973,34c-782.5,7.5-1425.9-25.7-2211.8-113.4c-1372.9-154-2629.1-506.8-3919.2-1098.8
		c-251.7-115.1-678.2-333.7-887.7-452.9l-196.3-112.6l-118.4,9.1c-154,11.6-556.5,4.1-703-12.4c-136.6-16.6-316.3-47.2-424-73.7
		c-44.7-10.8-81.2-19-81.2-18.2c0,5,313,207,439.7,283.2c659.1,400,1315,722.1,1953.4,961.4c709.6,265.8,1699.2,534.9,2397.2,650.9
		c642.6,106.8,1401.1,176.4,2219.2,203.7C37148.4,12409,37805.1,12404.9,38057.7,12392.5z M40541.8,12371.8
		c58-11.6,77.8-19.9,114.3-47.2c24-19,42.2-34.8,41.4-36.4c-1.7-0.8-40.6,4.1-86.1,11.6c-80.3,13.2-84.5,15.7-128.3,54.7
		c-24.8,22.4-37.3,38.1-28.2,35.6C40464,12387.5,40502.9,12379.2,40541.8,12371.8z M39809.8,12255l125.9-14.1l77-77.8
		c76.2-77,77-78.7,48.9-74.5c-15.7,2.5-84.5,9.1-153.2,14.9l-124.2,10.8l-73.7,82c-67.1,74.5-72,82-49.7,77.8
		C39674,12271.6,39741.1,12263.3,39809.8,12255z M40342.3,12185.5l119.2-16.6l69.6-62.9c38.1-34.8,67.9-65.4,65.4-67.1
		c-1.7-2.5-62.9,2.5-135.8,10.8l-133.3,14.1l-72.9,73.7c-56.3,57.1-67.9,72.9-52.2,69.6
		C40213.9,12204.5,40276.9,12194.6,40342.3,12185.5z M40888.8,12093.5c73.7-14.9,79.5-18.2,138.3-67.1c33.1-28.2,59.6-52.2,58-53.8
		s-52.2,5-112.6,13.2l-111,16.6l-58,58.8l-58.8,58.8l33.1-5.8C40796,12111.8,40845.7,12101.8,40888.8,12093.5z M41505.7,11932.1
		c27.3-19.9,46.4-36.4,41.4-36.4c-4.1,0-45.5,7.5-92.7,15.7c-81.2,14.9-86.1,16.6-128.4,55.5c-23.2,21.5-43.9,40.6-45.5,41.4
		s37.3-7.5,86.9-19C41443.6,11971,41464.3,11962.7,41505.7,11932.1z M21931.2,9585.3c300.6-14.9,463.7-39.7,644.2-96.9
		c505.1-159.8,907.6-455.4,1169.2-859.5c258.4-400,359.4-891.8,297.3-1447.4c-10.8-102.7-37.3-248.4-53-299.8
		c-5-13.2-17.4-54.7-28.2-91.9c-79.5-262.5-216.1-523.3-372.6-711.3c-294-352.8-622.7-559.8-1077.3-679
		c-318.8-84.5-599.5-103.5-1517-103.5h-557.3v2148.8v2148.8h660.8C21460.8,9593.6,21835.9,9589.5,21931.2,9585.3z"/>
	<path class="st0" d="M0,7440.7v-2899l1107.9,3.3c1216.4,3.3,1204.8,2.5,1467.3,55.5c236.8,47.2,433.9,120.9,621.9,231
		c314.7,183.8,539.9,428.1,664.1,721.2c110.1,259.2,139.1,586.3,79.5,881.1c-86.1,425.6-383.4,791.6-814.8,1003.6
		c-135,66.2-240.1,104.3-395.8,144.1l-121.7,30.6l102.7,50.5c161.5,79.5,290.6,170.6,407.4,286.5
		c181.3,179.7,276.6,358.6,328.7,613.6c15.7,78.7,18.2,116.8,18.2,277.4c-0.8,157.3-3.3,201.2-19,284
		c-72.9,385.9-269.9,688.1-588.8,901.8c-244.3,163.1-481.9,242.6-882.7,293.1c-92.7,12.4-235.2,14.9-1040.9,17.4l-934,3.3L0,7440.7
		L0,7440.7z M1879.7,9569.6c125.9-23.2,239.3-58,324.6-100.2c87.8-43.9,134.1-77,197.9-140.8c132.5-134.1,198.7-318,199.6-554.8
		c0.8-262.5-74.5-455.4-245.1-625.2c-107.6-107.6-236.8-177.2-412.4-222.7c-197.1-50.5-347-62.9-777.5-62.9H836.3v866.2v865.3
		l470.3-2.5C1751.3,9588.7,1782,9587.8,1879.7,9569.6z M1908.7,7109.4c400.8-24,626.8-82.8,824.7-215.3
		c78.7-53,202.9-183,250.9-263.3c203.7-342,145.7-759.3-147.4-1050c-41.4-40.6-96.1-87.8-121.7-104.3
		c-241-157.3-472.8-188-1416.8-188.8H836.3v915v915h466.2C1558.4,7117.7,1831.7,7113.6,1908.7,7109.4z"/>
	<path class="st0" d="M7179.3,7440.7V4542.5h418.2h418.2v1258.7v1258.7h197.1c409.9,0,546.5-36.4,759.3-202.9
		c198.7-154.8,381.7-350.3,602-643.4c82-108.5,92.7-125.9,419-660.8c106.8-175.5,233.5-374.3,281.5-443
		c48.9-67.9,154.8-223.6,235.2-345.3l146.6-221.9h497.7c273.3,0,496.8,2.5,496.8,5s-79.5,111.8-175.5,241.8
		c-200.4,270.8-354.4,497.7-532.4,784.2c-447.2,721.2-664.9,1042.5-862.8,1271.1C9970.1,6972.2,9797,7137,9681.1,7224l-101,77
		l26.5,9.1c121.7,42.2,340.3,174.7,460.4,279.1c391.7,339.5,559.8,896.8,448.8,1487.2c-124.2,660-663.3,1121.2-1440,1233
		c-184.7,26.5-293.1,29.8-1090.6,29.8h-805.7V7440.7H7179.3z M8731.9,9610.2c244.3-24,419.8-69.6,547.3-141.6
		c89.4-49.7,224.4-184.7,277.4-276.6c81.2-139.9,115.1-257.5,120.9-423.1c13.2-333.7-121.7-617.7-372.6-785
		c-194.6-130-392.5-164.8-989.5-175.5l-299.8-5.8V8716v913.4l313-5C8500,9621.8,8682.2,9615.2,8731.9,9610.2z"/>
	<path class="st0" d="M14664.9,7440.7V4542.5h418.2h418.2v2898.2v2898.2h-418.2h-418.2V7440.7z"/>
	<path class="st0" d="M36550.6,7444.8V4550.7h1685.1h1685.1v372.6V5296h-1266.9H37387v894.3v894.3h1184h1184.1v376.8v376.8H38571
		h-1184.1v877.7v877.7h1225.5H39838v372.6v372.6h-1643.7h-1643.7V7444.8z"/>
	<path class="st0" d="M53053.8,7374.4V4476.2h418.2h418.2V5826v1349.7h1130.3h1130.3v372.6v372.6h-1130.3h-1130.3v803.2v803.2
		h1130.3h1130.3V9900v372.6h-1548.5h-1548.5V7374.4z"/>
	<path class="st0" d="M59413.3,7374.4V4476.2h418.2h418.2v2898.2v2898.2h-418.2h-418.2V7374.4z"/>
	<path class="st0" d="M63901.4,7374.4V4476.2h1016.9c589.6,0,1074.8,3.3,1156.8,8.3c349.4,21.5,640.1,90.3,887.7,210.3
		c499.3,243.4,794.1,609.5,885.2,1098.8c18.2,96.1,24,331.2,12.4,438c-38.9,344.5-190.5,637.6-457.1,883.5
		c-207.8,192.1-505.9,341.2-817.3,410.7l-85.3,19l60.4,28.2c446.3,203.7,711.3,520.8,786.7,944c21.5,124.2,23.2,358.5,3.3,492.7
		c-49.7,324.6-180.5,582.1-407.4,799.1c-249.2,237.7-580.5,380.9-1001.1,434.7c-202,24.8-351.1,29-1189.9,29h-851.2V7374.4H63901.4z
		 M65749.6,9508.3c243.5-41.4,405.8-111,529.1-227.7c100.2-93.6,155.7-191.3,195.4-337.8c19.9-75.4,21.5-95.2,21.5-239.3
		c0-143.3-1.7-164.8-20.7-236.8c-51.3-191.3-164.8-358.6-317.1-467.9c-120.9-86.9-303.1-149.1-534.1-182.2
		c-74.5-10.8-182.2-14.9-490.2-17.4l-395.8-4.1v867v866.2l466.2-3.3C65584.9,9522.4,65684.2,9519.1,65749.6,9508.3z M65801.8,7043.2
		c329.6-19.9,544-62.9,703.9-142.4c390.8-194.6,578-599.5,462.9-998.6c-53-182.2-169.8-352.8-318.8-465.4
		c-237.6-178.9-481.9-215.3-1458.2-215.3h-453.8v915v915h462.1C65453.2,7051.5,65724.8,7047.3,65801.8,7043.2z"/>
	<path class="st0" d="M71080.7,7375.3v-2899h418.2h418.2V5735v1258.7h194.6c375.1,0,525.8-34.8,703.9-162.3
		c204.5-145.7,423.1-374.3,655.8-682.3c52.2-70.4,185.5-279.1,356.9-558.9c149.9-245.9,318.8-512.6,375.1-592.9
		c56.3-79.5,159-229.4,226.9-332.9l124.2-188h499.3c397.5,0,498.5,2.5,493.5,10.8c-4.1,5-81.1,110.1-172.2,233.5
		c-201.2,269.9-391.7,554-617.7,919.1c-571.4,925.8-828.1,1254.5-1186.6,1524.5c-46.4,34.8-82.8,66.2-80.3,68.7s45.5,23.2,95.2,46.4
		c168.1,77.8,300.6,168.1,425.6,289c241.8,235.2,378.4,518.4,423.1,874.4c12.4,103.5,9.9,347.8-4.1,461.2
		c-46.4,356.1-183.8,635.1-431.4,871.9c-233.5,223.6-544,377.6-901.8,445.5c-241,47.2-215.3,45.5-1148.5,48.9l-867.8,3.3V7375.3
		H71080.7z M72507.4,9552.2c287.3-18.2,474.5-55.5,614.4-123.4c223.6-109.3,363.5-286.5,432.3-546.5c29-107.6,30.6-303.1,5-423.1
		c-66.2-307.2-272.4-546.5-549-635.9c-169.8-55.5-481.9-83.6-933.2-84.5H71917v910.9v910.9h223.6
		C72264,9560.5,72428.8,9556.4,72507.4,9552.2z"/>
	<path class="st0" d="M78549.8,7378.6V4484.5h1685.1H81920v372.6v372.6h-1266.9h-1266.9V6124v894.3h1188.3h1188.3v376.8v376.8
		h-1188.3h-1188.3v877.7v877.7h1229.7h1229.7V9900v372.6h-1647.8H78550v-2894L78549.8,7378.6L78549.8,7378.6z"/>
</g>
</svg>
