<?xml version="1.0" encoding="UTF-8" standalone="no"?>
<!DOCTYPE svg PUBLIC "-//W3C//DTD SVG 1.1//EN" "http://www.w3.org/Graphics/SVG/1.1/DTD/svg11.dtd">
<svg width="100%" height="100%" viewBox="0 0 5975 900" version="1.1" xmlns="http://www.w3.org/2000/svg" xmlns:xlink="http://www.w3.org/1999/xlink" xml:space="preserve" xmlns:serif="http://www.serif.com/" style="fill-rule:evenodd;clip-rule:evenodd;stroke-linejoin:round;stroke-miterlimit:1.41421;">
    <g transform="matrix(4.16667,0,0,4.16667,0,0)">
        <path d="M324.004,77.87L314.74,89.582C306.123,81.49 294.704,76.592 280.916,76.592C257.433,76.592 240.63,93.415 240.63,117.904C240.63,142.394 257.433,159.43 280.916,159.43C295.782,159.43 308.062,154.318 316.033,144.949L325.728,155.171C315.603,167.309 299.875,174.549 280.271,174.549C247.308,174.549 224.041,151.337 224.041,117.904C224.041,84.471 247.523,61.259 280.271,61.259C298.582,61.046 313.663,67.222 324.004,77.87Z" style="fill:rgb(0,174,239);fill-rule:nonzero;"/>
        <path d="M347.702,117.904C347.702,142.607 364.722,159.643 388.42,159.643C412.118,159.643 429.138,142.607 429.138,117.904C429.138,93.415 412.118,76.379 388.42,76.379C364.722,76.379 347.702,93.415 347.702,117.904ZM445.942,117.691C445.942,151.337 422.028,174.549 388.42,174.549C354.812,174.549 330.898,151.337 330.898,117.691C330.898,84.258 354.812,61.259 388.42,61.259C422.028,61.259 445.942,84.258 445.942,117.691Z" style="fill:rgb(0,174,239);fill-rule:nonzero;"/>
        <path d="M472.225,117.904C472.225,142.607 489.244,159.643 512.942,159.643C536.641,159.643 553.66,142.607 553.66,117.904C553.66,93.415 536.641,76.379 512.942,76.379C489.244,76.379 472.225,93.415 472.225,117.904ZM570.465,117.691C570.465,151.337 546.551,174.549 512.942,174.549C479.334,174.549 455.421,151.337 455.421,117.691C455.421,84.258 479.334,61.259 512.942,61.259C546.551,61.259 570.465,84.258 570.465,117.691Z" style="fill:rgb(0,174,239);fill-rule:nonzero;"/>
        <path d="M690.464,117.691C690.464,93.628 673.66,75.953 649.962,75.953C626.048,75.953 609.243,93.415 609.243,117.691C609.243,142.18 626.048,159.43 649.962,159.43C673.66,159.43 690.464,141.967 690.464,117.691ZM707.483,118.117C707.483,151.337 685.509,174.549 653.408,174.549C633.157,174.549 617.646,165.392 609.243,149.847L609.243,215.223L592.439,215.223L592.439,61.685L609.243,61.685L609.243,85.961C617.646,70.203 633.157,61.046 652.978,61.046C685.078,61.046 707.483,84.471 707.483,118.117Z" style="fill:rgb(0,174,239);fill-rule:nonzero;"/>
        <path d="M811.108,110.664C810.031,89.156 795.381,75.527 773.191,75.527C751.647,75.527 736.136,89.369 733.551,110.664L811.108,110.664ZM826.189,124.293L733.551,124.293C736.566,146.227 752.725,160.068 774.699,160.068C788.703,160.068 800.982,155.171 809.815,146.014L819.079,155.809C808.308,167.734 792.365,174.549 773.406,174.549C740.014,174.549 716.962,151.337 716.962,117.904C716.962,84.471 740.229,61.259 773.191,61.259C809.815,61.046 827.912,86.174 826.189,124.293Z" style="fill:rgb(0,174,239);fill-rule:nonzero;"/>
        <path d="M863.244,86.601C870.785,70.203 884.788,61.259 903.963,61.046L903.963,77.87C880.049,77.443 865.184,92.137 863.244,114.284L863.244,173.91L846.44,173.91L846.44,61.685L863.244,61.685L863.244,86.601Z" style="fill:rgb(0,174,239);fill-rule:nonzero;"/>
        <path d="M1017.07,117.691C1017.07,93.628 1000.26,75.953 976.564,75.953C952.65,75.953 935.846,93.415 935.846,117.691C935.846,142.18 952.65,159.43 976.564,159.43C1000.26,159.43 1017.07,141.967 1017.07,117.691ZM1034.09,118.117C1034.09,151.337 1012.11,174.549 980.011,174.549C959.76,174.549 944.248,165.392 935.846,149.847L935.846,215.223L919.042,215.223L919.042,61.685L935.846,61.685L935.846,85.961C944.248,70.203 959.76,61.046 979.58,61.046C1011.68,61.046 1034.09,84.471 1034.09,118.117Z" style="fill:rgb(0,174,239);fill-rule:nonzero;"/>
        <path d="M1071.79,86.601C1079.33,70.203 1093.33,61.259 1112.5,61.046L1112.5,77.87C1088.59,77.443 1073.73,92.137 1071.79,114.284L1071.79,173.91L1054.98,173.91L1054.98,61.685L1071.79,61.685L1071.79,86.601Z" style="fill:rgb(0,174,239);fill-rule:nonzero;"/>
        <path d="M1209.24,110.664C1208.16,89.156 1193.51,75.527 1171.32,75.527C1149.77,75.527 1134.26,89.369 1131.68,110.664L1209.24,110.664ZM1224.32,124.293L1131.68,124.293C1134.69,146.227 1150.85,160.068 1172.83,160.068C1186.83,160.068 1199.11,155.171 1207.94,146.014L1217.21,155.809C1206.43,167.734 1190.49,174.549 1171.53,174.549C1138.14,174.549 1115.09,151.337 1115.09,117.904C1115.09,84.471 1138.36,61.259 1171.32,61.259C1207.94,61.046 1226.04,86.174 1224.32,124.293Z" style="fill:rgb(0,174,239);fill-rule:nonzero;"/>
        <path d="M1310.92,71.268L1304.46,84.471C1295.63,78.934 1284.21,75.314 1273.65,75.314C1260.94,75.314 1251.25,79.786 1251.25,90.221C1251.25,115.136 1314.58,102.358 1314.58,142.607C1314.58,164.754 1294.76,174.549 1273,174.549C1256.85,174.549 1240.26,169.012 1229.49,158.791L1235.95,146.227C1245.64,155.171 1260.29,160.494 1273.65,160.494C1287.01,160.494 1297.78,155.596 1298,144.523C1298.64,117.478 1235.09,131.32 1235.3,91.499C1235.3,69.99 1254.05,61.046 1274.73,61.046C1288.3,61.046 1301.44,64.879 1310.92,71.268Z" style="fill:rgb(0,174,239);fill-rule:nonzero;"/>
        <path d="M1399.9,71.268L1393.43,84.471C1384.6,78.934 1373.18,75.314 1362.62,75.314C1349.91,75.314 1340.22,79.786 1340.22,90.221C1340.22,115.136 1403.56,102.358 1403.56,142.607C1403.56,164.754 1383.74,174.549 1361.98,174.549C1345.82,174.549 1329.23,169.012 1318.46,158.791L1324.92,146.227C1334.62,155.171 1349.27,160.494 1362.62,160.494C1375.98,160.494 1386.75,155.596 1386.97,144.523C1387.62,117.478 1324.06,131.32 1324.28,91.499C1324.28,69.99 1343.02,61.046 1363.7,61.046C1377.27,61.046 1390.42,64.879 1399.9,71.268Z" style="fill:rgb(0,174,239);fill-rule:nonzero;"/>
        <path d="M1413.03,101.294C1413.03,94.906 1417.56,90.221 1423.59,90.221C1429.41,90.221 1433.93,94.906 1433.93,101.294C1433.93,107.682 1429.41,112.367 1423.59,112.367C1417.56,112.367 1413.03,107.682 1413.03,101.294ZM1433.93,164.754C1433.93,168.161 1432.64,170.929 1430.7,173.91L1420.57,189.243L1411.1,189.243L1418.21,173.697C1414.97,171.781 1413.46,168.374 1413.46,164.54C1413.46,158.365 1417.77,153.893 1423.59,153.893C1429.19,153.893 1433.93,157.939 1433.93,164.754Z" style="fill:rgb(0,174,239);fill-rule:nonzero;"/>
        <path d="M179.544,50.511C179.095,52.923 178.175,55.029 176.785,56.828C175.415,58.626 173.698,59.894 171.675,60.588C169.672,61.304 167.894,61.651 166.381,61.651L155.67,61.651C151.868,61.651 149.068,62.51 147.29,64.268C146.228,65.351 145.246,67.272 144.347,70.052L139.503,70.052C138.869,67.763 138.051,66.025 137.029,64.84C135.23,62.714 132.614,61.651 129.2,61.651L116.712,61.651C112.665,61.651 109.537,60.22 107.31,57.399C105.082,54.559 103.917,51.145 103.814,47.159L103.732,44.277L110.13,44.277C110.702,46.301 111.397,47.711 112.194,48.529C113.523,49.898 115.649,50.614 118.531,50.654L128.629,50.654C132.41,50.654 135.189,51.411 137.009,52.882C138.849,54.375 140.422,56.746 141.792,59.975C143.488,56.439 145.409,54.007 147.576,52.658C149.743,51.329 152.584,50.654 156.059,50.654L165.298,50.654C168.262,50.654 170.265,50.185 171.327,49.224C172.391,48.263 173.167,46.628 173.637,44.277L180.035,44.277C179.994,46.976 179.851,49.06 179.544,50.511ZM205.135,54.804C202.15,28.62 180.791,1.088 146.125,0.883L145.409,0.883C126.871,0.883 100.707,5.462 84.396,42.724C84.252,43.071 84.13,43.44 83.987,43.787C81.882,50.573 80.819,57.195 79.797,63.593C78.632,70.89 77.548,77.799 74.953,84.258C71.253,93.538 31.191,160.233 8.114,198.966C6.213,201.909 0,211.7 0,211.7C0,211.7 10.915,213.662 14.471,214.03C54.717,218.282 85.254,218.629 115.138,183.493C115.629,182.921 131.98,164.627 128.854,137.81C127.627,121.499 120.861,114.897 119.982,113.425C115.977,109.03 117.447,107.355 118.776,105.576C122.23,102.347 125.031,104.472 125.746,105.004C133.779,110.972 137.274,125.444 138.46,132.72C142.14,154.939 134.516,171.454 130.591,178.955C125.379,188.235 121.903,191.608 118.367,195.389L126.748,204.526C131.347,209.472 135.762,214.337 137.132,215.706L167.669,215.706C158.409,206.447 156.141,204.178 148.945,196.983C149.743,195.777 199.085,134.826 204.42,101.918C207.363,86.874 206.893,70.093 205.135,54.804Z" style="fill:rgb(0,174,239);fill-rule:nonzero;"/>
    </g>
</svg>
