<?xml version="1.0" encoding="UTF-8" standalone="no"?>
<!DOCTYPE svg PUBLIC "-//W3C//DTD SVG 1.1//EN" "http://www.w3.org/Graphics/SVG/1.1/DTD/svg11.dtd">
<svg width="100%" height="100%" viewBox="0 0 2134 434" version="1.1" xmlns="http://www.w3.org/2000/svg" xmlns:xlink="http://www.w3.org/1999/xlink" xml:space="preserve" xmlns:serif="http://www.serif.com/" style="fill-rule:evenodd;clip-rule:evenodd;stroke-linejoin:round;stroke-miterlimit:1.41421;">
    <g transform="matrix(4.16667,0,0,4.16667,0,0)">
        <rect x="114.992" y="24.366" width="13.879" height="55.964" style="fill:rgb(243,111,41);fill-rule:nonzero;"/>
        <path d="M171.279,24.27L161.877,40.052L151.691,24.27L135.126,24.27L153.147,52.252L135.126,80.233L151.691,80.233L161.093,64.452L171.279,80.233L187.844,80.233L169.712,52.252L187.844,24.27L171.279,24.27Z" style="fill:rgb(243,111,41);fill-rule:nonzero;"/>
        <path d="M294.49,30.65C292.624,28.337 290.292,26.547 287.494,25.277C284.696,24.009 281.468,23.374 277.812,23.374C275.499,23.374 273.335,23.618 271.321,24.101C269.306,24.588 267.496,25.241 265.892,26.061C264.287,26.883 262.907,27.795 261.751,28.803C260.592,29.81 259.754,30.837 259.233,31.881C257.367,29.121 254.904,27.012 251.845,25.557C248.785,24.101 245.539,23.374 242.108,23.374C236.884,23.374 232.108,25.129 227.781,28.635L226.998,24.27L215.581,24.27L215.581,80.233L229.46,80.233L229.46,39.38C232.071,36.322 235.504,34.791 239.757,34.791C241.772,34.791 243.487,35.034 244.906,35.519C246.322,36.005 247.48,36.844 248.376,38.037C249.271,39.232 249.924,40.817 250.334,42.794C250.744,44.772 250.95,47.215 250.95,50.125L250.95,80.233L264.717,80.233L264.717,45.647C264.717,42.29 265.518,39.643 267.123,37.701C268.727,35.761 271.618,34.791 275.798,34.791C279.603,34.791 282.29,36.005 283.857,38.429C285.424,40.855 286.207,44.753 286.207,50.125L286.207,80.233L300.086,80.233L300.086,50.125C300.086,46.096 299.619,42.421 298.687,39.1C297.753,35.78 296.354,32.963 294.49,30.65Z" style="fill:rgb(243,111,41);fill-rule:nonzero;"/>
        <path d="M399.515,65.235C397.397,68.369 394.185,69.936 389.875,69.936C385.416,69.936 381.96,68.352 379.508,65.179C377.057,62.009 375.83,57.736 375.83,52.363C375.83,46.991 377.057,42.72 379.508,39.548C381.96,36.377 385.416,34.791 389.875,34.791C394.185,34.791 397.397,36.358 399.515,39.492C401.633,42.625 402.693,46.918 402.693,52.363C402.693,57.811 401.633,62.101 399.515,65.235ZM402.021,0.43L402.021,27.068C398.289,24.605 393.924,23.374 388.926,23.374C384.673,23.374 380.848,24.122 377.453,25.613C374.057,27.106 371.185,29.158 368.835,31.769C366.484,34.381 364.674,37.46 363.407,41.003C362.137,44.548 361.504,48.334 361.504,52.363C361.504,56.393 362.119,60.162 363.351,63.668C364.582,67.176 366.353,70.255 368.667,72.902C370.979,75.551 373.833,77.622 377.229,79.114C380.624,80.606 384.522,81.353 388.926,81.353C393.851,81.353 398.401,79.936 402.581,77.1L402.805,80.233L415.9,80.233L415.9,14.309C415.9,6.644 409.686,0.43 402.021,0.43Z" style="fill:rgb(243,111,41);fill-rule:nonzero;"/>
        <rect x="423.263" y="23.374" width="13.879" height="56.859" style="fill:rgb(243,111,41);fill-rule:nonzero;"/>
        <path d="M91.104,64.883C88.653,68.054 85.197,69.64 80.737,69.64C76.428,69.64 73.216,68.073 71.098,64.939C68.98,61.805 67.92,57.513 67.92,52.067C67.92,46.62 68.98,42.329 71.098,39.195C73.216,36.062 76.428,34.495 80.737,34.495C85.197,34.495 88.653,36.079 91.104,39.252C93.556,42.422 94.783,46.695 94.783,52.067C94.783,57.44 93.556,61.711 91.104,64.883ZM101.946,31.529C99.634,28.879 96.78,26.808 93.383,25.316C89.989,23.825 86.09,23.078 81.687,23.078C76.762,23.078 72.211,24.494 68.032,27.332L66.8,24.197L54.712,24.197L54.712,104L54.713,104C62.378,104 68.591,97.787 68.591,90.122L68.591,77.363C72.324,79.826 76.689,81.056 81.687,81.056C85.94,81.056 89.765,80.31 93.159,78.818C96.556,77.324 99.427,75.273 101.779,72.662C104.129,70.049 105.939,66.971 107.207,63.428C108.477,59.883 109.11,56.097 109.11,52.067C109.11,48.038 108.494,44.27 107.263,40.763C106.032,37.254 104.26,34.176 101.946,31.529Z" style="fill:rgb(243,111,41);fill-rule:nonzero;"/>
        <path d="M121.931,4.467C118.099,4.467 114.992,7.574 114.992,11.406C114.992,15.239 118.099,18.346 121.931,18.346C125.764,18.346 128.871,15.239 128.871,11.406C128.871,7.574 125.764,4.467 121.931,4.467Z" style="fill:rgb(243,111,41);fill-rule:nonzero;"/>
        <path d="M430.202,4.37C426.37,4.37 423.263,7.477 423.263,11.309L423.263,11.31C423.263,15.142 426.37,18.249 430.202,18.249C434.035,18.249 437.142,15.142 437.142,11.31L437.142,11.309C437.142,7.477 434.035,4.37 430.202,4.37Z" style="fill:rgb(243,111,41);fill-rule:nonzero;"/>
        <path d="M481.135,66.008C479.05,68.992 475.888,70.483 471.645,70.483C467.254,70.483 463.852,68.975 461.438,65.955C459.024,62.936 457.817,58.868 457.817,53.753C457.817,48.638 459.024,44.572 461.438,41.551C463.852,38.532 467.254,37.022 471.645,37.022C475.888,37.022 479.05,38.514 481.135,41.498C483.221,44.481 484.264,48.568 484.264,53.753C484.264,58.94 483.221,63.024 481.135,66.008ZM483.603,29.67C479.928,27.324 475.631,26.152 470.71,26.152C466.522,26.152 462.757,26.864 459.415,28.284C456.071,29.706 453.243,31.66 450.929,34.145C448.615,36.633 446.833,39.563 445.585,42.936C444.335,46.311 443.711,49.917 443.711,53.753C443.711,57.589 444.317,61.177 445.53,64.516C446.742,67.856 448.486,70.787 450.764,73.307C453.04,75.83 455.85,77.802 459.194,79.222C462.536,80.642 466.374,81.353 470.71,81.353C475.558,81.353 480.039,80.005 484.154,77.304L484.374,80.287L497.268,80.287L497.268,27.006L483.603,27.006L483.603,29.67Z" style="fill:rgb(243,111,41);fill-rule:nonzero;"/>
        <path d="M13.026,51.148C10.731,44.296 13.287,37.832 20.056,35.369C26.729,32.94 33.564,35.746 36.267,42.688L13.026,51.148ZM2.111,60.832C2.696,62.44 3.387,63.927 4.132,65.344C8.285,73.245 14.809,78.128 22.631,79.496C25.048,79.918 27.58,80.02 30.209,79.755C32.739,79.573 35.322,79.011 37.96,78.051C38.082,78.006 38.19,77.95 38.311,77.905C42.031,76.51 45.201,74.664 47.864,72.404L47.864,58.854L45.487,57.79C42.333,63.794 38.491,65.142 36.113,66.007C35.378,66.274 34.655,66.48 33.939,66.66C26.699,68.473 20.488,65.95 17.402,62.041C17.097,61.655 16.813,61.258 16.571,60.847C16.565,60.838 16.558,60.829 16.552,60.819L47.864,49.445L47.864,37.521C47.39,36.746 46.915,36.011 46.443,35.332C42.295,29.365 35.899,25.154 28.587,23.877C27.97,23.769 27.383,23.695 26.853,23.666C23.62,23.492 20.257,24.001 16.784,25.093C13.422,26.488 10.519,28.26 8.154,30.471C5.439,33.011 3.406,35.883 2.053,39.088C0.702,42.295 0.016,45.741 0,49.429C-0.009,51.398 0.197,53.367 0.58,55.338C0.58,55.338 1.338,58.904 2.111,60.832Z" style="fill:rgb(243,111,41);fill-rule:nonzero;"/>
        <path d="M506.481,78.795C504.284,78.795 502.497,77.007 502.497,74.811C502.497,72.614 504.284,70.827 506.481,70.827C508.678,70.827 510.465,72.614 510.465,74.811C510.465,77.007 508.678,78.795 506.481,78.795ZM506.481,69.723C503.671,69.723 501.394,72.002 501.394,74.811C501.394,77.621 503.671,79.899 506.481,79.899C509.291,79.899 511.569,77.621 511.569,74.811C511.569,72.002 509.291,69.723 506.481,69.723Z" style="fill:rgb(243,111,41);fill-rule:nonzero;"/>
        <path d="M506.813,74.329C506.733,74.405 506.577,74.443 506.345,74.443L506.024,74.443L506.024,73.546L506.372,73.546C506.604,73.546 506.755,73.582 506.827,73.653C506.898,73.725 506.934,73.836 506.934,73.988C506.934,74.14 506.894,74.253 506.813,74.329ZM507.951,74.704C508.076,74.494 508.138,74.264 508.138,74.015C508.138,73.033 507.607,72.542 506.546,72.542L504.846,72.542L504.846,77.026L506.024,77.026L506.024,75.527L506.425,75.527L507.255,77.026L508.499,77.026L507.509,75.179C507.679,75.072 507.826,74.914 507.951,74.704Z" style="fill:rgb(243,111,41);fill-rule:nonzero;"/>
        <path d="M318.526,46.671C318.717,39.325 323.407,34.037 330.734,34.037C337.957,34.037 343.513,39.095 343.682,46.671L318.526,46.671ZM304.727,52.13C304.727,53.871 304.87,55.532 305.088,57.146C306.31,66.141 310.846,73.077 317.846,77.106C320.008,78.349 322.393,79.327 324.998,79.989C327.479,80.695 330.143,81.056 332.999,81.056C333.13,81.056 333.253,81.04 333.384,81.04C337.919,80.996 342.016,80.211 345.655,78.661C347.428,77.905 351.195,76.389 355.077,71.909L347.24,64.311C342.137,68.952 337.997,68.903 335.422,68.903C334.627,68.903 333.865,68.849 333.118,68.771C325.568,67.986 320.51,63.414 318.92,58.604C318.763,58.129 318.629,57.652 318.541,57.175C318.539,57.164 318.535,57.152 318.533,57.141L357.637,57.166C357.637,51.48 356.937,46.858 355.966,43.181C354.077,36.035 349.429,29.785 342.885,26.021C342.333,25.703 341.797,25.428 341.301,25.216C338.272,23.925 334.881,23.242 331.182,23.078C327.483,23.242 324.092,23.925 321.063,25.216C317.585,26.699 314.643,28.736 312.236,31.328C309.828,33.924 307.974,36.979 306.676,40.497C305.982,42.376 305.495,44.33 305.174,46.347C305.174,46.347 304.727,49.479 304.727,52.13Z" style="fill:rgb(243,111,41);fill-rule:nonzero;"/>
    </g>
</svg>
