<?xml version="1.0" encoding="UTF-8" standalone="no"?>
<!DOCTYPE svg PUBLIC "-//W3C//DTD SVG 1.1//EN" "http://www.w3.org/Graphics/SVG/1.1/DTD/svg11.dtd">
<svg width="100%" height="100%" viewBox="0 0 3296 1250" version="1.1" xmlns="http://www.w3.org/2000/svg" xmlns:xlink="http://www.w3.org/1999/xlink" xml:space="preserve" xmlns:serif="http://www.serif.com/" style="fill-rule:evenodd;clip-rule:evenodd;stroke-linejoin:round;stroke-miterlimit:1.41421;">
    <g transform="matrix(4.16667,0,0,4.16667,0,0)">
        <path d="M124.004,261.94C76.533,261.94 38.06,223.465 38.06,175.992C38.06,128.522 76.533,90.048 124.004,90.048C171.468,90.048 209.943,128.522 209.943,175.992C209.943,223.465 171.468,261.94 124.004,261.94ZM124.004,51.991C55.519,51.991 0,107.506 0,175.992C0,244.481 55.519,299.999 124.004,299.999C192.484,299.999 248.001,244.481 248.001,175.992C248.001,107.506 192.484,51.991 124.004,51.991Z" style="fill:rgb(0,84,153);fill-rule:nonzero;"/>
        <path d="M60.24,32.263C56.655,45.64 42.91,53.576 29.539,49.992C16.164,46.408 8.227,32.665 11.812,19.286C15.393,5.921 29.14,-2.024 42.511,1.57C55.888,5.143 63.825,18.891 60.24,32.263Z" style="fill:rgb(0,84,153);fill-rule:nonzero;"/>
        <path d="M306.764,197.111C311.732,202.856 321.204,207.824 331.452,207.824C342.942,207.824 349.153,202.7 349.153,195.403C349.153,187.173 339.992,184.533 329.899,182.049C317.167,179.099 302.727,175.683 302.727,160.155C302.727,148.51 312.819,138.572 330.676,138.572C343.408,138.572 352.414,143.386 358.47,149.442L353.035,157.516C348.532,152.081 340.303,148.044 330.676,148.044C320.428,148.044 314.062,152.702 314.062,159.379C314.062,166.677 322.602,169.006 332.384,171.335C345.427,174.285 360.488,178.012 360.488,194.626C360.488,207.203 350.396,217.296 330.986,217.296C318.72,217.296 308.316,213.57 300.708,205.495L306.764,197.111Z" style="fill:rgb(76,76,78);fill-rule:nonzero;"/>
        <path d="M383.777,173.198L432.999,173.198C432.844,162.019 425.391,148.199 408.311,148.199C392.317,148.199 384.398,161.708 383.777,173.198ZM408.466,138.572C431.136,138.572 444.489,156.274 444.489,178.788L444.489,181.738L383.777,181.738C384.709,195.868 394.646,207.669 410.795,207.669C419.335,207.669 428.03,204.253 433.931,198.197L439.521,205.806C432.067,213.259 421.975,217.296 409.708,217.296C387.504,217.296 371.511,201.303 371.511,177.857C371.511,156.118 387.038,138.572 408.466,138.572Z" style="fill:rgb(76,76,78);fill-rule:nonzero;"/>
        <rect x="455.976" y="111.865" width="11.645" height="103.568" style="fill:rgb(76,76,78);fill-rule:nonzero;"/>
        <path d="M490.134,173.198L539.355,173.198C539.2,162.019 531.747,148.199 514.667,148.199C498.674,148.199 490.755,161.708 490.134,173.198ZM514.822,138.572C537.492,138.572 550.846,156.274 550.846,178.788L550.846,181.738L490.134,181.738C491.065,195.868 501.003,207.669 517.151,207.669C525.691,207.669 534.387,204.253 540.287,198.197L545.877,205.806C538.424,213.259 528.331,217.296 516.064,217.296C493.86,217.296 477.867,201.303 477.867,177.857C477.867,156.118 493.395,138.572 514.822,138.572Z" style="fill:rgb(76,76,78);fill-rule:nonzero;"/>
        <path d="M612.486,166.366C612.486,153.168 605.81,148.976 595.717,148.976C586.556,148.976 577.86,154.566 573.513,160.621L573.513,215.433L561.867,215.433L561.867,140.436L573.513,140.436L573.513,151.305C578.792,145.094 589.04,138.572 600.22,138.572C615.902,138.572 624.132,146.491 624.132,162.795L624.132,215.433L612.486,215.433L612.486,166.366Z" style="fill:rgb(76,76,78);fill-rule:nonzero;"/>
        <path d="M639.967,140.436L651.612,140.436L651.612,215.433L639.967,215.433L639.967,140.436ZM637.948,120.561C637.948,116.213 641.52,112.642 645.712,112.642C650.06,112.642 653.631,116.213 653.631,120.561C653.631,124.908 650.06,128.324 645.712,128.324C641.52,128.324 637.948,124.908 637.948,120.561Z" style="fill:rgb(76,76,78);fill-rule:nonzero;"/>
        <path d="M678.007,199.75L678.007,150.684L665.585,150.684L665.585,140.436L678.007,140.436L678.007,119.94L689.652,119.94L689.652,140.436L704.869,140.436L704.869,150.684L689.652,150.684L689.652,197.266C689.652,202.856 692.137,206.893 697.261,206.893C700.521,206.893 703.627,205.495 705.18,203.787L708.596,212.483C705.646,215.278 701.453,217.296 694.621,217.296C683.597,217.296 678.007,210.93 678.007,199.75Z" style="fill:rgb(76,76,78);fill-rule:nonzero;"/>
        <path d="M730.797,235.463C735.921,235.463 739.337,233.755 741.977,227.544L746.945,216.209L715.58,140.436L728.157,140.436L753.156,201.924L778,140.436L790.732,140.436L753.156,230.65C748.653,241.519 741.045,245.711 731.107,245.866C728.623,245.866 724.741,245.401 722.567,244.779L724.431,234.221C726.139,234.997 728.934,235.463 730.797,235.463Z" style="fill:rgb(76,76,78);fill-rule:nonzero;"/>
    </g>
</svg>
