<?xml version="1.0" encoding="UTF-8" standalone="no"?>
<!DOCTYPE svg PUBLIC "-//W3C//DTD SVG 1.1//EN" "http://www.w3.org/Graphics/SVG/1.1/DTD/svg11.dtd">
<svg width="100%" height="100%" viewBox="0 0 1500 571" version="1.1" xmlns="http://www.w3.org/2000/svg" xmlns:xlink="http://www.w3.org/1999/xlink" xml:space="preserve" xmlns:serif="http://www.serif.com/" style="fill-rule:evenodd;clip-rule:evenodd;stroke-linejoin:round;stroke-miterlimit:1.41421;">
    <g transform="matrix(4.16667,0,0,4.16667,0,0)">
        <path d="M56.405,119.687C34.812,119.687 17.312,102.187 17.312,80.594C17.312,59.001 34.812,41.5 56.405,41.5C77.994,41.5 95.495,59.001 95.495,80.594C95.495,102.187 77.994,119.687 56.405,119.687ZM56.405,24.19C25.253,24.19 0,49.441 0,80.594C0,111.746 25.253,137 56.405,137C87.554,137 112.807,111.746 112.807,80.594C112.807,49.441 87.554,24.19 56.405,24.19Z" style="fill:white;fill-rule:nonzero;"/>
        <path d="M27.401,15.216C25.77,21.301 19.518,24.911 13.436,23.28C7.352,21.65 3.741,15.399 5.372,9.313C7.001,3.233 13.254,-0.38 19.337,1.254C25.421,2.88 29.032,9.133 27.401,15.216Z" style="fill:white;fill-rule:nonzero;"/>
        <path d="M139.536,90.199C141.797,92.812 146.105,95.073 150.767,95.073C155.994,95.073 158.819,92.742 158.819,89.422C158.819,85.678 154.652,84.478 150.061,83.347C144.269,82.005 137.7,80.452 137.7,73.388C137.7,68.091 142.291,63.57 150.414,63.57C156.206,63.57 160.302,65.76 163.057,68.515L160.585,72.188C158.537,69.715 154.793,67.879 150.414,67.879C145.752,67.879 142.856,69.998 142.856,73.036C142.856,76.355 146.741,77.414 151.191,78.474C157.124,79.816 163.975,81.511 163.975,89.069C163.975,94.79 159.385,99.381 150.555,99.381C144.975,99.381 140.243,97.686 136.782,94.013L139.536,90.199Z" style="fill:white;fill-rule:nonzero;"/>
        <path d="M174.567,79.322L196.958,79.322C196.887,74.236 193.497,67.95 185.727,67.95C178.452,67.95 174.85,74.095 174.567,79.322ZM185.799,63.57C196.11,63.57 202.185,71.622 202.185,81.865L202.185,83.206L174.567,83.206C174.991,89.634 179.511,95.002 186.857,95.002C190.742,95.002 194.698,93.448 197.382,90.694L199.925,94.155C196.534,97.544 191.943,99.381 186.363,99.381C176.262,99.381 168.987,92.106 168.987,81.441C168.987,71.552 176.051,63.57 185.799,63.57Z" style="fill:white;fill-rule:nonzero;"/>
        <rect x="207.409" y="51.421" width="5.297" height="47.113" style="fill:white;fill-rule:nonzero;"/>
        <path d="M222.945,79.322L245.336,79.322C245.265,74.236 241.875,67.95 234.105,67.95C226.83,67.95 223.228,74.095 222.945,79.322ZM234.177,63.57C244.488,63.57 250.563,71.622 250.563,81.865L250.563,83.206L222.945,83.206C223.369,89.634 227.889,95.002 235.235,95.002C239.12,95.002 243.076,93.448 245.76,90.694L248.302,94.155C244.912,97.544 240.321,99.381 234.741,99.381C224.64,99.381 217.365,92.106 217.365,81.441C217.365,71.552 224.428,63.57 234.177,63.57Z" style="fill:white;fill-rule:nonzero;"/>
        <path d="M278.601,76.214C278.601,70.21 275.563,68.303 270.972,68.303C266.805,68.303 262.849,70.846 260.872,73.6L260.872,98.534L255.575,98.534L255.575,64.418L260.872,64.418L260.872,69.363C263.273,66.537 267.935,63.57 273.021,63.57C280.155,63.57 283.898,67.173 283.898,74.589L283.898,98.534L278.601,98.534L278.601,76.214Z" style="fill:white;fill-rule:nonzero;"/>
        <path d="M291.1,64.418L296.397,64.418L296.397,98.534L291.1,98.534L291.1,64.418ZM290.181,55.377C290.181,53.399 291.806,51.775 293.714,51.775C295.691,51.775 297.315,53.399 297.315,55.377C297.315,57.354 295.691,58.909 293.714,58.909C291.806,58.909 290.181,57.354 290.181,55.377Z" style="fill:white;fill-rule:nonzero;"/>
        <path d="M308.403,91.4L308.403,69.08L302.752,69.08L302.752,64.418L308.403,64.418L308.403,55.094L313.7,55.094L313.7,64.418L320.622,64.418L320.622,69.08L313.7,69.08L313.7,90.27C313.7,92.812 314.83,94.649 317.161,94.649C318.644,94.649 320.057,94.013 320.763,93.236L322.317,97.192C320.975,98.463 319.068,99.381 315.961,99.381C310.945,99.381 308.403,96.485 308.403,91.4Z" style="fill:white;fill-rule:nonzero;"/>
        <path d="M332.415,107.645C334.746,107.645 336.3,106.868 337.501,104.043L339.76,98.887L325.493,64.418L331.215,64.418L342.586,92.388L353.887,64.418L359.679,64.418L342.586,105.455C340.538,110.399 337.077,112.307 332.556,112.377C331.427,112.377 329.66,112.165 328.672,111.883L329.519,107.08C330.296,107.433 331.567,107.645 332.415,107.645Z" style="fill:white;fill-rule:nonzero;"/>
    </g>
</svg>
