<?xml version="1.0" encoding="UTF-8" standalone="no"?>
<!DOCTYPE svg PUBLIC "-//W3C//DTD SVG 1.1//EN" "http://www.w3.org/Graphics/SVG/1.1/DTD/svg11.dtd">
<svg width="100%" height="100%" viewBox="0 0 1850 1446" version="1.1" xmlns="http://www.w3.org/2000/svg" xmlns:xlink="http://www.w3.org/1999/xlink" xml:space="preserve" xmlns:serif="http://www.serif.com/" style="fill-rule:evenodd;clip-rule:evenodd;stroke-linejoin:round;stroke-miterlimit:1.41421;">
    <g transform="matrix(4.16667,0,0,4.16667,0,0)">
        <rect x="3.403" y="331.326" width="439.736" height="15.674" style="fill:rgb(12,91,170);fill-rule:nonzero;"/>
        <path d="M47.966,23.235C44.988,19.429 39.038,17.64 34.514,17.64C29.281,17.64 22.022,20.02 22.022,26.33C22.022,41.682 60.822,31.805 60.822,61.324C60.822,80.128 45.706,89.057 28.324,89.057C17.498,89.057 7.974,85.842 0,78.459L13.21,63.942C17.021,68.935 23.209,71.914 29.397,71.914C35.471,71.914 42.252,69.06 42.252,63.108C42.252,47.634 2.735,55.965 2.735,27.877C2.735,9.905 18.331,0.499 34.875,0.499C44.391,0.499 53.563,2.999 60.703,9.309L47.966,23.235Z" style="fill:rgb(12,91,170);fill-rule:nonzero;"/>
        <path d="M85.72,19.069L63.915,19.069L63.915,2.644L126.093,2.644L126.093,19.069L104.289,19.069L104.289,86.913L85.72,86.913L85.72,19.069Z" style="fill:rgb(12,91,170);fill-rule:nonzero;"/>
        <path d="M148.853,37.518L159.803,37.518C166.582,37.518 175.393,37.28 175.393,28.114C175.393,19.664 167.774,18.356 160.99,18.356L148.853,18.356L148.853,37.518ZM130.278,2.644L162.893,2.644C180.149,2.644 194.675,8.596 194.675,28.235C194.675,40.02 188.365,49.182 176.459,51.323L197.887,86.913L175.627,86.913L158.014,53.228L148.853,53.228L148.853,86.913L130.278,86.913L130.278,2.644Z" style="fill:rgb(12,91,170);fill-rule:nonzero;"/>
        <path d="M199.932,2.644L257.181,2.644L257.181,19.782L218.5,19.782L218.5,35.497L255.042,35.497L255.042,52.631L218.5,52.631L218.5,69.775L259.324,69.775L259.324,86.913L199.932,86.913L199.932,2.644Z" style="fill:rgb(12,91,170);fill-rule:nonzero;"/>
        <path d="M262.251,2.644L319.503,2.644L319.503,19.782L280.819,19.782L280.819,35.497L317.361,35.497L317.361,52.631L280.819,52.631L280.819,69.775L321.646,69.775L321.646,86.913L262.251,86.913L262.251,2.644Z" style="fill:rgb(12,91,170);fill-rule:nonzero;"/>
        <path d="M344.64,19.069L322.834,19.069L322.834,2.644L385.018,2.644L385.018,19.069L363.206,19.069L363.206,86.913L344.64,86.913L344.64,19.069Z" style="fill:rgb(12,91,170);fill-rule:nonzero;"/>
        <path d="M430.76,23.235C427.784,19.429 421.834,17.64 417.313,17.64C412.076,17.64 404.811,20.02 404.811,26.33C404.811,41.682 443.618,31.805 443.618,61.324C443.618,80.128 428.497,89.057 411.12,89.057C400.287,89.057 390.771,85.842 382.794,78.459L396.007,63.942C399.813,68.935 406.003,71.914 412.193,71.914C418.26,71.914 425.049,69.06 425.049,63.108C425.049,47.634 385.528,55.965 385.528,27.877C385.528,9.905 401.122,0.499 417.668,0.499C427.188,0.499 436.354,2.999 443.496,9.309L430.76,23.235Z" style="fill:rgb(12,91,170);fill-rule:nonzero;"/>
        <path d="M6.304,100.789L24.874,100.789L24.874,132.208L60.938,132.208L60.938,100.789L79.507,100.789L79.507,185.059L60.938,185.059L60.938,148.634L24.874,148.634L24.874,185.059L6.304,185.059L6.304,100.789Z" style="fill:rgb(12,91,170);fill-rule:nonzero;"/>
        <path d="M89.168,100.789L146.42,100.789L146.42,117.922L107.737,117.922L107.737,133.64L144.279,133.64L144.279,150.777L107.737,150.777L107.737,167.915L148.564,167.915L148.564,185.059L89.168,185.059L89.168,100.789Z" style="fill:rgb(12,91,170);fill-rule:nonzero;"/>
        <path d="M194.598,125.308L184.36,151.49L204.952,151.49L194.598,125.308ZM187.456,100.789L202.813,100.789L239.471,185.059L218.525,185.059L211.262,167.202L178.53,167.202L171.505,185.059L151.036,185.059L187.456,100.789Z" style="fill:rgb(12,91,170);fill-rule:nonzero;"/>
        <path d="M220.336,100.789L241.521,100.789L262.348,156.009L262.584,156.009L283.771,100.789L303.649,100.789L268.894,185.059L254.016,185.059L220.336,100.789Z" style="fill:rgb(12,91,170);fill-rule:nonzero;"/>
        <path d="M309.452,100.789L366.704,100.789L366.704,117.922L328.021,117.922L328.021,133.64L364.563,133.64L364.563,150.777L328.021,150.777L328.021,167.915L368.85,167.915L368.85,185.059L309.452,185.059L309.452,100.789Z" style="fill:rgb(12,91,170);fill-rule:nonzero;"/>
        <path d="M394.104,135.661L405.054,135.661C411.841,135.661 420.645,135.423 420.645,126.256C420.645,117.806 413.028,116.496 406.244,116.496L394.104,116.496L394.104,135.661ZM375.535,100.789L408.149,100.789C425.409,100.789 439.926,106.738 439.926,126.375C439.926,138.16 433.619,147.324 421.718,149.466L443.139,185.059L420.886,185.059L403.266,151.368L394.104,151.368L394.104,185.059L375.535,185.059L375.535,100.789Z" style="fill:rgb(12,91,170);fill-rule:nonzero;"/>
        <path d="M80.267,313.225C67.268,313.225 58.19,303.783 58.19,290.266C58.19,276.748 67.268,267.307 80.267,267.307C93.263,267.307 102.341,276.748 102.341,290.266C102.341,303.783 93.263,313.225 80.267,313.225ZM80.267,262.879C64.4,262.879 53.318,274.141 53.318,290.266C53.318,306.391 64.4,317.654 80.267,317.654C96.133,317.654 107.215,306.391 107.215,290.266C107.215,274.141 96.133,262.879 80.267,262.879Z" style="fill:rgb(177,141,193);fill-rule:nonzero;"/>
        <path d="M395.75,213.748C395.75,215.922 394.869,223.018 383.536,223.018L373.241,223.018L373.241,204.478L383.536,204.478C394.869,204.478 395.75,211.574 395.75,213.748ZM370.806,252.174C372.125,252.174 373.217,251.096 373.241,249.768L373.241,227.445L382.105,227.445L396.054,250.994L396.28,251.365L396.428,251.525L396.465,251.502C396.911,251.932 397.511,252.174 398.136,252.174C399.48,252.174 400.574,251.08 400.574,249.736C400.574,249.471 400.53,249.209 400.445,248.959L400.492,248.918L387.299,227.148C396.137,226.012 400.619,221.502 400.619,213.748C400.619,204.658 394.376,200.049 382.063,200.049L370.806,200.049C369.462,200.049 368.369,201.143 368.369,202.484L368.369,249.736C368.369,251.08 369.462,252.174 370.806,252.174Z" style="fill:rgb(177,141,193);fill-rule:nonzero;"/>
        <path d="M109.063,233.906L119.629,208.775L130.192,233.906L109.063,233.906ZM98.818,251.982C99.121,252.109 99.438,252.174 99.762,252.174C100.747,252.174 101.629,251.588 102.01,250.682L107.2,238.336L132.054,238.336L137.244,250.684L137.359,250.945L137.435,251.07L137.455,251.07C137.901,251.754 138.672,252.174 139.494,252.174C139.819,252.174 140.138,252.109 140.44,251.982C141.041,251.728 141.506,251.258 141.752,250.652C141.878,250.342 141.938,250.008 141.931,249.678L142.113,249.678L121.875,201.539C121.828,201.428 121.768,201.324 121.712,201.234L121.664,201.15C121.597,201.047 121.52,200.953 121.437,200.861L121.362,200.775C121.282,200.693 121.194,200.623 121.085,200.539L120.987,200.463C120.891,200.398 120.788,200.346 120.685,200.295L120.561,200.232C120.42,200.176 120.274,200.131 120.099,200.096L120.021,200.084C119.892,200.064 119.761,200.049 119.629,200.049C119.484,200.049 119.341,200.064 119.25,200.082L119.154,200.094C118.998,200.125 118.845,200.174 118.678,200.242C118.636,200.26 118.598,200.279 118.594,200.285C118.481,200.338 118.37,200.396 118.265,200.467C118.229,200.492 118.197,200.518 118.154,200.553C118.066,200.621 117.979,200.689 117.895,200.775C117.866,200.803 117.841,200.834 117.788,200.898C117.721,200.977 117.655,201.053 117.601,201.137C117.598,201.141 117.595,201.146 117.592,201.15L117.544,201.15L97.516,248.793C97.263,249.391 97.259,250.051 97.503,250.652C97.75,251.258 98.216,251.728 98.818,251.982Z" style="fill:rgb(177,141,193);fill-rule:nonzero;"/>
        <path d="M174.31,204.924L189.686,204.924L189.686,249.736C189.686,251.08 190.777,252.174 192.121,252.174C193.465,252.174 194.56,251.08 194.56,249.736L194.56,204.924L209.935,204.924C211.279,204.924 212.373,203.83 212.373,202.484C212.373,201.143 211.279,200.049 209.935,200.049L174.31,200.049C172.967,200.049 171.874,201.143 171.874,202.484C171.874,203.83 172.967,204.924 174.31,204.924Z" style="fill:rgb(177,141,193);fill-rule:nonzero;"/>
        <path d="M61.997,252.174L90.41,252.174C91.629,252.174 92.623,251.182 92.623,249.961C92.623,248.986 91.968,248.123 91.044,247.846L91.044,247.746L64.429,247.746L64.429,227.445L87.654,227.443C88.808,227.383 89.71,226.461 89.753,225.289L89.752,225.148C89.708,223.992 88.762,223.057 87.593,223.018L64.429,223.018L64.429,204.478L89.348,204.478C90.521,204.412 91.44,203.441 91.44,202.27C91.44,201.045 90.444,200.049 89.22,200.049L61.997,200.049C60.653,200.049 59.561,201.143 59.561,202.484L59.561,249.736C59.561,251.08 60.653,252.174 61.997,252.174Z" style="fill:rgb(177,141,193);fill-rule:nonzero;"/>
        <path d="M169.997,266.332L169.974,266.146L169.946,266.143C169.793,265.42 169.323,264.803 168.664,264.469C168.325,264.299 167.945,264.209 167.567,264.209C166.786,264.209 166.061,264.576 165.604,265.199L165.563,265.199L143.785,308.461L122.181,265.549C121.764,264.723 120.931,264.209 120.004,264.209C119.621,264.209 119.252,264.295 118.908,264.469C118.239,264.805 117.767,265.432 117.619,266.166L117.568,266.174L117.568,313.893C117.568,315.236 118.661,316.33 120.004,316.33C121.344,316.33 122.437,315.24 122.439,313.898L122.439,276.906L141.573,314.91C141.786,315.369 142.128,315.742 142.589,316.014L142.686,316.072C142.712,316.084 142.738,316.096 142.765,316.107L143.07,316.221C143.163,316.248 143.257,316.268 143.375,316.289C143.433,316.301 143.49,316.311 143.535,316.314C143.606,316.322 143.677,316.324 143.816,316.324C143.89,316.324 143.962,316.322 144.021,316.314C144.08,316.311 144.137,316.299 144.215,316.285C144.312,316.268 144.405,316.248 144.513,316.215C144.552,316.203 144.688,316.15 144.688,316.15C144.757,316.127 144.824,316.102 144.896,316.062L145.017,315.99C145.445,315.738 145.78,315.375 145.983,314.939L165.13,276.908L165.13,313.9C165.133,315.24 166.227,316.33 167.567,316.33C168.911,316.33 170.004,315.236 170.004,313.893L170.003,266.709L169.997,266.332Z" style="fill:rgb(177,141,193);fill-rule:nonzero;"/>
        <path d="M45.793,306.611L45.672,306.787L45.712,306.547C45.306,306.281 44.839,306.139 44.362,306.139C44.146,306.139 43.936,306.166 43.732,306.221L43.732,305.57L42.612,306.871C38.579,311.555 32.656,313.225 28.459,313.225C15.46,313.225 6.382,303.783 6.382,290.268C6.382,276.752 15.46,267.312 28.459,267.312C33.45,267.312 38.076,269.186 41.15,272.453L42.252,273.623L42.252,273.133C42.474,273.199 42.707,273.232 42.946,273.232C44.289,273.232 45.381,272.139 45.381,270.795C45.381,270.168 45.139,269.568 44.696,269.103C40.583,264.973 35.119,262.879 28.459,262.879C12.594,262.879 1.514,274.141 1.514,290.268C1.514,306.393 12.594,317.656 28.459,317.656C35.787,317.656 41.774,315.111 46.262,310.086C46.614,309.641 46.799,309.119 46.799,308.574C46.799,307.791 46.414,307.039 45.793,306.611Z" style="fill:rgb(177,141,193);fill-rule:nonzero;"/>
        <path d="M47.137,202.057L47.093,201.846L47.051,201.846C46.765,200.807 45.794,200.061 44.675,200.049C43.36,200.064 42.302,201.109 42.269,202.436L42.269,223.018L13.137,223.018L13.137,202.482C13.137,201.154 12.035,200.064 10.675,200.049C9.347,200.064 8.266,201.156 8.266,202.482L8.266,249.736C8.266,251.08 9.359,252.174 10.702,252.174C12.044,252.174 13.137,251.08 13.137,249.736L13.137,227.445L42.269,227.445L42.269,249.805C42.303,251.135 43.371,252.174 44.7,252.174C45.805,252.174 46.768,251.426 47.053,250.373L47.142,250.373L47.142,202.48L47.137,202.057Z" style="fill:rgb(177,141,193);fill-rule:nonzero;"/>
        <path d="M327.603,266.008L327.56,266.008C327.275,264.955 326.313,264.207 325.206,264.207C323.865,264.207 322.773,265.301 322.773,266.645L322.773,313.893C322.773,315.236 323.865,316.33 325.206,316.33C326.312,316.33 327.275,315.584 327.56,314.531L327.647,314.531L327.647,266.645L327.645,266.219L327.603,266.008Z" style="fill:rgb(177,141,193);fill-rule:nonzero;"/>
        <path d="M382.473,264.207C381.141,264.207 380.048,265.293 380.037,266.631L380.037,307.002L346.318,265.217C346.266,265.143 346.209,265.074 346.157,265.016L345.183,263.812L345.183,264.357C344.914,264.258 344.628,264.207 344.341,264.207C343.841,264.207 343.359,264.359 342.949,264.645C342.28,265.111 341.892,265.875 341.908,266.684L341.908,313.914C341.919,315.246 343.011,316.33 344.344,316.33C345.674,316.33 346.767,315.244 346.78,313.908L346.78,273.539L380.473,315.289C380.927,315.941 381.674,316.332 382.47,316.332C382.97,316.332 383.453,316.18 383.865,315.893C384.292,315.596 384.61,315.168 384.774,314.672L384.906,314.672L384.906,266.627C384.899,265.293 383.809,264.207 382.473,264.207Z" style="fill:rgb(177,141,193);fill-rule:nonzero;"/>
        <path d="M327.314,233.906L337.879,208.777L348.445,233.906L327.314,233.906ZM350.308,238.336L355.498,250.68C355.878,251.588 356.76,252.174 357.745,252.174C358.069,252.174 358.387,252.109 358.688,251.982C359.926,251.463 360.511,250.031 359.992,248.793L340.126,201.539C340.109,201.498 340.091,201.461 340.071,201.426L339.909,201.139C339.854,201.055 339.792,200.982 339.694,200.869L339.608,200.771C339.539,200.699 339.463,200.639 339.345,200.547L339.238,200.465C339.143,200.4 339.042,200.35 338.938,200.297L338.809,200.234C338.675,200.178 338.536,200.137 338.386,200.103C338.345,200.096 338.306,200.09 338.247,200.082C338.125,200.064 338.003,200.049 337.878,200.049C337.756,200.049 337.638,200.064 337.499,200.084C337.451,200.09 337.403,200.098 337.355,200.107C337.238,200.135 337.123,200.166 336.931,200.238C336.886,200.26 336.844,200.281 336.811,200.303C336.709,200.352 336.608,200.404 336.522,200.463C336.48,200.49 336.442,200.521 336.396,200.561C336.309,200.627 336.224,200.695 336.15,200.77C336.119,200.801 336.091,200.834 336.045,200.891C335.976,200.971 335.907,201.051 335.844,201.146C335.816,201.187 335.794,201.23 335.771,201.273L335.738,201.334C335.699,201.4 335.662,201.469 335.632,201.541L315.769,248.793C315.516,249.391 315.511,250.051 315.755,250.652C316.001,251.258 316.467,251.73 317.067,251.982C317.369,252.109 317.687,252.174 318.013,252.174C318.995,252.174 319.878,251.588 320.262,250.682L325.452,238.336L350.308,238.336Z" style="fill:rgb(177,141,193);fill-rule:nonzero;"/>
        <path d="M176.77,247.529L154.801,247.529L154.801,202.484C154.801,201.143 153.708,200.049 152.365,200.049C151.021,200.049 149.927,201.143 149.927,202.484L149.927,249.736C149.927,251.08 151.021,252.174 152.365,252.174L176.77,252.174C178.049,252.174 179.091,251.133 179.091,249.853C179.091,248.57 178.049,247.529 176.77,247.529Z" style="fill:rgb(177,141,193);fill-rule:nonzero;"/>
        <path d="M441.654,247.848L441.654,247.746L415.031,247.746L415.031,227.445L438.258,227.443C439.41,227.385 440.313,226.461 440.36,225.289L440.359,225.148C440.313,223.992 439.367,223.057 438.197,223.018L415.031,223.018L415.031,204.478L439.952,204.478C441.126,204.412 442.047,203.441 442.047,202.27C442.047,201.045 441.05,200.049 439.824,200.049L412.604,200.049C411.259,200.049 410.165,201.143 410.165,202.484L410.165,249.736C410.165,251.08 411.259,252.174 412.604,252.174L441.017,252.174C442.235,252.174 443.227,251.182 443.227,249.961C443.227,248.988 442.574,248.125 441.654,247.848Z" style="fill:rgb(177,141,193);fill-rule:nonzero;"/>
        <path d="M439.74,287.754L427.217,287.754C425.874,287.754 424.782,288.848 424.782,290.193C424.782,291.537 425.874,292.631 427.217,292.631L437.292,292.631L437.292,310.137C433.729,312.242 429.1,313.225 422.724,313.225C409.726,313.225 400.648,303.783 400.648,290.266C400.648,276.748 409.726,267.307 422.724,267.307C427.586,267.307 432.958,269.172 436.411,272.057L436.824,272.395L437.052,272.518L437.078,272.465C437.374,272.588 437.695,272.652 438.016,272.652C438.662,272.652 439.275,272.396 439.745,271.93C440.2,271.471 440.452,270.861 440.452,270.215C440.452,269.506 440.141,268.832 439.595,268.363C435.102,264.672 429.582,262.879 422.724,262.879C406.858,262.879 395.777,274.141 395.777,290.266C395.777,306.391 406.858,317.654 422.724,317.654C429.7,317.654 435.629,316.346 440.851,313.652L441.688,313.215L441.554,313.1C441.941,312.662 442.161,312.088 442.161,311.496L442.161,290.193C442.161,288.863 441.076,287.768 439.74,287.754Z" style="fill:rgb(177,141,193);fill-rule:nonzero;"/>
        <path d="M307.892,264.205L272.267,264.205C270.923,264.205 269.828,265.299 269.828,266.643C269.828,267.986 270.923,269.08 272.267,269.08L287.643,269.08L287.643,313.896C287.643,315.24 288.736,316.334 290.081,316.334C291.424,316.334 292.517,315.24 292.517,313.896L292.517,269.08L307.892,269.08C309.235,269.08 310.328,267.986 310.328,266.643C310.328,265.299 309.235,264.205 307.892,264.205Z" style="fill:rgb(177,141,193);fill-rule:nonzero;"/>
        <path d="M252.537,249.807C252.574,251.135 253.644,252.174 254.97,252.174C256.074,252.174 257.036,251.426 257.321,250.373L257.41,250.373L257.41,202.48L257.405,202.057L257.361,201.846L257.319,201.846C257.032,200.807 256.062,200.061 254.943,200.049C253.631,200.064 252.574,201.109 252.536,202.436L252.536,223.018L223.407,223.018L223.407,202.482C223.407,201.154 222.305,200.064 220.945,200.049C219.616,200.064 218.534,201.156 218.534,202.482L218.534,249.736C218.534,251.08 219.626,252.174 220.97,252.174C222.313,252.174 223.407,251.08 223.407,249.736L223.407,227.445L252.536,227.445L252.537,249.807Z" style="fill:rgb(177,141,193);fill-rule:nonzero;"/>
        <path d="M291.829,253.5C299.164,253.5 305.149,250.957 309.628,245.934C309.979,245.498 310.166,244.975 310.166,244.42C310.166,243.633 309.781,242.881 309.161,242.457L309.041,242.633L309.083,242.393C308.679,242.125 308.211,241.984 307.73,241.984C307.337,241.984 306.952,242.078 306.607,242.258L306.499,242.111L305.98,242.715C301.951,247.402 296.028,249.072 291.829,249.072C278.832,249.072 269.754,239.629 269.754,226.109C269.754,212.596 278.832,203.158 291.829,203.158C296.822,203.158 301.447,205.031 304.519,208.297L305.62,209.469L305.62,208.975C305.845,209.043 306.077,209.078 306.314,209.078C307.658,209.078 308.753,207.984 308.753,206.639C308.753,206.016 308.511,205.416 308.067,204.951C303.953,200.818 298.489,198.723 291.829,198.723C275.964,198.723 264.883,209.984 264.883,226.109C264.883,242.236 275.964,253.5 291.829,253.5Z" style="fill:rgb(177,141,193);fill-rule:nonzero;"/>
        <path d="M210.445,277.973C210.445,283.73 206.321,287.168 199.412,287.168L188.381,287.168L188.381,268.633L199.116,268.633C204.342,268.633 210.445,271.08 210.445,277.973ZM198.53,264.207L185.94,264.207C184.597,264.207 183.502,265.301 183.502,266.645L183.502,313.893C183.502,315.236 184.597,316.33 185.94,316.33C187.046,316.33 188.009,315.584 188.294,314.531L188.381,314.531L188.381,291.598L199.633,291.598C206.868,291.598 215.316,288.029 215.316,277.973C215.316,265.199 202.468,264.207 198.53,264.207Z" style="fill:rgb(177,141,193);fill-rule:nonzero;"/>
        <path d="M260.346,264.207C259.04,264.207 257.972,265.24 257.915,266.568L257.915,295.127C257.915,303.383 255.464,313.225 243.786,313.225C232.113,313.225 229.663,303.383 229.663,295.127L229.662,266.574C229.621,265.246 228.554,264.207 227.231,264.207C225.888,264.207 224.794,265.301 224.794,266.645L224.794,296.379C224.794,304.324 227.262,317.654 243.786,317.654C260.312,317.654 262.781,304.324 262.781,296.379L262.781,266.645C262.781,265.301 261.687,264.207 260.346,264.207Z" style="fill:rgb(177,141,193);fill-rule:nonzero;"/>
    </g>
</svg>
