<?xml version="1.0" encoding="utf-8"?>
<!-- Generator: Adobe Illustrator 22.0.1, SVG Export Plug-In . SVG Version: 6.00 Build 0)  -->
<svg version="1.1" id="Layer_1" xmlns="http://www.w3.org/2000/svg" xmlns:xlink="http://www.w3.org/1999/xlink" x="0px" y="0px"
	 viewBox="0 0 2295 328.1" style="enable-background:new 0 0 2295 328.1;" xml:space="preserve">
<style type="text/css">
	.st0{fill:#ED1A3F;}
	.st1{fill:#1A1A1A;}
</style>
<g>
	<polygon class="st0" points="472.5,192.8 537.4,192.8 505,106.8 	"/>
	<path class="st0" d="M244.6,255.3L244.6,255.3l0-180.3h31.6v73.8h93.8V74.9h0V16.7H43.2C24.9,16.7,10,31.6,10,49.9v233.2
		c0,18.4,14.9,33.3,33.3,33.3h201.4V255.3z M191.4,255.3l-60.6-76l-15.7,18.4v57.6H83.5V74.9h31.6v86l70.6-86h39.2l-73.3,85.2
		l78.7,95.2H191.4z"/>
	<ellipse class="st0" cx="683.2" cy="165.2" rx="59.7" ry="65.2"/>
	<path class="st0" d="M970.1,16.7H401.7v60.8h0v177.8h-31.6v-78.7h-93.8v75.6h0v64.2h693.8c18.4,0,33.3-14.9,33.3-33.3V49.9
		C1003.4,31.6,988.5,16.7,970.1,16.7z M559.6,255.3l-13.2-34.6h-82.7l-13.2,34.6h-36l70.8-180.3h39.5l70.8,180.3H559.6z
		 M683.2,258.5c-54.1,0-92.2-39.5-92.2-93.3c0-53.8,38.1-93.3,92.2-93.3s92.2,39.5,92.2,93.3C775.3,219,737.2,258.5,683.2,258.5z
		 M860.8,258.5c-33.3,0-57.3-11.6-73.3-28.7l17.6-24.3c12.4,13.2,31.9,24.9,57,24.9c26,0,36.2-12.7,36.2-24.6
		c0-16.2-19.2-21.1-41.1-26.8c-29.5-7.3-64.1-16-64.1-54.1c0-29.7,26.2-52.7,65.7-52.7c28.1,0,50.8,8.9,67.6,25.1l-18.1,23.5
		c-14.1-14.1-33.3-20.5-52.2-20.5c-18.7,0-30.5,8.9-30.5,22.4c0,14.1,18.4,18.7,39.7,24.1c29.7,7.6,65.2,16.8,65.2,56
		C930.5,232.8,909.4,258.5,860.8,258.5z"/>
</g>
<g>
	<path class="st1" d="M1076.6,165.2c0-55.5,40.3-93.3,91.4-93.3c28.7,0,50.3,12.7,65.7,31.9l-13,8.4c-11.4-15.7-31.1-26.2-52.8-26.2
		c-42.5,0-75.2,32.2-75.2,79.3c0,46.5,32.7,79.3,75.2,79.3c21.6,0,41.4-10.5,52.8-26.2l13,8.1c-16,19.7-37.1,32.2-65.7,32.2
		C1116.9,258.5,1076.6,220.6,1076.6,165.2z"/>
	<path class="st1" d="M1258.4,165.2c0-52.8,34.6-93.3,87.6-93.3c52.8,0,87.6,40.6,87.6,93.3s-34.9,93.3-87.6,93.3
		C1293,258.5,1258.4,217.9,1258.4,165.2z M1417.4,165.2c0-46-28.1-79.3-71.4-79.3c-43.8,0-71.4,33.3-71.4,79.3
		c0,45.4,27.6,79.3,71.4,79.3C1389.3,244.4,1417.4,210.6,1417.4,165.2z"/>
	<path class="st1" d="M1600.9,255.3l-113.6-155v155h-15.4V74.8h15.7l113.1,152.8V74.8h15.4v180.4H1600.9z"/>
	<path class="st1" d="M1706.9,255.3V88.9h-59V74.8h133.6v14.1h-59v166.4H1706.9z"/>
	<path class="st1" d="M1919.3,255.3l-50.6-74.7h-39.8v74.7h-15.4V74.8h67.4c31.1,0,54.9,19.7,54.9,52.8c0,32.7-23.3,50.9-50,51.9
		l52.2,75.7H1919.3z M1919.5,127.6c0-22.7-16.2-38.7-40-38.7h-50.6v77.6h50.6C1903.3,166.5,1919.5,150.3,1919.5,127.6z"/>
	<path class="st1" d="M1967.4,165.2c0-52.8,34.6-93.3,87.6-93.3c52.8,0,87.6,40.6,87.6,93.3s-34.9,93.3-87.6,93.3
		C2002,258.5,1967.4,217.9,1967.4,165.2z M2126.5,165.2c0-46-28.1-79.3-71.4-79.3c-43.8,0-71.4,33.3-71.4,79.3
		c0,45.4,27.6,79.3,71.4,79.3C2098.3,244.4,2126.5,210.6,2126.5,165.2z"/>
	<path class="st1" d="M2180.8,255.3V74.8h15.4v166.4h87.4v14.1H2180.8z"/>
</g>
</svg>
