<svg xmlns="http://www.w3.org/2000/svg" width="690.6587" height="216.9562" viewBox="0 0 690.6587 216.9562"><defs><style>.cls-1{fill:none;}.cls-2{fill:#4cd1c3;}.cls-3{fill:#fff;}.cls-4{font-size:190px;fill:#343a40;font-family:Fugue-Regular, Fugue;letter-spacing:0.002em;}.cls-5{letter-spacing:-0.002em;}.cls-6{letter-spacing:-0.042em;}</style></defs><title>Logo</title><g id="Layer_2" data-name="Layer 2"><g id="Layer_1-2" data-name="Layer 1"><g id="Layer_2-2" data-name="Layer 2"><path class="cls-1" d="M60.3843,82.8931a4.9954,4.9954,0,0,0,.64-.4889L57.91,84.5208Z"/><path class="cls-2" d="M97.1909,22.4438A97.2475,97.2475,0,0,0,.4888,109.4766l58.44-39.1116a5.398,5.398,0,0,1,7.604,1.6458,5.8941,5.8941,0,0,1,.9414,3.0673A5.64,5.64,0,0,1,64.65,79.9407l-3.6255,2.4635a4.9954,4.9954,0,0,1-.64.4889L57.91,84.5208,0,123.8712a95.9359,95.9359,0,0,0,2.0815,16.2279L126.6748,58.3326a5.4853,5.4853,0,0,1,7.5786,1.5879A5.4132,5.4132,0,0,1,135.12,62.88a5.4851,5.4851,0,0,1-2.4541,4.6194L5.1216,151.2089a94.5,94.5,0,0,0,6.5674,14.8356l15.5752-9.9579,75.1684-49.25a5.4424,5.4424,0,0,1,5.1055-1.2512,5.1836,5.1836,0,0,1,2.7431,1.7974,5.4023,5.4023,0,0,1-1.9594,8.3224L17.5527,175.274a98.3639,98.3639,0,0,0,10.6592,12.6666l.0606-.0393c-.02-.02-.0406-.0389-.0606-.0591l43.9927-28.52a5.4184,5.4184,0,0,1,7.4863,1.5686,5.3457,5.3457,0,0,1,.9273,2.9946,5.4194,5.4194,0,0,1-2.4244,4.492l-41.64,26.9519c-.0757-.0574-.1436-.1172-.2173-.1749l-.2666.1749A97.2562,97.2562,0,1,0,97.1909,22.4438Z"/><path class="cls-3" d="M79.6875,160.8537a5.4311,5.4311,0,0,0-7.5088-1.575L28.1318,187.8672c.02.02.0405.039.0606.0593,1.3388,1.3379,2.5991,2.6574,3.9375,3.8563,1.2788,1.0475,2.4272,2.2592,3.61,3.2732l.6011.4937L78.186,168.3713a5.444,5.444,0,0,0,2.4316-4.5106A5.37,5.37,0,0,0,79.6875,160.8537Z"/><path class="cls-3" d="M17.5527,175.274l90.7691-59.5693a5.4091,5.4091,0,0,0,1.7495-8.5742,5,5,0,0,0-2.1841-1.4432,5.46,5.46,0,0,0-5.4546,1.1488L27.2642,156.0866,11.689,166.0445c.7993,1.5532,1.74,3.2142,2.8457,4.9407C15.5459,172.564,16.5649,173.9924,17.5527,175.274Z"/><path class="cls-3" d="M135.12,62.88a5.4132,5.4132,0,0,0-.8662-2.9594,5.4853,5.4853,0,0,0-7.5786-1.5879L2.0815,140.0991h0c.3609,1.8767.7623,3.5611,1.2676,5.3656s1.1953,3.94,1.7725,5.7442h0l127.5439-83.71A5.4851,5.4851,0,0,0,135.12,62.88Z"/><path class="cls-3" d="M61.55,82.0664l3.6255-2.4635A5.6406,5.6406,0,0,0,68,74.74a5.895,5.895,0,0,0-.9414-3.0673,5.398,5.398,0,0,0-7.604-1.6458l-58.44,39.1117-.58.3884A63.5448,63.5448,0,0,0,0,117.0083v6.8825l.5259-.3575,57.91-39.35Z"/></g><text class="cls-4" transform="translate(234.4741 164.4438)">r<tspan class="cls-5" x="64.9814" y="0">ec</tspan><tspan class="cls-6" x="253.2676" y="0">ap</tspan></text></g></g></svg>