<svg xmlns="http://www.w3.org/2000/svg" viewBox="0 0 690.6616 194.5124"><defs><style>.cls-1{fill:none;}.cls-2{fill:#4cd1c3;}.cls-3{fill:#fff;}.cls-4{fill:#343a40;}</style></defs><title>logo (converted)</title><g id="Layer_2" data-name="Layer 2"><g id="Layer_1-2" data-name="Layer 1"><g id="Layer_2-2" data-name="Layer 2"><path class="cls-1" d="M60.3843,60.4493a5.0045,5.0045,0,0,0,.64-.4889L57.91,62.0769Z"/><path class="cls-2" d="M97.1909,0A97.2474,97.2474,0,0,0,.4888,87.0328l58.44-39.1117a5.3981,5.3981,0,0,1,7.604,1.6459,5.894,5.894,0,0,1,.9414,3.0672A5.64,5.64,0,0,1,64.65,57.4969L61.0244,59.96a5.0045,5.0045,0,0,1-.64.4889L57.91,62.0769,0,101.4274a95.9372,95.9372,0,0,0,2.0815,16.2279L126.6748,35.8887a5.4855,5.4855,0,0,1,7.5786,1.588,5.4131,5.4131,0,0,1,.8662,2.9593,5.4854,5.4854,0,0,1-2.4541,4.62L5.1216,128.765a94.5054,94.5054,0,0,0,6.5674,14.8357l15.5752-9.9579,75.1684-49.2506a5.4426,5.4426,0,0,1,5.1055-1.2511,5.1834,5.1834,0,0,1,2.7431,1.7973,5.4023,5.4023,0,0,1-1.9594,8.3224L17.5527,152.83a98.3707,98.3707,0,0,0,10.6592,12.6666l.0606-.0393c-.02-.02-.0406-.0389-.0606-.0591l43.9927-28.52a5.4184,5.4184,0,0,1,7.4863,1.5686,5.3458,5.3458,0,0,1,.9273,2.9947,5.42,5.42,0,0,1-2.4244,4.492l-41.64,26.9518c-.0757-.0574-.1436-.1171-.2173-.1749l-.2666.1749A97.2562,97.2562,0,1,0,97.1909,0Z"/><path class="cls-3" d="M79.6875,138.41a5.4311,5.4311,0,0,0-7.5088-1.5751L28.1318,165.4233c.02.02.0405.0391.0606.0594,1.3388,1.3378,2.5991,2.6574,3.9375,3.8563,1.2788,1.0475,2.4272,2.2592,3.61,3.2732l.6011.4937L78.186,145.9274a5.4438,5.4438,0,0,0,2.4316-4.5105A5.37,5.37,0,0,0,79.6875,138.41Z"/><path class="cls-3" d="M17.5527,152.83l90.7691-59.5694a5.4091,5.4091,0,0,0,1.7495-8.5742,5,5,0,0,0-2.1841-1.4432,5.46,5.46,0,0,0-5.4546,1.1488L27.2642,133.6428,11.689,143.6007c.7993,1.5531,1.74,3.2142,2.8457,4.9406C15.5459,150.12,16.5649,151.5485,17.5527,152.83Z"/><path class="cls-3" d="M135.12,40.436a5.4131,5.4131,0,0,0-.8662-2.9593,5.4855,5.4855,0,0,0-7.5786-1.588L2.0815,117.6553h0c.3609,1.8766.7623,3.5611,1.2676,5.3655s1.1953,3.94,1.7725,5.7442h0L132.6655,45.0555A5.4854,5.4854,0,0,0,135.12,40.436Z"/><path class="cls-3" d="M61.55,59.6225l3.6255-2.4635A5.64,5.64,0,0,0,68,52.2963a5.8949,5.8949,0,0,0-.9414-3.0672,5.398,5.398,0,0,0-7.604-1.6458L1.0146,86.6949l-.58.3884A63.546,63.546,0,0,0,0,94.5644v6.8826l.5259-.3575,57.91-39.3505Z"/></g><path class="cls-4" d="M245.8745,52.6987h17.1l1.9,9.5.95.95.95-.95c5.6992-7.6006,13.3-11.4,20.9-11.4,3.8,0,5.6992,0,9.5,1.9v17.1h-11.4a21.0718,21.0718,0,0,0-20.9,20.1407V142h-19Z"/><path class="cls-4" d="M324.1558,102.1c0,13.3,9.5,24.7,25.65,24.7,11.4,0,19.19-5.7,22.04-13.3l15.9609,7.6C380.2065,134.4,366.9067,143.9,348.856,143.9c-23.75,0-43.7-19-43.7-46.5508s19-46.5508,43.7-46.5508c22.8007,0,41.8007,18.05,41.8007,45.6006l-1.9,5.7Zm.95-16.72h45.6005c-.95-9.88-10.45-17.4805-21.8505-17.4805C335.5562,67.8989,327.9565,75.499,325.106,85.3794Z"/><path class="cls-4" d="M447.2739,126.8a25.3494,25.3494,0,0,0,23.18-15.2l14.82,9.5a43.39,43.39,0,0,1-38.95,22.8008c-23.94,0-45.6006-19-45.6006-46.5508s21.66-46.5508,45.6006-46.5508c18.05,0,31.3506,9.5,38.7608,22.8l-14.82,9.5a25.0656,25.0656,0,0,0-22.99-15.2c-18.0508,0-27.9306,13.3-27.9306,29.4507S429.2231,126.8,447.2739,126.8Z"/><path class="cls-4" d="M584.6421,142H567.5415l-1.8994-7.6-.95-.9512-.95.9512c-5.7,5.6992-15.2,9.5-24.7,9.5-24.7,0-45.6006-19-45.6006-46.5508s20.9-46.5508,45.6006-46.5508c9.5,0,19,3.8,24.7,9.5l.95.95.95-.95,1.8994-7.6h17.1006Zm-44.65-74.1011c-18.0508,0-27.74,13.3-27.74,29.4507s9.6894,29.45,27.74,29.45c16.15,0,27.55-13.3,27.55-29.45S556.1421,67.8989,539.9917,67.8989Z"/><path class="cls-4" d="M599.46,52.6987h17.1l1.71,7.6,1.1406.95.95-.95c5.6993-5.7,15.2-9.5,24.7-9.5,24.7,0,45.6006,19,45.6006,46.5508S669.7612,143.9,645.061,143.9c-9.3105,0-19.0009-3.8008-24.7-9.5l-.95-.9512L618.27,134.4v47.88H599.46Zm44.65,74.1011c18.05,0,27.5508-13.3,27.5508-29.45s-9.501-29.4507-27.5508-29.4507c-16.15,0-27.5507,13.3-27.5507,29.4507S627.96,126.8,644.1108,126.8Z"/></g></g></svg>