<?xml version="1.0" encoding="UTF-8" standalone="no"?><!DOCTYPE svg PUBLIC "-//W3C//DTD SVG 1.1//EN" "http://www.w3.org/Graphics/SVG/1.1/DTD/svg11.dtd"><svg width="100%" height="100%" viewBox="0 0 9584 7113" version="1.1" xmlns="http://www.w3.org/2000/svg" xmlns:xlink="http://www.w3.org/1999/xlink" xml:space="preserve" xmlns:serif="http://www.serif.com/" style="fill-rule:evenodd;clip-rule:evenodd;stroke-linejoin:round;stroke-miterlimit:2;"><g><path d="M4740.65,3164.49l0,-523.255c0,-16.612 -3.413,-22.841 -21.833,-24.224c-196.48,-11.767 -388.867,-46.375 -573.75,-116.28c-85.959,-32.529 -167.142,-74.058 -244.917,-123.2c-18.421,-11.766 -24.559,-34.608 -14.325,-52.604c10.233,-18.687 35.475,-26.3 55.258,-15.225c16.375,8.996 32.067,20.071 47.754,29.763c143.267,86.516 298.817,137.042 461.184,169.57c163.05,32.534 327.466,43.605 492.566,35.992c211.488,-8.996 418.2,-45.679 615.363,-127.354c81.183,-33.912 158.275,-75.442 229.225,-128.738c10.233,-7.612 23.196,-13.15 36.158,-14.533c17.058,-1.383 32.067,12.459 36.842,29.763c4.775,18.687 -2.729,32.529 -17.054,42.912c-63.45,46.371 -130.988,85.825 -202.621,118.354c-163.054,74.059 -334.292,116.279 -510.988,137.738c-49.8,6.229 -99.604,9.688 -150.087,13.842c-10.917,0.691 -15.692,4.845 -14.325,15.225c0.679,4.845 0,9.691 0,14.537l0,988.371c0,25.608 2.729,51.221 7.504,76.829c4.775,27.683 21.15,47.758 47.071,59.525c36.158,15.917 72.317,31.146 109.158,45.679c28.654,11.075 55.942,5.538 80.5,-12.458c25.925,-19.379 51.167,-39.45 77.092,-58.833c28.654,-21.455 57.987,-19.38 83.233,6.229c19.1,19.383 38.883,38.762 57.988,58.833c23.879,24.917 25.924,56.754 5.458,85.133c-19.104,26.3 -38.888,51.909 -57.309,78.213c-19.783,26.992 -22.512,56.062 -10.233,86.516c13.646,32.53 26.609,65.755 40.251,98.284c12.962,31.837 36.841,50.525 70.953,55.371c31.38,4.154 62.08,8.995 93.463,13.841c34.796,5.538 55.262,28.379 56.625,62.988c0.683,28.375 0.683,56.754 0,84.437c-0.683,31.146 -19.783,55.371 -50.483,60.909c-32.067,6.229 -64.813,9.691 -96.875,14.537c-36.159,4.842 -61.4,23.529 -75.046,58.829c-12.962,33.225 -27.288,65.754 -40.25,98.975c-11.6,29.071 -8.871,56.759 9.55,81.675c19.104,26.992 38.887,53.292 58.671,79.596c21.833,29.763 20.466,59.525 -4.775,85.825c-19.105,20.071 -38.888,40.142 -58.671,60.217c-22.513,22.146 -53.896,24.916 -79.137,6.229c-27.292,-19.379 -53.213,-40.146 -79.822,-60.217c-25.924,-19.379 -54.579,-22.15 -83.912,-10.383c-34.112,13.15 -67.542,27.687 -100.288,42.221c-29.337,13.15 -47.075,35.304 -51.85,67.833c-4.775,32.525 -9.55,65.75 -14.325,98.279c-4.096,31.146 -23.879,53.988 -55.258,56.063c-30.021,2.771 -60.721,2.771 -90.737,0.692c-35.475,-2.076 -57.309,-24.225 -62.084,-60.213c-4.091,-29.762 -7.504,-59.525 -11.596,-89.287c-4.775,-35.992 -23.195,-60.909 -56.625,-74.75c-32.066,-13.151 -63.445,-26.305 -95.512,-40.146c-30.7,-13.15 -60.033,-9.688 -87.325,10.383c-21.829,16.612 -43.663,33.221 -65.492,49.833c-31.383,23.538 -73.679,23.538 -103.016,-3.458c-23.2,-20.767 -43.663,-44.3 -64.13,-67.833c-13.641,-15.917 -10.912,-40.834 5.459,-64.367c19.104,-26.996 38.204,-53.296 58.671,-79.596c22.512,-29.762 25.237,-60.908 10.916,-94.825c-12.962,-31.146 -25.241,-62.292 -38.204,-93.437c-13.646,-33.913 -38.887,-51.909 -73.679,-57.446c-30.021,-4.154 -60.038,-7.613 -90.054,-12.459c-33.429,-4.845 -55.259,-26.995 -57.309,-60.908c-2.045,-29.762 -2.045,-60.217 0,-89.979c2.05,-33.913 24.563,-55.371 57.992,-60.217c29.333,-4.15 58.671,-8.304 88.004,-12.458c36.842,-4.846 62.079,-24.917 75.729,-60.217c12.28,-30.454 24.559,-61.6 37.521,-92.054c14.321,-33.912 10.917,-65.75 -11.595,-94.821c-18.421,-24.225 -36.842,-49.141 -54.58,-73.366c-21.15,-28.379 -19.104,-59.525 5.454,-85.134c19.788,-20.07 38.888,-40.145 58.676,-60.216c22.508,-22.15 55.258,-24.225 81.183,-5.538c25.925,19.379 51.167,38.758 77.091,58.142c27.288,20.762 57.309,24.225 88.688,10.379c30.7,-13.15 61.4,-26.3 92.1,-38.758c38.204,-15.225 57.308,-43.604 59.354,-84.442c1.367,-42.913 2.046,-85.825 2.046,-128.737c0,-130.121 -0.679,-263.705 -0.679,-396.596Zm113.929,1367.67c107.108,0.692 195.796,-88.595 195.796,-196.566c0.683,-108.667 -87.321,-198.646 -193.75,-200.03c-107.792,-0.691 -196.48,87.9 -197.163,197.951c-0.679,110.05 85.963,198.645 195.117,198.645Z"/><path d="M4833.43,908.125c25.925,42.217 51.85,81.671 75.046,122.509c22.512,39.449 45.708,79.595 64.812,121.12c50.484,111.438 64.125,224.946 7.505,339.842c-33.43,67.829 -78.459,125.97 -134.4,180.646c-15.692,-15.226 -32.063,-29.758 -45.709,-46.371c-36.158,-43.604 -69.587,-89.288 -90.733,-142.579c-22.517,-57.45 -27.292,-115.588 -21.834,-176.496c5.459,-63.679 25.926,-123.2 49.805,-181.342c28.649,-69.212 59.35,-138.429 89.37,-206.95c0.68,-3.458 2.73,-5.537 6.138,-10.379Z"/><path d="M6048.46,1780.22c-36.158,55.372 -69.587,108.667 -105.741,159.884c-38.887,54.679 -83.234,105.204 -136.446,146.041c-57.309,44.297 -122.8,65.063 -195.117,67.138c-79.821,2.771 -155.545,-14.533 -229.225,-42.912c-12.962,-4.846 -15.008,-11.076 -10.233,-23.534c22.512,-58.137 49.121,-114.895 88.688,-163.342c36.158,-44.299 80.504,-78.903 135.079,-101.745c83.233,-34.609 169.191,-42.221 257.2,-42.221l179.425,0c4.091,0 9.55,0.691 16.37,0.691Z"/><path d="M3624.53,1782.99c47.071,0 89.371,-0.695 131.667,0c56.625,0.692 113.25,0.692 169.875,4.842c66.858,4.846 130.987,22.842 190.342,54.679c44.341,23.534 79.137,58.142 109.837,98.976c33.429,44.991 56.621,95.516 77.767,146.733c6.141,14.537 3.417,21.458 -11.592,26.996c-77.775,29.071 -157.596,47.758 -240.825,42.221c-56.625,-4.155 -110.521,-18.688 -158.275,-51.913c-55.262,-38.759 -103.017,-84.442 -141.904,-139.813c-41.613,-59.521 -82.546,-119.046 -126.892,-182.721Z"/><path d="M4016.8,1184.98c32.067,13.842 62.767,25.609 92.784,39.45c54.579,24.917 109.837,49.142 163.733,76.829c72.317,36.683 134.4,85.825 180.108,154.346c48.438,71.983 62.084,155.037 62.763,240.863c0,13.845 -0.679,28.379 -0.679,42.221c0.679,15.228 -6.142,19.383 -21.151,18.687c-68.225,-3.459 -135.766,-15.225 -199.208,-41.525c-81.187,-33.225 -145.996,-86.521 -185.566,-167.5c-23.876,-48.45 -43.663,-98.975 -53.896,-152.963c-12.963,-66.445 -25.925,-132.887 -38.888,-199.333c-0.679,-2.771 0,-5.537 0,-11.075Z"/><path d="M5665.05,1191.21c-4.092,23.534 -8.188,45.68 -11.596,67.829c-6.142,36.684 -12.283,73.367 -19.787,110.051c-3.409,17.304 -8.867,34.608 -12.963,51.216c-17.054,67.138 -42.979,130.817 -83.912,186.879c-26.604,37.375 -60.034,67.138 -100.967,86.517c-37.525,17.996 -76.408,35.992 -115.979,48.45c-34.112,10.383 -70.95,12.458 -107.108,17.996c-2.73,0.691 -6.142,0 -8.871,0c-37.521,1.383 -36.838,1.383 -38.204,-38.067c-1.363,-53.987 1.366,-107.975 15.691,-160.579c18.421,-63.675 50.484,-118.354 98.925,-165.421c54.575,-52.6 118.704,-89.283 186.246,-119.737c62.079,-28.38 124.163,-55.371 186.246,-83.059c3.412,-1.383 7.504,-1.383 12.279,-2.075Z"/><path d="M4852.53,2474.43c-109.837,0 -197.162,-87.904 -197.162,-199.337c0,-110.742 88.687,-200.029 197.845,-199.338c108.471,0.696 196.48,89.979 196.48,198.646c0,111.433 -87.325,200.029 -197.163,200.029Z"/><path d="M4317.67,703.942c31.383,30.454 60.033,56.758 86.642,85.133c32.062,34.608 64.812,69.213 92.099,107.975c31.384,44.987 49.121,96.208 47.754,152.963c-1.362,48.449 -14.324,94.129 -32.062,138.424c-5.458,14.538 -11.6,17.305 -27.288,10.384c-64.129,-31.146 -121.441,-69.213 -161.008,-131.504c-25.241,-39.454 -32.746,-83.75 -35.475,-129.433c-3.408,-57.446 7.504,-113.509 17.058,-169.571c4.092,-20.075 7.505,-39.455 12.28,-64.371Z"/><path d="M5398.99,697.021c9.55,69.908 22.513,134.275 27.288,199.337c8.187,106.588 -32.746,193.104 -121.433,252.629c-28.654,19.379 -60.717,35.301 -96.192,55.371c-11.6,-37.374 -23.879,-69.904 -32.067,-103.129c-17.737,-71.983 -3.412,-139.812 34.113,-201.412c20.467,-33.221 47.754,-62.984 74.362,-92.054c32.746,-35.301 67.538,-67.83 102.334,-101.742c2.045,-1.387 4.775,-3.463 11.595,-9Z"/><path d="M6386.16,2804.58c-27.971,-3.458 -51.166,-5.537 -74.362,-10.379c-42.979,-8.312 -86.642,-15.925 -128.938,-28.383c-64.812,-19.379 -118.708,-55.371 -153.5,-117.663c-30.02,-53.296 -42.983,-111.433 -48.437,-171.649c0,-4.155 6.821,-11.767 10.913,-12.459c92.783,-9.692 177.379,4.846 246.966,75.442c46.392,47.067 74.363,104.512 103.017,162.654c12.279,25.608 24.558,51.908 36.154,78.212c2.729,6.921 4.096,13.15 8.187,24.225Z"/><path d="M3301.84,2799.74c38.888,-79.596 68.905,-161.271 120.071,-230.484c50.484,-67.829 118.025,-105.895 201.938,-110.05c23.879,-1.383 48.437,0.692 72.316,1.384c9.55,0 14.326,4.154 12.963,14.537c-9.55,85.133 -30.7,164.729 -93.467,227.021c-34.791,34.604 -78.454,53.992 -124.162,65.058c-59.354,14.542 -120.071,22.15 -180.109,32.534l-9.55,0Z"/><path d="M6195.14,1247.96c-31.384,87.209 -56.625,173.034 -112.567,245.017c-42.3,53.988 -99.604,83.059 -165.779,90.671c-39.571,4.154 -79.138,0.691 -119.392,1.383c-9.55,0 -14.325,-4.15 -12.962,-14.533c8.871,-70.6 27.975,-137.046 77.775,-189.646c39.57,-42.221 90.054,-67.829 143.95,-83.75c57.304,-17.304 115.296,-30.454 173.283,-45.679c4.092,-2.079 8.187,-2.771 15.692,-3.463Z"/><path d="M3502.41,1251.42c15.688,3.458 26.605,4.842 37.521,7.612c70.95,18.688 144.629,30.455 211.488,63.676c61.4,30.454 111.887,73.366 134.4,141.891c11.596,34.605 17.737,70.596 26.604,106.588c2.05,8.995 0.683,15.225 -10.233,16.612c-77.092,8.305 -152.134,4.842 -221.721,-34.608c-36.842,-20.762 -63.446,-51.909 -85.959,-87.208c-30.699,-47.067 -49.804,-98.975 -68.904,-150.888c-8.187,-20.071 -15.012,-39.45 -23.196,-63.675Z"/><path d="M6465.3,1992.01c-7.504,11.074 -12.279,18.687 -17.737,25.608c-36.838,45.679 -71.634,94.129 -111.884,137.042c-60.037,62.987 -135.762,91.362 -221.721,77.52c-41.616,-6.921 -82.55,-22.15 -123.483,-34.608c-3.412,-1.383 -8.187,-11.071 -6.821,-14.533c29.333,-71.983 70.267,-134.275 142.583,-168.884c52.53,-25.608 109.155,-33.912 167.142,-31.837c51.167,2.075 102.333,3.462 153.5,6.229c4.096,-0.691 9.554,1.383 18.421,3.463Z"/><path d="M3202.92,1986.48c23.196,-1.383 40.933,-4.154 58.671,-4.154c65.491,0 131.666,-4.154 196.479,2.075c68.221,6.925 128.941,37.379 170.554,95.516c21.15,29.763 38.887,63.68 57.308,95.517c5.458,8.996 3.413,15.225 -6.821,19.379c-72.316,29.071 -145.995,49.834 -223.77,27.683c-28.655,-8.303 -55.942,-22.145 -81.184,-38.758c-54.579,-35.991 -92.783,-88.591 -130.987,-141.196c-11.6,-17.304 -23.879,-33.916 -40.25,-56.062Z"/><path d="M6428.46,2387.91c64.129,-62.983 133.033,-78.9 203.3,-50.524c51.166,20.766 98.924,49.833 147.362,78.212c-63.45,33.917 -124.167,72.675 -198.529,69.212c-53.896,-2.766 -94.829,-33.221 -130.988,-71.287c-6.82,-7.617 -13.642,-16.612 -21.145,-25.613Z"/><path d="M4834.11,362.717c32.063,51.912 66.859,100.362 81.184,158.5c18.42,73.366 -13.642,131.508 -59.354,184.108c-3.409,4.154 -7.505,7.616 -11.596,11.767c-0.684,0.691 -2.046,1.387 -5.459,3.462c-25.241,-22.841 -46.391,-49.833 -60.716,-81.671c-21.834,-49.837 -17.055,-99.67 0.683,-148.812c15.008,-40.142 33.429,-78.904 49.8,-118.354c0.683,-2.771 2.729,-4.846 5.458,-9Z"/><path d="M5796.73,1052.09c-2.729,-62.983 2.729,-119.045 45.708,-165.42c40.934,-44.296 94.829,-64.367 147.359,-87.9c12.279,-5.538 25.241,-11.075 38.204,-15.921c1.366,2.075 2.729,2.771 2.729,3.462c-8.867,57.446 -16.371,114.892 -43.662,167.496c-26.605,51.217 -70.951,76.83 -124.846,88.596c-21.151,4.15 -41.617,6.229 -65.492,9.687Z"/><path d="M2935.48,2419.75c62.084,-33.225 113.25,-73.366 176.696,-88.596c65.496,-15.225 120.071,7.613 169.875,47.758c6.821,5.538 8.867,10.384 2.046,17.997c-63.446,77.52 -135.762,113.508 -236.733,73.366c-35.475,-14.533 -70.95,-31.838 -111.884,-50.525Z"/><path d="M3442.38,1676.4c-99.604,29.071 -184.2,9.692 -238.096,-80.287c-21.829,-35.992 -38.887,-74.059 -58.671,-110.742c1.367,-1.384 2.046,-2.771 3.413,-4.155c37.521,6.23 74.362,11.767 111.883,17.997c34.113,5.537 66.859,16.612 96.192,35.299c53.216,32.529 73,85.134 85.279,141.888Z"/><path d="M3647.04,770.387c32.745,14.534 66.858,27.688 98.921,44.988c27.291,14.537 54.579,31.842 77.775,52.604c47.754,41.529 57.308,98.975 54.579,159.192c0,4.154 -7.505,11.075 -11.6,11.075c-89.371,-3.463 -171.921,-38.067 -198.525,-148.117c-8.871,-38.071 -17.059,-76.137 -25.242,-114.204c0.679,-2.075 2.046,-3.463 4.092,-5.538Z"/><path d="M6512.38,1477.06c-28.654,61.601 -51.85,120.429 -98.921,164.73c-38.208,35.987 -84.596,44.987 -134.4,42.912c-16.375,-0.696 -32.063,-4.846 -48.437,-6.233c-13.646,-1.384 -15.009,-7.613 -12.279,-20.071c19.099,-91.363 75.724,-143.271 164.416,-161.267c41.613,-7.612 83.23,-12.458 129.621,-20.071Z"/><path d="M640.429,5504.82l98.308,0l194.663,690.104l274.738,-690.104l19.533,0l271.483,690.104l198.567,-690.104l97.658,0l-274.741,957.683l-18.23,0l-283.854,-724.608l-289.712,724.608l-18.23,0l-270.183,-957.683Z" style="fill-rule:nonzero;"/><path d="M2555.8,6227.48l76.821,40.363c-25.175,49.479 -54.254,89.412 -87.238,119.791c-32.987,30.383 -70.096,53.496 -111.329,69.338c-41.233,15.841 -87.892,23.762 -139.975,23.762c-115.45,0 -205.729,-37.871 -270.833,-113.608c-65.104,-75.738 -97.655,-161.35 -97.655,-256.834c0,-89.845 27.559,-169.924 82.68,-240.237c69.879,-89.408 163.412,-134.113 280.6,-134.113c120.658,0.001 217.012,45.792 289.062,137.371c51.217,64.671 77.258,145.4 78.125,242.188l-636.717,0c1.734,82.462 27.992,150.062 78.775,202.8c50.78,52.733 113.496,79.1 188.151,79.1c36.024,0 71.07,-6.292 105.145,-18.879c34.071,-12.588 63.042,-29.3 86.913,-50.134c23.871,-20.833 49.696,-54.466 77.475,-100.908Zm0,-190.754c-12.154,-48.613 -29.842,-87.459 -53.063,-116.538c-23.22,-29.079 -53.925,-52.516 -92.121,-70.312c-38.195,-17.796 -78.341,-26.696 -120.441,-26.696c-69.446,0 -129.125,22.354 -179.038,67.058c-36.458,32.554 -64.02,81.38 -82.683,146.488l527.346,0Z" style="fill-rule:nonzero;"/><path d="M3531.7,5754.17l0,708.333l-89.842,0l0,-121.746c-38.195,46.442 -81.054,81.379 -128.579,104.817c-47.529,23.437 -99.504,35.158 -155.925,35.158c-100.262,0 -185.875,-36.35 -256.837,-109.05c-70.963,-72.7 -106.446,-161.133 -106.446,-265.3c0,-101.996 35.808,-189.233 107.421,-261.717c71.616,-72.483 157.771,-108.725 258.466,-108.725c58.159,0.001 110.784,12.371 157.876,37.109c47.091,24.741 88.433,61.85 124.024,111.329l0,-130.208l89.842,0Zm-364.583,69.662c-50.779,0 -97.654,12.479 -140.625,37.434c-42.967,24.958 -77.146,60.004 -102.538,105.141c-25.391,45.142 -38.087,92.884 -38.087,143.229c0,49.917 12.804,97.659 38.412,143.229c25.609,45.575 60.005,81.059 103.192,106.446c43.183,25.392 89.517,38.088 138.996,38.088c49.912,0 97.221,-12.588 141.929,-37.763c44.704,-25.171 79.1,-59.241 103.188,-102.212c24.091,-42.967 36.133,-91.363 36.133,-145.184c0,-82.029 -27.017,-150.604 -81.054,-205.729c-54.038,-55.12 -120.55,-82.679 -199.546,-82.679Z" style="fill-rule:nonzero;"/><rect x="3723.11" y="5480.73" width="91.146" height="981.771" style="fill-rule:nonzero;"/><path d="M4083.14,5491.15l91.795,0l0,263.021l144.534,0l0,78.125l-144.534,0l0,630.208l-91.795,0l0,-630.208l-124.35,0l0,-78.125l124.35,0l0,-263.021Z" style="fill-rule:nonzero;"/><path d="M4455.53,5480.73l91.146,0l0,400.392c36.892,-48.613 77.475,-84.963 121.746,-109.05c44.271,-24.088 92.229,-36.133 143.879,-36.133c52.95,-0.001 99.938,13.454 140.95,40.362c41.017,26.912 71.292,63.046 90.821,108.4c19.533,45.358 29.296,116.429 29.296,213.217l0,364.583l-91.146,0l0,-337.892c0,-81.596 -3.254,-136.066 -9.763,-163.412c-11.287,-46.875 -31.795,-82.138 -61.525,-105.792c-29.729,-23.654 -68.683,-35.483 -116.862,-35.483c-55.121,0 -104.492,18.229 -148.112,54.687c-43.617,36.459 -72.375,81.6 -86.263,135.417c-8.679,34.725 -13.021,98.958 -13.021,192.708l0,259.767l-91.146,0l0,-981.771Z" style="fill-rule:nonzero;"/><path d="M5283.66,5504.82l97.659,0l0,359.375l382.158,-359.375l129.558,0l-460.287,429.687l496.096,527.996l-126.954,0l-420.571,-446.617l0,446.617l-97.659,0l0,-957.683Z" style="fill-rule:nonzero;"/><path d="M6652.8,6227.48l76.821,40.363c-25.171,49.479 -54.25,89.412 -87.238,119.791c-32.987,30.383 -70.096,53.496 -111.329,69.338c-41.233,15.841 -87.891,23.762 -139.975,23.762c-115.45,0 -205.729,-37.871 -270.833,-113.608c-65.104,-75.738 -97.654,-161.35 -97.654,-256.834c0,-89.845 27.558,-169.924 82.683,-240.237c69.875,-89.408 163.408,-134.113 280.596,-134.113c120.662,0.001 217.016,45.792 289.062,137.371c51.217,64.671 77.259,145.4 78.125,242.188l-636.716,0c1.737,82.462 27.995,150.062 78.775,202.8c50.783,52.733 113.5,79.1 188.15,79.1c36.025,0 71.075,-6.292 105.145,-18.879c34.071,-12.588 63.042,-29.3 86.913,-50.134c23.871,-20.833 49.696,-54.466 77.475,-100.908Zm0,-190.754c-12.154,-48.613 -29.842,-87.459 -53.058,-116.538c-23.221,-29.079 -53.93,-52.516 -92.125,-70.312c-38.196,-17.796 -78.342,-26.696 -120.442,-26.696c-69.446,0 -129.125,22.354 -179.037,67.058c-36.459,32.554 -64.017,81.38 -82.684,146.488l527.346,0Z" style="fill-rule:nonzero;"/><path d="M6888.48,5754.17l93.1,0l0,103.516c27.779,-40.8 57.075,-71.291 87.892,-91.471c30.816,-20.183 62.933,-30.274 96.354,-30.274c25.175,0 52.083,8.029 80.729,24.087l-47.525,76.825c-19.1,-8.246 -35.158,-12.371 -48.179,-12.371c-30.383,0 -59.679,12.479 -87.892,37.434c-28.208,24.958 -49.696,63.695 -64.45,116.212c-11.287,40.363 -16.929,121.962 -16.929,244.792l0,239.583l-93.1,0l0,-708.333Z" style="fill-rule:nonzero;"/><path d="M7324.03,5754.17l91.146,0l0,126.954c36.458,-48.613 76.821,-84.963 121.092,-109.05c44.27,-24.088 92.449,-36.133 144.533,-36.133c52.95,-0.001 99.933,13.454 140.95,40.362c41.016,26.912 71.287,63.154 90.821,108.725c19.529,45.575 29.295,116.537 29.295,212.892l0,364.583l-90.495,0l0,-337.892c0,-81.596 -3.471,-136.066 -10.417,-163.412c-10.85,-46.875 -31.25,-82.138 -61.196,-105.792c-29.95,-23.654 -69.012,-35.483 -117.187,-35.483c-55.125,0 -104.492,18.229 -148.113,54.687c-43.621,36.459 -72.375,81.6 -86.262,135.417c-8.684,35.158 -13.021,99.392 -13.021,192.708l0,259.767l-91.146,0l0,-708.333Z" style="fill-rule:nonzero;"/><path d="M8733.53,6227.48l76.82,40.363c-25.17,49.479 -54.25,89.412 -87.237,119.791c-32.993,30.383 -70.096,53.496 -111.334,69.338c-41.234,15.841 -87.887,23.762 -139.971,23.762c-115.45,0 -205.729,-37.871 -270.833,-113.608c-65.104,-75.738 -97.654,-161.35 -97.654,-256.834c0,-89.845 27.558,-169.924 82.683,-240.237c69.875,-89.408 163.409,-134.113 280.596,-134.113c120.663,0.001 217.017,45.792 289.062,137.371c51.217,64.671 77.258,145.4 78.125,242.188l-636.716,0c1.737,82.462 27.996,150.062 78.775,202.8c50.783,52.733 113.5,79.1 188.15,79.1c36.025,0 71.075,-6.292 105.146,-18.879c34.07,-12.588 63.042,-29.3 86.908,-50.134c23.87,-20.833 49.695,-54.466 77.48,-100.908Zm0,-190.754c-12.16,-48.613 -29.842,-87.459 -53.059,-116.538c-23.221,-29.079 -53.929,-52.516 -92.13,-70.312c-38.196,-17.796 -78.337,-26.696 -120.437,-26.696c-69.446,0 -129.125,22.354 -179.037,67.058c-36.459,32.554 -64.017,81.38 -82.684,146.488l527.347,0Z" style="fill-rule:nonzero;"/><rect x="8990.04" y="5480.73" width="91.146" height="981.771" style="fill-rule:nonzero;"/></g></svg>