<?xml version="1.0" standalone="no"?>
<!DOCTYPE svg PUBLIC "-//W3C//DTD SVG 20010904//EN"
 "http://www.w3.org/TR/2001/REC-SVG-20010904/DTD/svg10.dtd">
<svg version="1.0" xmlns="http://www.w3.org/2000/svg"
 width="127.000000pt" height="127.000000pt" viewBox="0 0 127.000000 127.000000"
 preserveAspectRatio="xMidYMid meet">
<metadata>
Created by potrace 1.11, written by Peter Selinger 2001-2013
</metadata>
<g transform="translate(0.000000,127.000000) scale(0.100000,-0.100000)"
fill="#000000" stroke="none">
<path d="M680 1203 c8 -17 8 -23 0 -23 -6 0 -22 -12 -36 -27 -19 -21 -27 -24
-33 -14 -5 7 -11 12 -15 12 -18 -3 -20 0 -6 9 11 7 19 5 28 -7 11 -15 12 -15
12 -1 0 25 -22 27 -57 6 -18 -11 -33 -16 -33 -12 0 4 -9 -3 -20 -16 -11 -12
-26 -20 -34 -17 -8 3 -17 -1 -20 -9 -3 -8 -12 -14 -21 -14 -8 0 -15 -4 -15 -9
0 -5 -14 -8 -31 -7 -26 2 -29 0 -15 -9 20 -15 21 -29 2 -22 -10 4 -12 0 -8
-15 3 -14 1 -19 -6 -15 -5 4 -12 2 -14 -5 -3 -7 -12 -9 -22 -5 -10 4 -14 12
-10 19 6 10 4 11 -7 1 -19 -19 -28 -16 -24 8 3 17 2 19 -10 9 -8 -6 -18 -10
-22 -7 -13 8 -15 -80 -2 -125 17 -57 17 -61 5 -78 -9 -13 -9 -13 5 -2 13 10
19 9 30 -5 12 -15 12 -16 -3 -10 -10 3 -20 1 -24 -5 -4 -7 -3 -8 4 -4 7 4 12
2 12 -3 0 -6 -5 -11 -11 -11 -12 0 -38 -29 -39 -42 0 -14 80 -48 114 -48 19 0
38 -5 41 -10 4 -6 24 -19 46 -31 35 -17 38 -22 25 -34 -8 -8 -19 -15 -24 -15
-5 0 -9 -7 -9 -15 0 -8 4 -15 9 -15 4 0 8 -16 8 -36 0 -19 -4 -33 -8 -30 -4 2
-7 -14 -6 -37 1 -23 -2 -52 -7 -64 -6 -17 -5 -23 6 -23 8 0 15 -8 15 -17 0
-15 2 -16 10 -3 7 11 12 12 21 3 9 -9 17 -9 32 -1 16 8 23 7 33 -6 6 -9 10
-25 7 -36 -3 -12 4 -28 19 -43 17 -17 22 -30 17 -40 -5 -8 -10 -45 -12 -81 -2
-52 -8 -70 -26 -90 -52 -56 -139 -29 -147 47 -5 38 31 83 53 66 9 -9 21 -8 43
1 31 13 31 13 11 31 -11 11 -26 19 -33 19 -9 0 -9 3 2 10 12 7 10 9 -8 7 -16
-1 -21 -6 -16 -19 3 -10 2 -18 -3 -17 -40 7 -73 -32 -73 -86 0 -58 52 -112
112 -117 34 -3 93 29 109 59 7 14 13 52 13 84 0 32 3 56 8 53 4 -3 5 1 3 9 -7
16 38 67 60 67 8 0 16 -9 16 -22 6 -84 4 -104 -7 -115 -7 -7 -11 -21 -9 -30 2
-10 4 -40 5 -68 1 -47 1 -49 14 -26 l14 24 6 -21 c8 -24 22 -30 24 -9 7 90 13
131 25 177 8 30 13 70 11 87 -4 46 13 42 66 -13 25 -25 53 -50 62 -55 16 -8
17 -7 8 16 -14 36 -13 37 9 25 31 -16 34 -12 13 18 -11 15 -23 38 -27 51 -6
19 -4 23 9 18 8 -3 18 -2 21 3 3 5 -8 7 -25 5 -17 -2 -29 0 -27 7 1 6 -6 12
-17 13 -10 2 -23 8 -29 14 -16 16 18 14 43 -1 27 -17 43 1 44 52 0 22 5 40 11
40 6 0 6 3 -1 8 -11 7 -34 46 -34 57 0 3 6 3 13 0 6 -4 3 1 -8 11 -20 16 -20
16 3 11 12 -3 20 -1 16 4 -3 5 -14 9 -24 9 -16 0 -19 6 -16 30 2 16 -1 27 -6
24 -5 -3 -7 -13 -3 -23 4 -11 3 -13 -4 -5 -6 5 -12 29 -14 51 -1 23 -5 39 -9
37 -4 -2 -9 0 -13 6 -3 5 -1 10 5 10 6 0 8 5 5 10 -4 6 8 10 27 11 42 0 100
20 106 36 2 7 -11 26 -29 43 -19 16 -28 30 -22 30 19 0 54 88 51 131 -1 21 -6
39 -11 39 -5 0 -7 11 -4 26 l4 25 -23 -22 c-13 -12 -21 -26 -18 -30 7 -12 -43
-42 -56 -34 -7 4 -10 15 -7 25 3 13 0 17 -9 13 -8 -3 -14 1 -14 11 0 9 -4 16
-10 16 -5 0 -10 5 -10 11 0 5 4 8 8 5 4 -2 8 4 8 15 0 26 -12 24 -21 -3 -6
-19 -8 -20 -12 -6 -2 9 -13 20 -23 23 -13 4 -16 12 -12 28 3 12 2 19 -2 15 -4
-3 -16 1 -26 10 -10 10 -25 22 -32 28 -7 5 -21 21 -31 35 -16 22 -17 22 -7 2z
m10 -43 c-8 -6 -22 -10 -30 -9 -9 0 -5 6 10 14 27 14 44 10 20 -5z m-354 -189
c-10 -16 -23 -14 -30 5 -9 25 4 38 21 21 9 -8 12 -20 9 -26z m524 -296 c0 -2
-16 -3 -36 -2 -29 1 -33 3 -20 12 9 7 12 16 8 20 -4 4 5 0 21 -10 15 -9 27
-19 27 -20z"/>
<path d="M713 1205 c0 -8 4 -12 9 -9 5 3 6 10 3 15 -9 13 -12 11 -12 -6z"/>
<path d="M554 1199 c-3 -6 -1 -16 4 -21 8 -8 11 -5 9 11 -1 24 -3 25 -13 10z"/>
<path d="M725 1170 c3 -5 11 -10 16 -10 6 0 7 5 4 10 -3 6 -11 10 -16 10 -6 0
-7 -4 -4 -10z"/>
<path d="M761 1154 c0 -11 3 -14 6 -6 3 7 2 16 -1 19 -3 4 -6 -2 -5 -13z"/>
<path d="M501 1143 c-7 -8 -11 -16 -8 -19 2 -2 10 2 17 11 17 20 9 27 -9 8z"/>
<path d="M450 1130 c-9 -6 -10 -10 -3 -10 6 0 15 5 18 10 8 12 4 12 -15 0z"/>
<path d="M790 1130 c0 -5 5 -10 11 -10 5 0 7 5 4 10 -3 6 -8 10 -11 10 -2 0
-4 -4 -4 -10z"/>
<path d="M416 1112 c-3 -4 4 -9 15 -9 23 -2 25 3 4 10 -8 4 -16 3 -19 -1z"/>
<path d="M790 1096 c0 -2 7 -6 15 -10 8 -3 15 -1 15 4 0 6 -7 10 -15 10 -8 0
-15 -2 -15 -4z"/>
<path d="M903 1013 c-7 -2 -13 -12 -13 -21 1 -15 2 -15 11 1 6 9 15 14 21 11
7 -4 8 -2 4 4 -4 7 -8 12 -9 11 -1 0 -8 -3 -14 -6z"/>
<path d="M955 841 c-3 -5 0 -13 6 -17 7 -4 9 -3 5 4 -3 5 0 13 6 15 9 4 10 6
1 6 -6 1 -14 -3 -18 -8z"/>
<path d="M496 83 c-6 -14 -5 -15 5 -6 7 7 10 15 7 18 -3 3 -9 -2 -12 -12z"/>
</g>
</svg>
