<?xml version="1.0" standalone="no"?>
<!DOCTYPE svg PUBLIC "-//W3C//DTD SVG 20010904//EN"
 "http://www.w3.org/TR/2001/REC-SVG-20010904/DTD/svg10.dtd">
<svg version="1.0" xmlns="http://www.w3.org/2000/svg"
 width="100%" height="100%" 
 preserveAspectRatio="xMidYMid meet">
<metadata>
Created by potrace 1.15, written by Peter Selinger 2001-2017
</metadata>
<g transform="translate(0.000000,1276.000000) scale(0.100000,-0.100000)"
fill="#D41C2B" stroke="none">
<path d="M16977 6413 l-5578 -6348 38 -33 c21 -17 43 -31 50 -30 13 3 11142
12665 11150 12686 6 13 -53 71 -72 72 -6 0 -2520 -2856 -5588 -6347z"/>
<path d="M1701 11424 c-35 -202 -66 -375 -68 -385 -5 -17 1 -19 59 -19 l65 0
22 138 c13 75 32 156 43 179 29 62 83 91 138 71 48 -16 51 -51 20 -231 l-27
-157 63 0 c35 0 64 3 64 6 0 3 14 81 30 174 24 133 29 177 21 210 -17 75 -67
110 -159 110 -49 0 -66 -5 -98 -29 l-40 -28 28 151 c15 83 27 157 28 164 0 8
-19 12 -62 12 l-63 0 -64 -366z"/>
<path d="M6235 11768 c-3 -13 -32 -178 -65 -368 -33 -190 -62 -353 -64 -362
-4 -16 4 -18 59 -18 l63 0 16 93 c34 188 39 209 60 240 46 69 135 82 163 23
13 -29 12 -44 -11 -179 -14 -81 -26 -154 -26 -162 0 -12 14 -15 59 -15 48 0
61 3 65 18 19 70 57 338 52 367 -8 42 -46 88 -86 105 -45 19 -140 9 -178 -19
-18 -12 -32 -18 -32 -13 0 5 11 69 25 143 34 182 36 169 -35 169 -54 0 -60 -2
-65 -22z"/>
<path d="M55 11703 c-3 -21 -9 -48 -12 -60 -5 -23 -4 -23 102 -23 l107 0 -6
-27 c-14 -66 -96 -544 -96 -558 0 -12 14 -15 65 -15 36 0 65 4 65 10 0 5 23
137 50 292 28 155 50 286 50 290 0 4 47 8 104 8 l104 0 11 50 c6 28 11 55 11
60 0 6 -107 10 -274 10 l-274 0 -7 -37z"/>
<path d="M2552 11388 c-34 -194 -62 -356 -62 -360 0 -9 130 -11 130 -3 0 7 90
517 93 528 1 5 54 -113 116 -262 l114 -271 78 0 c73 0 79 2 84 23 3 12 30 164
60 337 30 173 57 325 60 338 5 22 4 23 -62 20 l-67 -3 -43 -240 c-23 -132 -43
-249 -45 -260 -2 -11 -53 97 -115 240 l-112 260 -83 3 -84 3 -62 -353z"/>
<path d="M4717 11722 c-17 -18 -21 -39 -19 -80 3 -31 60 -56 96 -42 46 17 63
92 28 123 -25 23 -85 22 -105 -1z"/>
<path d="M4015 11638 c-2 -7 -8 -38 -12 -68 l-8 -55 -42 -3 c-38 -3 -42 -6
-48 -35 -4 -18 -9 -40 -11 -49 -5 -15 2 -18 39 -18 l44 0 -23 -122 c-13 -68
-23 -138 -24 -156 0 -41 23 -88 53 -104 21 -11 151 -18 160 -8 3 3 8 26 11 53
l7 47 -35 0 c-72 0 -78 17 -52 147 8 37 17 85 20 106 l7 37 53 0 c52 0 54 1
60 31 13 66 11 69 -45 69 l-52 0 6 38 c4 20 9 52 13 70 l7 32 -62 0 c-40 0
-63 -4 -66 -12z"/>
<path d="M4365 11638 c-2 -7 -8 -38 -12 -68 l-8 -55 -42 -3 c-38 -3 -42 -6
-48 -35 -4 -18 -9 -40 -11 -49 -5 -15 2 -18 39 -18 l44 0 -23 -122 c-13 -68
-23 -138 -24 -156 0 -41 23 -88 53 -104 21 -11 151 -18 160 -8 3 3 8 26 11 53
l7 47 -35 0 c-72 0 -78 17 -52 147 8 37 17 85 20 106 l7 37 53 0 c52 0 54 1
60 31 13 66 11 69 -45 69 l-52 0 6 38 c4 20 9 52 13 70 l7 32 -62 0 c-40 0
-63 -4 -66 -12z"/>
<path d="M11615 11583 c-13 -96 -11 -93 -71 -93 -41 0 -54 -4 -54 -15 0 -11
12 -15 51 -15 l52 0 -6 -42 c-4 -24 -18 -108 -32 -188 -28 -159 -25 -188 21
-209 42 -19 104 -12 104 13 0 7 -16 10 -44 8 -38 -3 -47 0 -60 20 -15 23 -14
38 16 211 l32 187 63 0 c49 0 63 3 63 15 0 12 -13 15 -61 15 -60 0 -61 0 -55
25 4 14 9 45 13 70 5 36 3 45 -10 45 -10 0 -17 -15 -22 -47z"/>
<path d="M746 11505 c-60 -21 -108 -66 -143 -134 -29 -55 -33 -72 -33 -139 0
-89 23 -142 79 -179 94 -64 247 -53 329 22 l37 34 -34 35 -34 35 -29 -24 c-41
-35 -98 -48 -147 -35 -45 12 -81 51 -81 86 l0 24 178 2 177 3 3 80 c3 99 -20
146 -87 182 -52 27 -151 31 -215 8z m139 -89 c36 -15 55 -42 55 -75 0 -20 -5
-21 -120 -21 l-121 0 15 28 c17 33 43 58 76 71 35 14 56 13 95 -3z"/>
<path d="M1327 11506 c-79 -29 -154 -112 -177 -196 -14 -50 -12 -135 3 -173
22 -51 86 -102 147 -117 94 -22 204 3 254 59 20 22 20 22 -15 56 l-34 35 -38
-27 c-71 -50 -163 -29 -194 45 -41 98 48 232 155 232 16 0 46 -12 67 -26 l38
-25 36 29 c50 40 50 56 0 89 -37 24 -54 28 -123 31 -51 1 -95 -3 -119 -12z"/>
<path d="M3477 11506 c-102 -37 -175 -137 -185 -252 -11 -138 68 -229 208
-241 159 -15 293 97 315 263 13 97 -35 187 -120 225 -48 22 -162 25 -218 5z
m153 -101 c78 -41 78 -180 -1 -252 -55 -49 -148 -47 -188 3 -94 119 57 317
189 249z"/>
<path d="M5135 11508 c-11 -6 -33 -22 -49 -37 l-28 -26 7 33 7 32 -59 0 -59 0
-38 -217 c-21 -120 -41 -231 -43 -246 l-6 -28 63 3 64 3 27 146 c28 155 45
199 84 225 38 25 94 23 116 -5 25 -30 24 -59 -6 -227 -14 -76 -25 -140 -25
-141 0 -2 28 -3 63 -3 l64 0 26 153 c40 231 35 284 -36 327 -36 22 -138 27
-172 8z"/>
<path d="M5635 11496 c-28 -12 -64 -39 -82 -59 -85 -96 -98 -280 -25 -360 57
-63 186 -79 267 -33 25 13 45 21 45 17 0 -4 -7 -28 -16 -54 -39 -114 -179
-149 -283 -70 l-33 26 -40 -41 c-25 -24 -39 -46 -35 -55 3 -8 30 -27 59 -41
143 -70 316 -47 397 51 44 53 65 127 111 389 22 127 40 234 40 238 0 3 -26 6
-59 6 -58 0 -59 0 -65 -32 -6 -29 -9 -31 -19 -17 -47 62 -169 79 -262 35z
m211 -110 c29 -29 34 -41 34 -83 0 -124 -116 -216 -214 -172 -40 18 -59 67
-54 133 8 92 72 156 155 156 38 0 51 -6 79 -34z"/>
<path d="M6852 11505 c-23 -7 -54 -20 -68 -30 l-25 -16 22 -37 c12 -20 24 -39
25 -41 2 -2 26 6 53 18 49 21 113 27 146 15 20 -8 37 -48 29 -69 -5 -11 -22
-15 -63 -15 -70 0 -158 -21 -202 -46 -98 -58 -108 -203 -16 -251 47 -24 141
-22 195 6 42 21 42 21 42 1 0 -18 6 -20 60 -20 l60 0 0 33 c0 18 11 97 26 176
33 189 23 234 -59 272 -50 22 -160 25 -225 4z m168 -270 c0 -22 -33 -76 -59
-98 -57 -48 -151 -30 -151 28 0 44 60 73 153 74 31 1 57 -1 57 -4z"/>
<path d="M7505 11509 c-11 -7 -30 -21 -42 -32 l-23 -20 0 27 c0 27 -1 27 -57
24 l-58 -3 -7 -50 c-4 -27 -23 -137 -41 -242 l-34 -193 63 0 c35 0 64 3 64 6
0 31 54 293 64 313 21 39 58 70 93 77 26 5 37 1 57 -19 32 -32 32 -30 1 -197
-35 -191 -37 -180 34 -180 68 0 57 -21 92 175 23 131 35 163 75 194 36 28 64
34 97 22 48 -19 51 -49 23 -212 -14 -81 -26 -154 -26 -163 0 -13 11 -16 59
-16 l60 0 10 53 c54 275 58 334 26 384 -54 82 -215 85 -288 5 -18 -20 -19 -20
-52 16 -31 34 -37 36 -101 39 -40 2 -77 -1 -89 -8z"/>
<path d="M4679 11508 c0 -2 -19 -111 -43 -243 l-42 -240 59 -3 c33 -2 61 -1
63 0 4 5 84 452 84 473 0 12 -13 15 -60 15 -33 0 -60 -1 -61 -2z"/>
<path d="M8645 11483 c-16 -8 -47 -31 -67 -50 l-36 -36 9 39 c12 52 11 54 -6
54 -8 0 -17 -10 -20 -22 -11 -53 -115 -654 -115 -670 0 -10 6 -18 13 -18 9 0
22 55 43 176 l29 177 27 -40 c73 -110 259 -110 355 1 59 66 68 92 68 198 0 92
-1 98 -31 135 -17 21 -46 46 -65 55 -44 23 -162 24 -204 1z m191 -29 c21 -10
45 -34 61 -61 23 -40 25 -52 21 -118 -6 -89 -39 -152 -106 -199 -49 -35 -141
-47 -192 -26 -42 17 -87 72 -100 121 -29 107 51 254 161 296 41 15 108 9 155
-13z"/>
<path d="M9262 11483 c-18 -8 -44 -30 -59 -47 l-26 -31 4 43 c3 29 1 42 -8 42
-14 0 -12 13 -53 -230 -17 -102 -34 -197 -37 -212 -4 -21 -2 -28 11 -28 9 0
16 1 16 3 0 37 55 289 71 326 27 64 89 119 141 127 21 4 38 10 38 15 0 15 -63
10 -98 -8z"/>
<path d="M9542 11474 c-93 -46 -144 -134 -145 -249 -1 -139 76 -215 218 -215
77 0 200 68 180 100 -4 7 -20 0 -44 -19 -51 -40 -82 -51 -148 -51 -102 0 -170
64 -175 166 l-3 49 207 3 206 2 7 29 c8 36 -11 117 -35 151 -46 65 -174 81
-268 34z m181 -8 c45 -19 77 -57 88 -106 18 -82 23 -80 -192 -80 l-190 0 7 23
c14 46 35 76 78 114 68 60 143 77 209 49z"/>
<path d="M10055 11485 c-50 -26 -75 -64 -75 -117 0 -57 27 -83 119 -118 96
-35 127 -95 80 -154 -55 -70 -156 -74 -231 -9 -26 23 -34 -5 -8 -32 64 -68
222 -52 270 28 42 68 18 143 -57 176 -134 61 -138 63 -141 104 -4 51 17 81 72
102 53 20 101 15 140 -16 25 -19 46 -19 46 2 0 5 -15 18 -32 29 -41 25 -139
27 -183 5z"/>
<path d="M10530 11485 c-51 -23 -109 -83 -136 -140 -26 -55 -33 -160 -13 -212
39 -103 186 -154 299 -102 51 23 90 56 90 76 0 18 -15 16 -30 -3 -8 -8 -33
-27 -57 -41 -38 -22 -52 -25 -113 -21 -108 6 -161 55 -168 158 l-4 60 208 2
209 3 -1 61 c-1 69 -21 114 -67 148 -37 28 -165 34 -217 11z m178 -25 c49 -22
81 -79 82 -142 l0 -38 -195 0 -195 0 10 26 c33 87 87 140 170 165 43 13 83 9
128 -11z"/>
<path d="M11105 11474 c-21 -14 -46 -35 -57 -47 l-19 -22 3 43 c3 29 0 42 -9
42 -14 0 -12 13 -53 -230 -17 -102 -34 -197 -37 -212 -4 -21 -2 -28 10 -28 11
0 18 13 23 38 48 277 72 340 144 388 86 57 180 33 208 -51 11 -35 10 -58 -13
-190 -15 -82 -29 -158 -31 -167 -4 -12 0 -18 10 -18 19 0 20 5 51 188 30 178
26 212 -30 261 -32 28 -43 31 -99 31 -51 0 -70 -5 -101 -26z"/>
<path d="M11905 11488 c-63 -35 -94 -99 -74 -156 12 -36 33 -51 114 -81 33
-12 68 -29 77 -38 26 -23 32 -67 13 -103 -41 -79 -162 -94 -232 -28 -21 20
-23 20 -29 3 -15 -38 92 -83 168 -71 86 14 133 64 133 142 0 51 -37 97 -94
115 -107 35 -140 68 -121 124 25 76 141 107 209 57 29 -21 51 -22 51 -2 0 5
-15 18 -34 29 -38 24 -145 29 -181 9z"/>
<path d="M30539 11004 c-97 -17 -225 -57 -316 -99 -228 -105 -434 -310 -537
-536 -34 -76 -91 -238 -85 -243 7 -6 224 -76 235 -76 6 0 23 36 38 81 86 261
234 438 464 554 155 77 364 114 549 95 318 -33 562 -188 691 -439 75 -145 103
-266 103 -443 0 -250 -67 -436 -260 -723 -158 -236 -267 -370 -1130 -1382
l-811 -952 0 -126 0 -125 1250 0 1250 0 0 130 0 130 -1083 2 -1083 3 624 730
c942 1103 1046 1230 1204 1465 160 238 250 450 284 675 21 134 14 369 -14 475
-114 431 -441 727 -889 805 -107 19 -379 18 -484 -1z"/>
<path d="M33030 9448 l-965 -1503 -3 -127 -3 -128 990 0 991 0 0 -550 0 -550
130 0 130 0 0 550 0 550 350 0 350 0 0 125 0 125 -350 0 -350 0 0 1505 0 1505
-153 0 -152 0 -965 -1502z m1007 -1505 c-2 -2 -380 -2 -841 -1 l-836 3 837
1301 838 1301 3 -1300 c1 -715 1 -1302 -1 -1304z"/>
<path d="M18520 10524 c-25 -2 -103 -9 -175 -15 -781 -65 -1550 -335 -2150
-754 -275 -192 -594 -489 -795 -740 -353 -441 -613 -971 -750 -1529 -151 -612
-170 -1325 -54 -1976 43 -240 145 -603 219 -774 16 -38 17 -38 35 -20 9 10
415 469 902 1020 l884 1000 23 134 c159 923 784 1624 1644 1846 l108 27 735
831 c403 456 731 833 726 837 -15 14 -337 69 -553 95 -126 15 -686 28 -799 18z"/>
<path d="M0 6355 l0 -3965 960 0 960 0 0 1655 0 1655 1540 0 1540 0 0 -1655 0
-1655 960 0 960 0 0 3965 0 3965 -960 0 -960 0 0 -1500 0 -1500 -1540 0 -1540
0 0 1500 0 1500 -960 0 -960 0 0 -3965z"/>
<path d="M10387 10308 c-3 -7 -748 -1784 -1657 -3948 -909 -2164 -1654 -3943
-1657 -3953 -5 -16 48 -17 1042 -15 l1047 3 288 770 288 770 1530 3 1530 2
168 -422 c91 -233 185 -470 208 -527 22 -57 44 -104 48 -105 12 -2 1449 1627
1444 1639 -5 13 -2334 5618 -2376 5718 l-32 77 -933 0 c-737 0 -934 -3 -938
-12z m1403 -3502 c258 -715 470 -1303 470 -1308 0 -4 -442 -8 -981 -8 -930 0
-981 1 -977 18 8 26 979 2646 985 2656 8 12 -33 122 503 -1358z"/>
<path d="M19635 8585 c-401 -454 -732 -831 -734 -837 -2 -7 5 -9 23 -4 169 42
569 54 781 22 547 -81 1001 -326 1262 -681 l22 -30 651 650 c357 357 650 655
650 660 0 14 -236 246 -323 318 -275 229 -622 419 -1043 572 -120 44 -454 141
-515 150 l-44 6 -730 -826z"/>
<path d="M22560 5355 l0 -3965 940 0 940 0 2 1825 3 1826 1473 -1826 1474
-1825 1255 0 c1189 0 1255 1 1242 17 -8 10 -815 965 -1794 2123 -979 1158
-1786 2113 -1793 2122 -12 15 185 229 1669 1815 925 989 1693 1810 1707 1826
l26 27 -1206 0 -1206 0 -1412 -1607 c-777 -885 -1419 -1609 -1426 -1611 -12
-3 -14 258 -14 1607 l0 1611 -940 0 -940 0 0 -3965z"/>
<path d="M16240 4748 c-487 -551 -891 -1011 -899 -1024 -13 -20 -11 -30 24
-110 567 -1326 1777 -2210 3280 -2398 292 -37 746 -48 1036 -26 893 69 1634
359 2279 894 120 100 410 385 410 404 0 8 -1249 1190 -1310 1239 l-27 22 -69
-86 c-240 -299 -619 -543 -996 -642 -455 -120 -965 -100 -1395 54 -209 75
-446 209 -623 352 -107 87 -264 251 -352 369 -347 466 -523 1102 -480 1733 7
97 15 186 18 199 4 12 2 22 -2 22 -5 -1 -407 -451 -894 -1002z"/>
<path d="M14450 2723 c-388 -438 -711 -806 -719 -818 -12 -20 -5 -44 83 -268
l98 -247 1070 0 c852 0 1069 3 1065 13 -2 6 -199 480 -437 1052 -238 572 -434
1046 -437 1053 -3 6 -8 12 -12 12 -3 0 -323 -359 -711 -797z"/>
</g>
</svg>