<svg xmlns="http://www.w3.org/2000/svg" viewBox="0 0 396.62 109.84"><defs><style>.cls-1{fill:#fff;}</style></defs><title>logo</title><g id="Layer_2" data-name="Layer 2"><g id="Layer_1-2" data-name="Layer 1"><path class="cls-1" d="M111.33,105.26V89.4H114v13.31h7.27v2.55Z"/><path class="cls-1" d="M123.51,105.26V94.37h2.57v10.89Z"/><path class="cls-1" d="M132,105.26h-2.6V94.37H132v1.45a3.62,3.62,0,0,1,3.22-1.76c2.66,0,3.94,1.92,3.94,4.31v6.89h-2.6V98.82c0-1.34-.6-2.42-2.23-2.42A2.28,2.28,0,0,0,132,99Z"/><path class="cls-1" d="M144,99.8a3.1,3.1,0,0,0,3,3.42,2.75,2.75,0,0,0,2.73-2l2.28.83a5.05,5.05,0,0,1-5,3.55A5.78,5.78,0,0,1,147,94a4.88,4.88,0,0,1,5,3.58l-2.33.85a2.55,2.55,0,0,0-2.64-2A3,3,0,0,0,144,99.8Z"/><path class="cls-1" d="M164.68,99.8A5.65,5.65,0,1,1,159,94,5.54,5.54,0,0,1,164.68,99.8Zm-2.61,0c0-2.26-1.43-3.42-3-3.42s-3,1.16-3,3.42,1.45,3.47,3,3.47S162.07,102.08,162.07,99.8Z"/><path class="cls-1" d="M167.18,105.26V89.07h2.6v16.19Z"/><path class="cls-1" d="M175.72,105.26h-2.59V94.37h2.53v1.45a3.61,3.61,0,0,1,3.22-1.76c2.66,0,3.93,1.92,3.93,4.31v6.89h-2.59V98.82c0-1.34-.61-2.42-2.24-2.42A2.29,2.29,0,0,0,175.72,99Z"/><path class="cls-1" d="M185.71,89.23a1.89,1.89,0,0,1,1.86,2.07c0,2.91-1.95,4-3.31,4.16V94.23a2.28,2.28,0,0,0,1.79-2,1.26,1.26,0,0,1-.47.11,1.46,1.46,0,0,1-1.52-1.54A1.58,1.58,0,0,1,185.71,89.23Z"/><path class="cls-1" d="M190.12,101.68a2,2,0,0,0,2.21,1.85c1.07,0,1.63-.58,1.63-1.25s-.4-1-1.27-1.2l-1.61-.36c-1.92-.43-2.93-1.68-2.93-3.18a3.77,3.77,0,0,1,4-3.51c3,0,4,2,4.2,3l-2.19.63a1.87,1.87,0,0,0-2-1.63,1.41,1.41,0,0,0-1.56,1.25,1.19,1.19,0,0,0,1.09,1.14l1.66.34c2,.44,3.13,1.69,3.13,3.3s-1.35,3.49-4.12,3.49c-3.15,0-4.36-2.06-4.49-3.28Z"/><path class="cls-1" d="M214.64,103.27a18.8,18.8,0,0,0,.11,2h-2.48a10.1,10.1,0,0,1-.11-1.41,3.61,3.61,0,0,1-3.2,1.67c-3.13,0-5.23-2.45-5.23-5.74,0-3.13,2.12-5.7,5.18-5.7a3.32,3.32,0,0,1,3.2,1.56V89.07h2.53Zm-5.39,0c1.7,0,2.88-1.4,2.88-3.48s-1.16-3.38-2.86-3.38-3,1.32-3,3.4S207.48,103.24,209.25,103.24Z"/><path class="cls-1" d="M218,105.26V94.37h2.57v10.89Z"/><path class="cls-1" d="M225.56,105.23a2.65,2.65,0,0,0,2.73,2.35c2.06,0,3.09-1,3.09-3.26v-1.14a3.49,3.49,0,0,1-3.16,1.58,5.3,5.3,0,0,1,0-10.59,3.39,3.39,0,0,1,3.22,1.58V94.37H234v9.86c0,2.9-1.5,5.61-5.59,5.61-2.89,0-4.9-1.79-5.19-4Zm5.88-5.76a2.83,2.83,0,1,0-2.79,3.08A2.8,2.8,0,0,0,231.44,99.47Z"/><path class="cls-1" d="M237.12,105.26V94.37h2.57v10.89Z"/><path class="cls-1" d="M246.33,94.37h2.26v2.3h-2.26v5c0,1,.42,1.37,1.38,1.37a5.84,5.84,0,0,0,.9-.09v2.15a4.33,4.33,0,0,1-1.59.24,3,3,0,0,1-3.26-3.24V96.67h-2v-2.3h.56a1.54,1.54,0,0,0,1.68-1.7V91h2.35Z"/><path class="cls-1" d="M253.88,99l2.8-.43c.62-.09.8-.4.8-.78,0-.91-.63-1.65-2.06-1.65a2.09,2.09,0,0,0-2.23,2l-2.37-.53c.2-1.88,1.9-3.56,4.58-3.56,3.36,0,4.63,1.9,4.63,4.07v5.41a10.39,10.39,0,0,0,.13,1.75h-2.41a6.4,6.4,0,0,1-.11-1.39,3.81,3.81,0,0,1-3.36,1.72,3.41,3.41,0,0,1-3.69-3.28C250.59,100.36,252,99.29,253.88,99Zm3.6,1.72v-.49l-2.84.42c-.8.14-1.45.58-1.45,1.48a1.44,1.44,0,0,0,1.59,1.41A2.48,2.48,0,0,0,257.48,100.74Z"/><path class="cls-1" d="M263.16,105.26V89.07h2.59v16.19Z"/><path class="cls-1" d="M277.24,105.26h-2.6V89.07h2.6v6.35a3.87,3.87,0,0,1,3.11-1.36c2.68,0,4,1.92,4,4.31v6.89h-2.59V98.82c0-1.34-.6-2.42-2.24-2.42a2.26,2.26,0,0,0-2.25,2.46Z"/><path class="cls-1" d="M291.32,105.57a4,4,0,0,1-4.12-4.34V94.37h2.6v6.39c0,1.34.62,2.48,2.19,2.48a2.17,2.17,0,0,0,2.28-2.43V94.37h2.59v8.9a16.29,16.29,0,0,0,.12,2h-2.49a8.85,8.85,0,0,1-.09-1.21A3.48,3.48,0,0,1,291.32,105.57Z"/><path class="cls-1" d="M300.21,105.26V89.07h2.55v6.64a3.93,3.93,0,0,1,3.42-1.63c3.27,0,5,2.48,5,5.68s-1.94,5.76-5.12,5.76a3.74,3.74,0,0,1-3.35-1.72v1.46Zm5.46-8.88c-1.66,0-2.93,1.23-2.93,3.4s1.27,3.44,2.93,3.44,2.93-1.3,2.93-3.44S307.39,96.38,305.67,96.38Z"/><rect class="cls-1" x="123.51" y="89.4" width="2.57" height="2.57"/><rect class="cls-1" x="218.03" y="89.4" width="2.57" height="2.57"/><rect class="cls-1" x="237.12" y="89.4" width="2.57" height="2.57"/><rect class="cls-1" x="22.27" width="22.27" height="22.27"/><rect class="cls-1" y="22.27" width="22.27" height="22.27"/><rect class="cls-1" y="44.53" width="22.27" height="22.27"/><rect class="cls-1" x="44.53" y="22.27" width="22.27" height="22.27"/><rect class="cls-1" x="66.8" width="22.27" height="22.27"/><path class="cls-1" d="M111.33,66.8V21.36h10.36v5.79c2.61-4.67,8.3-7.09,13.43-7.09,6,0,11.2,2.7,13.62,8,3.55-6,8.86-8,14.74-8,8.21,0,16.05,5.22,16.05,17.26V66.8H169.08V39.09c0-5.32-2.71-9.33-8.77-9.33-5.69,0-9.42,4.48-9.42,10.08v27H140.25V39.09c0-5.22-2.61-9.33-8.77-9.33-5.78,0-9.42,4.29-9.42,10.08v27Z"/><path class="cls-1" d="M234.3,44c0,14-10,24.17-23.6,24.17S187.19,58,187.19,44,197.17,20,210.7,20,234.3,30.13,234.3,44Zm-10.91,0c0-9.42-6-14.27-12.69-14.27S198,34.61,198,44s6.07,14.46,12.69,14.46S223.39,53.55,223.39,44Z"/><path class="cls-1" d="M248.32,51.87c.37,4.11,3.45,7.74,9.24,7.74,4.47,0,6.81-2.42,6.81-5.22,0-2.43-1.68-4.29-5.32-5l-6.72-1.49c-8-1.77-12.22-7-12.22-13.25,0-7.93,7.28-14.65,16.7-14.65,12.69,0,16.79,8.21,17.54,12.69l-9.14,2.62c-.38-2.62-2.34-6.82-8.4-6.82-3.83,0-6.53,2.43-6.53,5.23,0,2.42,1.77,4.2,4.57,4.76l6.9,1.4c8.59,1.86,13.06,7.09,13.06,13.8,0,6.91-5.59,14.56-17.16,14.56-13.15,0-18.19-8.59-18.75-13.72Z"/><path class="cls-1" d="M294.68,40.77,306.34,39c2.61-.38,3.36-1.68,3.36-3.27,0-3.82-2.61-6.9-8.58-6.9-5.69,0-8.87,3.64-9.33,8.21L281.9,34.8C282.74,27,289.83,20,301,20c14,0,19.31,7.93,19.31,17V59.52a41.59,41.59,0,0,0,.56,7.28H310.82a24.74,24.74,0,0,1-.47-5.79c-2.14,3.46-6.62,7.19-14,7.19-9.52,0-15.4-6.53-15.4-13.72C281,46.37,286.93,41.89,294.68,40.77Zm15,7.18V45.9l-11.85,1.77c-3.36.56-6.06,2.43-6.06,6.16,0,3.08,2.33,5.88,6.62,5.88C304.47,59.71,309.7,56.82,309.7,48Z"/><path class="cls-1" d="M330.86,66.8V21.36h10.73V66.8Z"/><rect class="cls-1" x="330.86" width="10.73" height="10.73"/><path class="cls-1" d="M385.71,44.53c-.21,9.19-6.07,14-12.67,14s-12.69-5-12.69-14.46S366.42,29.76,373,29.76V20C359.51,20,349.53,30.13,349.53,44S359.51,68.2,373,68.2s23.34-9.94,23.58-23.67Z"/></g></g></svg>