<svg width="445" height="103" xmlns="http://www.w3.org/2000/svg" xmlns:xlink="http://www.w3.org/1999/xlink"><defs><path d="M75.987 42.267c0-6.493-.023-12.986.025-19.477.009-1.016-.313-1.525-1.207-1.973a7496.543 7496.543 0 0 1-34.07-17.145c-.875-.443-1.55-.409-2.404.023A7906.223 7906.223 0 0 1 4.383 20.771c-.938.468-1.305.97-1.3 2.067.048 11.58.177 23.164-.045 34.741-.087 4.517.944 8.585 2.837 12.548.667 1.395 1.35 2.788 2.099 4.136 6.881 12.392 16.761 21.172 30.384 25.391.716.224 1.63.209 2.347-.023 15.702-5.145 26.64-15.538 33.203-30.695 1.47-3.394 2.284-6.889 2.132-10.68-.212-5.322-.053-10.658-.053-15.989zm2.935-.44c0 5.86-.11 11.725.042 17.581.087 3.278-.578 6.317-1.787 9.3-6.916 17.059-18.957 28.574-36.496 34.12a3.985 3.985 0 0 1-2.217.03C23.34 98.373 12.437 88.728 4.961 74.954c-.828-1.52-1.53-3.112-2.257-4.688-1.832-3.946-2.772-8.003-2.7-12.46.203-12.25.085-24.508.046-36.762-.004-1.073.341-1.599 1.296-2.076A7491.901 7491.901 0 0 0 38.278.354c.913-.46 1.607-.48 2.526-.013a7544.184 7544.184 0 0 0 37.063 18.675c.881.44 1.137.945 1.133 1.889-.038 6.972-.02 13.949-.02 20.921h-.058zM7 61.734c1.193-.339 2.056-.584 2.576-.735 2.062 4.1 3.801 8.2 6.082 11.967 5.398 8.907 13.108 15.132 22.89 18.71.562.202 1.336.202 1.893-.013 14.287-5.483 23.898-15.426 28.48-30.136.041-.132.122-.255.23-.481l2.849.692c-.468 1.43-.835 2.805-1.36 4.122-5.67 14.228-15.757 23.872-30.146 28.989-.612.219-1.44.19-2.064-.03-12.897-4.486-22.147-13.093-28.144-25.288-1.224-2.49-2.168-5.12-3.286-7.797zm64-38.32c-.44.877-.842 1.676-1.302 2.585-.529-.25-.999-.462-1.46-.693-9.113-4.524-18.236-9.036-27.331-13.603-1-.501-1.764-.53-2.788-.014-9.09 4.575-18.212 9.084-27.325 13.611-.466.231-.938.445-1.469.699-.455-.89-.86-1.69-1.325-2.602 1.39-.687 2.712-1.335 4.028-1.99 8.787-4.373 17.565-8.761 26.366-13.101.52-.258 1.35-.428 1.816-.2C50.432 13.142 60.626 18.241 71 23.415zm-41.938 40.61c11.328-8.903 22.505-17.687 33.726-26.502-.815-1.169-1.568-2.25-2.267-3.246-10.37 8.16-20.698 16.286-31.092 24.462l-9.824-10.148-2.66 2.87 12.117 12.564zm.675-9.223C40.203 46.507 50.543 38.316 61.038 30L67 38.002 28.783 68C23.396 62.42 18.075 56.91 13 51.657c2.184-2.46 4.307-4.852 6.559-7.385l10.178 10.53zm202.21-2.813c-1.416-5.917-2.808-11.75-4.258-17.814l-4.324 17.81c-2.512 0-4.963.038-7.413-.048-.308-.01-.745-.64-.864-1.058-1.862-6.565-3.675-13.14-5.509-19.711-.762-2.732-.77-2.73-3.579-3.025v-5.104h11.91v5.192h-2.752c1.337 5.151 2.634 10.14 3.927 15.125.091-.02.183-.037.274-.059 1.494-6.263 3.008-12.524 4.466-18.798.247-1.057.635-1.58 1.809-1.48 1.342.115 2.71.127 4.05-.002 1.246-.123 1.648.414 1.907 1.55 1.31 5.801 2.694 11.584 4.054 17.373.109.468.249.927.476 1.765 1.399-5.309 2.698-10.24 4.052-15.373-1.14-.054-2.116-.097-3.178-.146v-5.124H249v5.11c-.836.05-1.635.094-2.488.143-1.681 6.138-3.352 12.248-5.027 18.356-.399 1.459-.745 2.935-1.246 4.357-.142.403-.726.903-1.123.915-2.312.09-4.628.046-7.169.046zm78.732-10.43c-.307-1.18-.307-2.589-.984-3.488-1.274-1.696-4.048-1.773-5.861-.506-1.957 1.369-2.608 4.302-1.467 6.596.96 1.93 3.295 2.972 5.305 2.365 2.227-.676 2.723-1.565 3.007-4.967zm9.321 4.8v5.263c-3.046 0-6.07.191-9.042-.116-.902-.095-1.662-.108-2.474.13-5.048 1.466-10.404-1.639-12.034-6.875-1.706-5.479 1.529-12.836 8.163-13.51 1.832-.187 3.727.203 5.681.334v-4.32c-.797-.057-1.643-.12-2.566-.189V22h8.595v24.358H320zM356.153 51H344v-5.055c.863-.049 1.725-.098 2.674-.149v-8.958h-2.633v-5.394h8.753l.317 1.147c1.558-.518 3.083-1.313 4.68-1.503 5.366-.637 8.468 2.197 8.563 7.619.041 2.318.006 4.639.006 7.108H369v5.134h-8.944c0-1.26.009-2.502 0-3.744-.02-2.617.024-5.234-.089-7.849-.086-1.975-1.302-2.93-3.317-2.85-2.21.087-3.604 1.29-3.607 3.128-.004 2.024-.002 4.046-.002 6.215h3.112V51zM96.663 28.102c-.915-.044-1.753-.081-2.663-.123V23h11.673v4.968c-.923.046-1.804.09-2.767.14v17.875c1.96 0 3.888.042 5.81-.016 1.011-.032 1.317-.835 1.357-1.702.046-1.086.01-2.172.01-3.348H116V51H94.023v-4.979h2.64V28.102zm166.25 15.762c-1.715 0-3.35-.128-4.949.065-.587.07-1.36.806-1.537 1.388-.153.508.232 1.522.695 1.804 1.705 1.038 3.408.36 5.026-.419 1.3-.625.7-1.754.765-2.838zm-9.407-5.624l-1.924-3.963c1.777-.74 3.376-1.779 5.094-2.03a23.937 23.937 0 0 1 7.013.023c2.772.429 4.592 3.01 4.692 6.091.083 2.612.017 5.229.017 8.013.918.046 1.707.081 2.602.128v4.841c-2.513.624-7.721.276-8.344-.599-1.881 1.141-3.907 1.487-6.103 1.11-3.54-.603-5.704-3.106-5.545-6.529.134-2.855 2.734-5.24 6.087-5.434 1.866-.11 3.743-.02 5.684-.02.323-1.267-.255-2.199-1.866-2.66-1.867-.533-4.095-.24-7.407 1.029zm82.255.768c-.423-2.076-1.373-2.862-3.423-2.945-2.422-.097-3.778.796-4.392 2.945h7.815zm6.2 4.053h-14.149c.14 3.729 3.76 4.597 10.846 2.678.66 1.19 1.33 2.407 1.996 3.607-3.758 3.357-11.092 3.554-14.944.45-4.072-3.282-4.754-9.174-2.233-13.947 2.378-4.5 10.088-6.807 15.052-2.74 2.188 1.793 3.073 4.292 3.413 6.984.118.93.02 1.885.02 2.968zM182.965 39.02h7.807c-.323-1.94-1.265-2.776-3.187-2.93-2.157-.175-4.262.69-4.62 2.93zm14.007 4.031h-14.186c.2 2.24 2.002 3.876 4.54 3.798 2.11-.062 4.209-.54 6.491-.861l1.847 3.384c-4.661 4.01-15.505 4.042-18.106-4.22-2.388-7.589 3.118-15.677 12.085-13.904 3.896.77 6.902 4.345 7.316 8.864.084.905.013 1.826.013 2.939zm80.793-5.463h-2.75v-5.536c2.746 0 5.413-.03 8.076.043.34.009.661.576 1.117 1.003 2.578-1.657 5.68-.914 8.792-1.022v7.428h-5.199c-.057-.595-.107-1.163-.16-1.721-2.577-.414-3.769.576-3.77 3.105-.003 1.82.01 3.643.023 5.464 0 .091.057.18.149.442h3.802V52H275v-5.114h2.765v-9.299zM171.923 22v23.854l3.077.167V51h-12v-5.004h2.84V27.165a2486.5 2486.5 0 0 1-2.836-.17V22h8.92zm-22.308 14.364H147v-5.096l2.647-.116c0-1.112.04-2.227-.015-3.34-.038-.766.21-1.202.953-1.514 1.611-.684 3.178-1.468 4.94-2.298v7.147h3.742v5.173h-3.737c0 3.045-.034 5.961.017 8.874.019 1.078.793 1.451 1.797 1.347.615-.064 1.222-.21 2.023-.35.222.955.503 1.895.63 2.856.038.29-.27.786-.554.928-2.3 1.155-4.706 1.485-7.033.196-2.201-1.217-2.822-3.321-2.8-5.686.024-2.65.005-5.298.005-8.12zm-5.242 9.866c.133.462.264.863.364 1.271.558 2.303.372 2.6-1.966 3.195-4.784 1.217-8.078-1.297-8.095-6.194-.008-2.652-.002-5.302-.002-8.071L132 36.264v-5.029c.917-.042 1.759-.08 2.752-.123 0-1.246-.033-2.422.021-3.595.017-.368.182-.917.45-1.05 1.69-.854 3.427-1.614 5.286-2.467v7.127h3.71v5.176h-3.7c0 3.068-.05 5.992.03 8.914.025.892.689 1.448 1.69 1.331.7-.08 1.396-.205 2.134-.318zM98.069 65.22v12.506c.549.08 1.068.153 1.68.243v1.894H94v-1.887l1.492-.214V64.473c-.454-.069-.925-.14-1.492-.224v-2.233c1.717 0 3.435-.059 5.139.048.35.021.801.595.962 1.006 1.706 4.353 3.363 8.723 5.036 13.087.118.306.261.604.489 1.13 1.687-4.362 3.3-8.519 4.898-12.682.992-2.589.979-2.593 3.87-2.593h2.589v2.24l-1.544.184v13.322c.532.071 1.007.132 1.561.203v1.92h-5.82v-1.899c.55-.067 1.113-.138 1.756-.218V65.381c-.091-.028-.183-.05-.272-.078-.924 2.219-1.851 4.433-2.774 6.654-.986 2.378-2.013 4.743-2.925 7.15-.286.758-.74 1.027-1.415.832-.515-.147-1.2-.455-1.38-.868-1.879-4.336-3.67-8.708-5.485-13.07-.124-.296-.258-.583-.389-.874-.075.032-.151.06-.227.092zM130 51h-10.975v-4.918h2.639v-8.803H119V32h8.43v13.953H130V51zm114.035 25.443V64.279c-.636-.071-1.236-.14-1.893-.215v-1.948H248v1.912c-.466.088-.927.174-1.54.286V79.73c-2.916.51-2.9.499-4.212-1.81-2.295-4.04-4.613-8.068-7.117-12.44v12.216l1.606.228v1.923h-5.728v-1.902l1.488-.226V64.281L231 64.089v-2.063c1.455 0 2.855-.083 4.235.048.421.042.904.606 1.155 1.044 2.31 3.998 4.571 8.022 6.85 12.036.18.32.384.627.795 1.289zm-91.98-.33V64.28l-1.897-.22v-1.946H156v1.924l-1.492.292V79.68c-2.631.622-2.967.474-4.195-1.686-2.142-3.756-4.293-7.51-6.444-11.265-.179-.311-.378-.607-.737-1.181v12.145l1.63.215v1.925h-5.717v-1.9l1.479-.225V64.293c-.455-.062-.92-.131-1.524-.217v-2.051c1.428 0 2.865-.081 4.28.05.415.04.884.628 1.14 1.073 2.49 4.324 4.939 8.67 7.4 13.012a4.7 4.7 0 0 0 .236-.046zM306.082 80v-1.932c.563-.072 1.083-.142 1.67-.217v-6.26h-10.517v6.216l1.741.275v1.91H293v-1.927l1.61-.207v-13.66c-.482-.054-.997-.113-1.595-.179v-1.985h5.947v1.934c-.552.083-1.117.166-1.75.259v5.126h10.515v-5.17c-.524-.05-1.008-.098-1.595-.153V62h5.864v1.952c-.494.093-.96.18-1.522.283v13.576l1.526.282V80h-5.919zm-40.855-12.818c-1.403.164-2.458.168-3.502-1.077-2.353-2.806-6.802-2.312-8.814.85-1.763 2.768-1.898 5.701-.423 8.652 1.057 2.116 3.517 3.41 5.747 3.126 2.964-.378 4.27-1.52 5.084-4.594h-4.811v-2.033H266v8.652h-2.156c-.055-.915-.11-1.826-.159-2.67-1.166.803-2.232 1.834-3.5 2.355-3.34 1.36-7.036.155-9.273-2.787-3.34-4.397-2.16-11.437 2.412-14.403 2.978-1.932 7.034-1.595 9.784.769.59.507 1.286.89 2.118 1.453v1.707zm-57.25 2.416c1.309 0 2.485.053 3.655-.013 1.69-.095 2.584-1.09 2.6-2.766.017-1.744-.79-2.649-2.555-2.742-1.207-.065-2.418-.013-3.7-.013v5.534zm5.876 1.514c1.65 1.279 1.823 3.164 2.256 4.921.245.991.407 2.037 1.892 1.671v2.277c-.925 0-1.856.06-2.771-.034-.292-.03-.693-.426-.786-.737-.346-1.144-.59-2.321-.863-3.484-.898-3.843-1.564-4.337-5.573-4.055v6.056c.47.072.97.146 1.59.24v1.897h-5.587v-1.902c.521-.067 1.015-.133 1.566-.205V64.111L204 63.914v-1.866c2.93 0 5.834-.135 8.724.047 1.982.125 3.447 1.345 3.888 3.412.475 2.208-.309 3.96-2.231 5.15-.185.114-.334.286-.53.455zm158.197 6.64c3.91.49 6.104-.42 7.525-3.026 1.495-2.747 1.212-6.153-.715-8.554-1.39-1.735-4.376-2.489-6.81-1.712v13.291zm-2.587-13.47c-.48-.058-.933-.113-1.462-.18v-2.061c4.25.243 8.673-1.035 12.325 2.386 2.436 2.283 3.37 6.427 2.123 9.876-1.184 3.287-4.342 5.625-7.736 5.68-2.198.035-4.4.006-6.698.006v-1.953c.455-.082.898-.163 1.448-.266V64.282zm40.098 7.064c-.019-.265-.017-.757-.093-1.23-.424-2.621-1.644-4.655-4.198-5.511-2.267-.763-4.292-.175-5.917 1.623-2.11 2.337-2.459 6.788-.799 9.505 1.48 2.422 4.044 3.423 6.725 2.631 2.566-.758 4.274-3.473 4.282-7.018zm2.44.183c-.002 6.463-5.216 10.823-10.868 9.088-4.118-1.262-6.807-6.108-5.984-10.784.882-5.027 4.542-8.144 9.167-7.808 4.459.322 7.69 4.314 7.685 9.504zm-213.477.092c-.039-.524-.033-1.114-.13-1.681-.452-2.566-1.704-4.521-4.197-5.346-2.334-.775-4.365-.146-5.99 1.753-2.209 2.586-2.377 7.156-.331 9.876 1.08 1.435 2.493 2.348 4.313 2.419 3.625.145 6.192-2.688 6.335-7.021zm2.477-.21c-.033 6.555-5.318 10.982-10.924 9.188-4.676-1.495-6.495-6.254-5.996-10.34.48-3.938 2.419-6.859 6.259-7.945 5.071-1.433 10.008 2.203 10.56 7.62.051.532.072 1.067.101 1.477zm-79.437.106c0 .486-.062.98.01 1.453.409 2.647 1.759 4.543 4.279 5.427 2.039.715 4.546-.002 5.909-1.644 2.107-2.536 2.372-6.86.595-9.657-2.116-3.33-6.633-3.738-9.099-.797-1.248 1.488-1.827 3.243-1.694 5.218zM136 70.584c.006 7.35-5.22 11.796-10.847 10.029-3.615-1.138-5.53-3.909-6.046-7.672-.572-4.18 1.184-7.98 4.39-9.822 3.046-1.749 6.584-1.45 9.355.913 2.25 1.921 3.084 4.539 3.148 6.552zm230-3.517h-2.313V64.24h-6.446v5.476h5.298v2.172h-5.298v5.98h6.397v-2.863h2.353V80h-12.985v-1.87c.468-.092.972-.192 1.552-.304V64.208L353 64.019V62h13v5.067zM315.017 62H328v4.989h-2.401v-2.764h-6.445v5.492h5.319v2.166h-5.31v5.97h6.274c.054-.939.11-1.87.168-2.865h2.376V80H315v-1.922l1.578-.238V64.185c-.51-.049-.98-.097-1.56-.157V62zm111.997 2.15l-1.843-.178v-1.955H431v1.915c-.49.085-.95.167-1.559.27 0 2.495-.004 4.994.003 7.493.004 2.128-.327 4.174-1.757 5.864-1.8 2.132-4.144 2.843-6.877 2.228-2.805-.631-4.379-2.526-4.967-5.156-.314-1.41-.27-2.911-.304-4.372-.046-1.984-.01-3.97-.01-6.044-.52-.087-.973-.164-1.529-.26V62h5.733v1.949c-.522.073-1.036.141-1.592.216 0 3.347-.204 6.709.07 10.03.2 2.412 2.06 3.654 4.42 3.606 2.392-.05 4.146-1.38 4.328-3.88.234-3.239.055-6.509.055-9.77zm5.08 10.97h2.75c.932 3 2.533 4.065 5.091 3.371 1.178-.32 2.176-.823 2.315-2.278.145-1.5-.508-2.487-1.835-2.984-1.638-.612-3.368-.996-4.956-1.7-3.505-1.559-4.02-6.261-.8-8.334 1.294-.832 3.084-1.126 4.668-1.19 1.86-.078 3.426.885 4.522 2.52.238.354.73.533 1.15.825v1.942c-.745 0-1.435.09-2.081-.036-.36-.07-.867-.448-.938-.77-.34-1.534-1.48-2.031-2.768-2.217-1.4-.203-2.76.071-3.676 1.29-.998 1.336-.368 3.093 1.383 3.795 1.436.577 2.948.96 4.393 1.517 2.738 1.053 3.935 2.84 3.646 5.314-.285 2.425-2.424 4.493-5.059 4.746-2.935.283-5.449-.205-6.969-3.309-.38-.773-1.207-1.288-.837-2.502zM177.585 80h-5.673v-1.93l1.405-.282V64h-3.815c-.04.854-.083 1.696-.13 2.644H167V62h16v4.634h-2.378v-2.64h-4.617v13.83l1.581.217V80zm166.362-2.089c.559.045 1.072.09 1.714.143V80h-5.744v-1.88c.497-.088.998-.173 1.514-.262V63.993h-3.933v2.65H335V62h16v4.66h-2.332c-.053-.855-.104-1.709-.16-2.65h-4.56v13.901zM291 62v4.686h-2.39c-.047-.908-.094-1.757-.14-2.682h-4.548V77.86l1.686.221V80h-5.731v-1.914c.515-.075.977-.139 1.523-.217V64.02h-3.922c-.05.912-.098 1.763-.147 2.676H275V62h16zm96.617 2.161c-.529-.06-1.013-.114-1.6-.178V62H392v1.921c-.52.094-1.04.185-1.633.29v13.632l1.615.244V80H386v-1.893l1.617-.239V64.161zm-224.22 13.72l1.603.183V80h-5.989v-1.877c.514-.095 1.039-.195 1.624-.304V64.176l-1.635-.19V62h5.987v1.98l-1.59.192v13.709zm58.619.178l1.587-.168V64.226a307.74 307.74 0 0 1-1.603-.25V62h6v1.978l-1.648.208v13.7c.501.056.998.115 1.603.183V80h-5.94v-1.941zm-94.019-52.373c-.079 1.886-1.735 3.393-3.64 3.31-1.928-.084-3.414-1.671-3.355-3.582.058-1.895 1.677-3.45 3.556-3.413 1.93.033 3.52 1.739 3.439 3.685z" id="a"/></defs><use fill="#000" xlink:href="#a" fill-rule="evenodd"/></svg>